<?xml version="1.0" encoding="UTF-8" standalone="no"?>
<!-- Created with Inkscape (http://www.inkscape.org/) -->

<svg
   version="1.1"
   id="svg162"
   width="288.94113"
   height="161.71404"
   viewBox="0 0 288.94113 161.71403"
   sodipodi:docname="coupe_PT_WE.svg"
   inkscape:version="1.2.2 (b0a8486541, 2022-12-01)"
   xmlns:inkscape="http://www.inkscape.org/namespaces/inkscape"
   xmlns:sodipodi="http://sodipodi.sourceforge.net/DTD/sodipodi-0.dtd"
   xmlns="http://www.w3.org/2000/svg"
   xmlns:svg="http://www.w3.org/2000/svg">
  <defs
     id="defs166">
    <marker
       style="overflow:visible"
       id="marker61342"
       refX="0"
       refY="0"
       orient="auto-start-reverse"
       inkscape:stockid="Arrow2"
       markerWidth="3.75"
       markerHeight="3"
       viewBox="0 0 7.7 5.6"
       inkscape:isstock="true"
       inkscape:collect="always"
       preserveAspectRatio="xMidYMid">
      <path
         transform="scale(0.7)"
         d="M -2,-4 9,0 -2,4 c 2,-2.33 2,-5.66 0,-8 z"
         style="fill:context-stroke;fill-rule:evenodd;stroke:none"
         id="path61340" />
    </marker>
    <marker
       style="overflow:visible"
       id="Arrow2"
       refX="0"
       refY="0"
       orient="auto-start-reverse"
       inkscape:stockid="Arrow2"
       markerWidth="3.75"
       markerHeight="3"
       viewBox="0 0 7.7 5.6"
       inkscape:isstock="true"
       inkscape:collect="always"
       preserveAspectRatio="xMidYMid">
      <path
         transform="scale(0.7)"
         d="M -2,-4 9,0 -2,4 c 2,-2.33 2,-5.66 0,-8 z"
         style="fill:context-stroke;fill-rule:evenodd;stroke:none"
         id="arrow2L" />
    </marker>
    <clipPath
       clipPathUnits="userSpaceOnUse"
       id="clipPath182">
      <path
         d="m 55.325,37.54375 h 201.36377 v 110.88 H 55.325 Z"
         id="path180" />
    </clipPath>
    <clipPath
       clipPathUnits="userSpaceOnUse"
       id="clipPath192">
      <path
         d="m 55.325,37.54375 h 201.36377 v 110.88 H 55.325 Z"
         id="path190" />
    </clipPath>
    <clipPath
       clipPathUnits="userSpaceOnUse"
       id="clipPath252">
      <path
         d="M -1021,-463 H 1794 V 1233 H -1021 Z"
         id="path250" />
    </clipPath>
    <clipPath
       clipPathUnits="userSpaceOnUse"
       id="clipPath272">
      <path
         d="M -1021,-463 H 1794 V 1233 H -1021 Z"
         id="path270" />
    </clipPath>
    <clipPath
       clipPathUnits="userSpaceOnUse"
       id="clipPath312">
      <path
         d="m 55.325,37.54375 h 201.36377 v 110.88 H 55.325 Z"
         id="path310" />
    </clipPath>
    <clipPath
       clipPathUnits="userSpaceOnUse"
       id="clipPath322">
      <path
         d="m 55.325,37.54375 h 201.36377 v 110.88 H 55.325 Z"
         id="path320" />
    </clipPath>
    <clipPath
       clipPathUnits="userSpaceOnUse"
       id="clipPath332">
      <path
         d="m 55.325,37.54375 h 201.36377 v 110.88 H 55.325 Z"
         id="path330" />
    </clipPath>
  </defs>
  <sodipodi:namedview
     id="namedview164"
     pagecolor="#ffffff"
     bordercolor="#000000"
     borderopacity="0.25"
     inkscape:showpageshadow="2"
     inkscape:pageopacity="0.0"
     inkscape:pagecheckerboard="0"
     inkscape:deskcolor="#d1d1d1"
     showgrid="false"
     inkscape:zoom="2.5320194"
     inkscape:cx="89.849233"
     inkscape:cy="142.57395"
     inkscape:window-width="1920"
     inkscape:window-height="1043"
     inkscape:window-x="0"
     inkscape:window-y="0"
     inkscape:window-maximized="1"
     inkscape:current-layer="g170">
    <inkscape:page
       x="0"
       y="0"
       id="page168"
       width="288.94113"
       height="161.71404" />
  </sodipodi:namedview>
  <g
     id="g170"
     inkscape:groupmode="layer"
     inkscape:label="Page 1"
     transform="matrix(1.3333333,0,0,-1.3333333,-68.444604,202.72369)">
    <g
       id="g176"
       style="fill:#0064ff;fill-opacity:1;stroke:none">
      <g
         id="g178"
         clip-path="url(#clipPath182)"
         style="fill:#0064ff;fill-opacity:1;stroke:none">
        <path
           d="m 64.477899,92.139239 h 0.183241 0.183241 0.183241 0.183242 0.183241 0.183241 0.183241 0.183242 0.183241 0.183241 0.183241 0.183241 0.183242 0.183241 0.183241 0.183241 0.183241 0.183242 0.183241 0.183241 0.183241 0.183242 0.183241 0.183241 0.183241 0.183241 0.183242 0.183241 0.183241 0.183241 0.183242 0.183241 0.183241 0.183241 0.183241 0.183242 0.183241 0.183241 0.183241 0.183241 0.183242 0.183241 0.183241 l 0.183241,1.8e-5 0.183242,2.3e-5 0.183241,1.4e-5 0.183241,1.1e-5 0.183241,9e-6 0.183241,9e-6 0.183242,7e-6 0.183241,7e-6 0.183241,7e-6 0.183241,6e-6 0.183242,6e-6 0.183241,10e-7 0.183241,-10e-7 0.183241,-2e-6 0.183241,-2e-6 0.183242,-2e-6 0.183241,-2e-6 0.183241,-2e-6 0.183241,-2e-6 0.183241,-2e-6 0.183242,-2e-6 0.183241,-3e-6 0.183241,-2e-6 0.183241,-2e-6 0.183242,-3e-6 0.183241,-2e-6 0.183241,-3e-6 0.183241,-3e-6 0.183241,-2e-6 0.183242,-3e-6 0.183241,-2e-6 0.183241,-10e-7 0.183241,10e-7 0.183242,10e-7 0.183241,1e-6 0.183241,10e-7 0.183241,10e-7 h 0.183241 l 0.183242,10e-7 0.183241,10e-7 0.183241,3e-6 0.183241,5e-6 0.183241,6e-6 0.183242,6e-6 0.183241,5e-6 0.183241,5e-6 0.183241,5e-6 0.183242,5e-6 0.183241,4e-6 0.183241,4e-6 0.183241,5e-6 0.183241,4e-6 0.183242,4e-6 0.183241,3e-6 0.183241,4e-6 0.183241,4e-6 h 0.183242 l 0.183241,-4e-6 0.183241,-2e-6 h 0.183241 l 0.183241,3e-6 0.183242,4e-6 0.183241,4e-6 0.183241,3e-6 0.183241,4e-6 0.183241,4e-6 0.183242,4e-6 0.183241,3e-6 0.183241,3e-6 0.183241,4e-6 0.183242,3e-6 0.183241,3e-6 0.183241,4e-6 0.183241,3e-6 0.183241,3e-6 0.183242,3e-6 0.183241,2e-6 0.183241,10e-7 h 0.183241 l 0.183242,1e-6 h 0.183241 l 0.183241,0.0058 0.183241,0.0085 0.183241,0.0051 0.183242,0.004 0.183241,0.0034 0.183241,0.003 0.183241,0.0066 0.183241,0.0078 0.183242,0.0056 0.183241,0.0047 0.183241,0.0043 0.183241,0.0039 0.183242,0.0037 0.183241,0.0034 0.183241,0.0033 0.183241,0.0031 0.183241,0.003 0.183242,0.0029 0.183241,0.0028 0.183241,0.0029 0.183241,0.0033 0.183241,0.0032 0.183242,0.0031 0.183241,0.003 0.183241,0.0029 0.183241,0.0028 0.183242,0.0027 0.183241,0.0031 0.183241,0.0038 0.183241,0.0036 0.183241,0.0049 0.183242,0.0049 0.183241,0.0048 0.183241,0.0046 0.183241,0.0036 0.183242,-0.0011 0.183241,-0.0022 0.183241,-0.0022 0.183241,-0.0023 0.183241,-0.0023 0.183242,-0.0024 0.183241,-0.0022 0.183241,4.16e-4 0.183241,7.95e-4 0.183241,0.0023 0.183242,0.0023 0.183241,0.0023 0.183241,0.0022 0.183241,0.0022 0.183242,0.0022 0.183241,0.0021 0.183241,0.0021 0.183241,0.0021 0.183241,0.002 0.183242,0.0018 0.183241,7.48e-4 h 0.183241 l 0.183241,4.9e-5 0.183242,2.49e-4 0.183241,3.55e-4 0.183241,3.55e-4 0.183241,3.54e-4 0.183241,3.54e-4 0.183242,3.52e-4 0.183241,3.52e-4 0.183241,9.02e-4 0.183241,9.99e-4 0.183241,8e-5 0.183242,0.0018 0.183246,0.0079 0.18324,0.0087 0.18324,0.0067 0.18324,0.006 0.18324,0.0058 0.18324,0.0056 0.18324,0.0063 0.18324,0.007 0.18325,0.0074 0.18324,0.0078 0.18324,0.0083 0.18324,0.008 0.18324,0.0077 0.18324,0.0075 0.18324,0.0072 0.18324,0.0057 0.18324,0.0051 0.18325,0.005 0.18324,0.0055 0.18324,0.0057 0.18324,0.0062 0.18324,0.0068 0.18324,0.0066 0.18324,0.0065 0.18324,0.0063 0.18325,0.0062 0.18324,0.0061 0.18324,0.006 0.18324,0.0059 0.18324,0.0058 0.18324,0.0047 0.18324,0.0036 0.18324,0.0036 0.18325,0.0035 0.18324,0.0035 0.18324,0.0035 0.18324,0.0034 0.18324,0.0034 0.18324,0.0034 0.18324,0.0033 0.18324,0.0033 0.18325,0.0033 0.18324,0.0033 0.18324,0.0032 0.18324,0.0032 0.18324,0.0032 0.18324,0.0032 0.18324,0.0032 0.18324,0.0032 0.18325,0.0032 0.18324,0.0032 0.18324,0.0033 0.18324,0.0034 0.18324,0.0033 0.18324,0.0031 0.18324,0.0027 0.18324,0.0026 0.18324,0.0026 0.18325,0.0025 0.18324,0.0025 0.18324,0.0025 0.18324,0.0025 0.18324,0.0025 0.18324,0.0025 0.18324,0.0025 0.18324,0.0024 0.18325,0.0024 0.18324,0.0024 0.18324,0.0024 0.18324,0.0024 0.18324,0.0024 0.18324,0.0024 0.18324,0.0024 0.18324,0.0023 0.18325,0.0023 0.18324,0.0023 0.18324,0.0023 0.18324,0.0023 0.18324,0.0022 0.18324,0.002 0.18324,0.002 0.18324,0.002 0.18324,0.002 0.18325,0.002 0.18324,0.002 0.18324,0.0019 0.18324,0.0019 0.18324,0.0019 0.18324,0.0019 0.18324,0.0018 0.18324,0.0018 0.18325,0.0018 0.18324,0.0018 0.18324,0.0018 0.18324,0.0018 0.18324,0.0018 0.18324,0.0018 0.18324,0.0018 0.18324,0.0018 0.18325,0.0017 0.18324,0.0017 0.18324,0.0017 0.18324,0.0016 0.18324,0.0016 0.18324,0.0016 0.18324,0.0016 0.18324,0.0016 0.18325,0.0016 0.18324,0.0015 0.18324,0.0015 0.18324,0.0015 0.18324,0.0015 0.18324,0.0015 0.18324,0.0015 0.18324,0.0015 0.18325,0.0015 0.18324,0.0015 0.18324,0.0015 0.18324,0.0015 0.18324,0.0014 0.18324,0.0014 0.18324,0.0014 0.18324,0.0014 0.18325,0.0014 0.18324,0.0013 0.18324,0.0013 0.18324,0.0013 0.18324,0.0013 0.18324,0.0013 0.18324,0.0013 0.18324,0.0013 0.18324,0.0013 0.18325,0.0013 0.18324,0.0013 0.18324,0.0013 0.18324,0.0013 0.18324,0.0013 0.18324,0.0013 0.18324,0.0013 0.18324,0.0013 0.18324,0.0013 0.18325,0.0013 0.18324,0.0012 0.18324,0.0011 0.18324,0.0011 0.18324,0.0011 0.18324,0.0011 0.18324,0.0011 0.18324,0.0011 0.18325,0.0011 0.18324,0.0011 0.18324,0.0011 0.18324,0.0011 0.18324,0.0011 0.18324,0.0011 0.18324,0.0011 0.18324,0.0011 0.18325,0.0011 0.18324,0.0011 0.18324,0.0011 0.18324,0.0011 0.18324,0.001 0.18324,0.001 0.18324,10e-4 0.18324,0.001 0.18325,0.001 0.18324,10e-4 0.18324,0.001 0.18324,0.001 0.18324,9.74e-4 0.18324,8.59e-4 0.18324,8.57e-4 0.18324,8.57e-4 0.18324,8.55e-4 0.18325,8.54e-4 0.18324,8.53e-4 0.18324,8.52e-4 0.18324,8.5e-4 0.18324,8.5e-4 0.18324,8.48e-4 0.18324,8.47e-4 0.18324,8.46e-4 0.18325,8.45e-4 0.18324,8.44e-4 0.18324,8.43e-4 0.18324,8.41e-4 0.18324,8.41e-4 0.18324,8.39e-4 0.18324,8.39e-4 0.18324,8.37e-4 0.18325,8.36e-4 0.18324,8.35e-4 0.18324,8.34e-4 0.18324,8.33e-4 0.18324,8.32e-4 0.18324,8.22e-4 0.18324,7.83e-4 0.18324,7.81e-4 0.18325,7.76e-4 0.18324,7.5e-4 0.18324,7.49e-4 0.18324,7.49e-4 0.18324,7.48e-4 0.18324,7.47e-4 0.18324,7.46e-4 0.18324,7.45e-4 0.18325,7.44e-4 0.18324,7.44e-4 0.18324,7.42e-4 0.18324,7.42e-4 0.18324,7.41e-4 0.18324,6.82e-4 0.18324,5.81e-4 0.18324,5.8e-4 0.18324,5.79e-4 0.18325,5.79e-4 0.18324,5.79e-4 0.18324,5.78e-4 0.18324,5.77e-4 0.18324,5.77e-4 0.18324,5.71e-4 0.18324,5.68e-4 0.18324,5.63e-4 0.18325,5.53e-4 0.18324,5.53e-4 0.18324,5.52e-4 0.18324,5.51e-4 0.18324,5.51e-4 0.18324,5.51e-4 0.18324,5.5e-4 0.18324,5.5e-4 0.18325,5.49e-4 0.18324,5.49e-4 0.18324,5.49e-4 0.18324,5.48e-4 0.18324,5.47e-4 0.18324,5.47e-4 0.18324,5.47e-4 0.18324,5.44e-4 0.18325,4.38e-4 0.18324,4.32e-4 0.18324,4.31e-4 0.18324,4.3e-4 0.18324,4.31e-4 0.18324,4.3e-4 0.18324,4.3e-4 0.18324,4.29e-4 0.18325,4.29e-4 0.18324,4.29e-4 0.18324,4.29e-4 0.18324,4.29e-4 0.18324,4.28e-4 0.18324,4.28e-4 0.18324,4.28e-4 0.18324,4.27e-4 0.18324,4.27e-4 0.18325,4.27e-4 0.18324,4.27e-4 0.18324,4.26e-4 0.18324,4.26e-4 0.18324,4.26e-4 0.18324,4.26e-4 0.18324,4.25e-4 0.18324,4.25e-4 0.18325,4.21e-4 0.18324,4.16e-4 0.18324,4.12e-4 0.18324,3.17e-4 0.18324,2.87e-4 0.18324,2.33e-4 0.18324,2.14e-4 0.18324,1.74e-4 0.18325,1.74e-4 0.18324,1.74e-4 0.18324,1.74e-4 0.18324,1.73e-4 0.18324,1.74e-4 0.18324,1.74e-4 0.18324,1.74e-4 0.18324,1.74e-4 0.18325,1.73e-4 0.18324,1.74e-4 0.18324,1.73e-4 0.18324,1.74e-4 0.18324,1.73e-4 0.18324,1.74e-4 0.18324,1.73e-4 0.18324,1.74e-4 0.18324,1.73e-4 0.18325,1.73e-4 0.18324,1.73e-4 0.18324,1.74e-4 0.18324,1.73e-4 0.18324,1.73e-4 0.18324,1.73e-4 0.18324,1.73e-4 0.18324,1.73e-4 0.18325,1.73e-4 0.18324,1.73e-4 0.18324,1.72e-4 0.18324,1.73e-4 0.18324,1.73e-4 0.18324,1.73e-4 0.18324,1.72e-4 0.18324,1.73e-4 0.18325,1.72e-4 0.18324,1.73e-4 0.18324,1.73e-4 0.18324,1.72e-4 0.18324,1.72e-4 0.18324,1.73e-4 0.18324,1.45e-4 0.18324,1.36e-4 0.18325,9.6e-5 0.18324,9.5e-5 0.18324,9.1e-5 0.18324,-2e-6 0.18324,-5.1e-5 0.18324,-5.1e-5 0.18324,-5.2e-5 0.18324,-5.1e-5 0.18325,-5.1e-5 0.18324,-5.2e-5 0.18324,-5.1e-5 0.18324,-5.1e-5 0.18324,-5.2e-5 0.18324,-5.1e-5 0.18324,-5.1e-5 0.18324,-5.2e-5 0.18324,-5.1e-5 0.18325,-5.1e-5 0.18324,-5.2e-5 0.18324,-5.1e-5 0.18324,-5.1e-5 0.18324,-5.2e-5 0.18324,-5.1e-5 0.18324,-5.2e-5 0.18324,-5.1e-5 0.18325,-5.1e-5 0.18324,-5.2e-5 0.18324,-5.1e-5 0.18324,-5.2e-5 0.18324,-5.1e-5 0.18324,-7.5e-5 0.18324,-1.25e-4 0.18324,-1.27e-4 0.18325,-1.26e-4 0.18324,-1.27e-4 0.18324,-1.26e-4 0.18324,-1.27e-4 0.18324,-1.26e-4 0.18324,-1.27e-4 0.18324,-1.27e-4 0.18324,-1.26e-4 0.18325,-1.27e-4 0.18324,-1.27e-4 0.18324,-1.26e-4 0.18324,-1.27e-4 0.18324,-1.3e-4 0.18324,-1.99e-4 0.18324,-2.13e-4 0.18324,-2.43e-4 0.18325,-2.44e-4 0.18324,-2.44e-4 0.18324,-2.44e-4 0.18324,-2.44e-4 0.18324,-2.44e-4 0.18324,-2.44e-4 0.18324,-2.45e-4 0.18324,-2.44e-4 0.18325,-2.44e-4 0.18324,-2.52e-4 0.18324,-2.97e-4 0.18324,-3.61e-4 0.18324,-3.62e-4 0.18324,-3.61e-4 0.18324,-3.62e-4 0.18324,-3.62e-4 0.18324,-3.62e-4 0.18325,-3.62e-4 0.18324,-3.62e-4 0.18324,-3.63e-4 0.18324,-3.63e-4 0.18324,-3.63e-4 0.18324,-3.63e-4 0.18324,-3.63e-4 0.18324,-3.64e-4 0.18325,-3.63e-4 0.18324,-3.64e-4 0.18324,-3.64e-4 0.18324,-3.65e-4 0.18324,-3.64e-4 0.18324,-3.65e-4 0.18324,-3.64e-4 0.18324,-3.62e-4 0.18325,-3.63e-4 0.18324,-3.63e-4 0.18324,-3.63e-4 0.18324,-3.63e-4 0.18324,-3.64e-4 0.18324,-3.59e-4 0.18324,-3.6e-4 0.18324,-3.6e-4 0.18324,-3.6e-4 0.18325,-3.61e-4 0.18324,-3.76e-4 0.18324,-4.33e-4 0.18324,-4.58e-4 0.18324,-5.37e-4 0.18324,-5.58e-4 0.18324,-5.59e-4 0.18325,-5.59e-4 0.18324,-5.59e-4 0.18324,-5.6e-4 0.18324,-5.61e-4 0.18324,-5.61e-4 0.18324,-5.61e-4 0.18324,-5.62e-4 0.18324,-5.62e-4 0.18324,-5.63e-4 0.18325,-5.63e-4 0.18324,-5.64e-4 0.18324,-5.64e-4 0.18324,-5.65e-4 0.18324,-5.65e-4 0.18324,-5.66e-4 0.18324,-5.66e-4 0.18324,-5.66e-4 0.18325,-5.67e-4 0.18324,-5.68e-4 0.18324,-5.68e-4 0.18324,-5.68e-4 0.18324,-5.7e-4 0.18324,-5.69e-4 0.18324,-5.7e-4 0.18324,-6.03e-4 0.18325,-6.3e-4 0.18324,-7.06e-4 0.18324,-7.73e-4 0.18324,-7.74e-4 0.18324,-7.76e-4 0.18324,-7.76e-4 0.18324,-7.77e-4 0.18324,-7.78e-4 0.18324,-7.79e-4 0.18325,-7.82e-4 0.18324,-7.84e-4 0.18324,-7.85e-4 0.18324,-7.86e-4 0.18324,-7.87e-4 0.18324,-7.88e-4 0.18324,-7.89e-4 0.18325,-7.9e-4 0.18324,-7.92e-4 0.18324,-7.94e-4 0.18324,-7.95e-4 0.18324,-7.96e-4 0.18324,-7.97e-4 0.18324,-7.98e-4 0.18324,-7.99e-4 0.18324,-7.99e-4 0.18325,-8.01e-4 0.18324,-8.02e-4 0.18324,-8.03e-4 0.18324,-8.04e-4 0.18324,-8.05e-4 0.18324,-8.06e-4 0.18324,-8.07e-4 0.18324,-8.09e-4 0.18325,-8.77e-4 0.18324,-9.14e-4 0.18324,-9.23e-4 0.18324,-9.24e-4 0.18324,-9.69e-4 0.18324,-0.0011 0.18324,-0.0011 0.18324,-0.0011 0.18324,-0.0011 0.18325,-0.0011 0.18324,-0.0011 0.18324,-0.0011 0.18324,-0.0011 0.18324,-0.0011 0.18324,-0.0011 0.18324,-0.0011 0.18324,-0.0011 0.18325,-0.0011 0.18324,-0.0011 0.18324,-0.0011 0.18324,-0.0011 0.18324,-0.0011 0.18324,-0.0011 0.18324,-0.0011 0.18324,-0.0011 0.18325,-0.0011 0.18324,-0.0011 0.18324,-0.0011 0.18324,-0.0011 0.18324,-0.0011 0.18324,-0.0011 0.18324,-0.0011 0.18324,-0.0011 0.18325,-0.0012 0.18324,-0.0012 0.18324,-0.0012 0.18324,-0.0012 0.18324,-0.0012 0.18324,-0.0012 0.18324,-0.0012 0.18324,-0.0012 0.18325,-0.0013 0.18324,-0.0013 0.18324,-0.0013 0.18324,-0.0013 0.18324,-0.0013 0.18324,-0.0013 0.18324,-0.0013 0.18324,-0.0014 0.18324,-0.0016 0.18325,-0.0016 0.18324,-0.0016 0.18324,-0.0016 0.18324,-0.0016 0.18324,-0.0016 0.18324,-0.0016 0.18324,-0.0016 0.18324,-0.0015 0.18325,-0.0015 0.18324,-0.0015 0.18324,-0.0015 0.18324,-0.0016 0.18324,-0.0016 0.18324,-0.0016 0.18324,-0.0016 0.18324,-0.0016 0.18325,-0.0016 0.18324,-0.0016 0.18324,-0.0016 0.18324,-0.0016 0.18324,-0.0016 0.18324,-0.0016 0.18324,-0.0016 0.18324,-0.0016 0.18325,-0.0016 0.18324,-0.0016 0.18324,-0.0016 0.18324,-0.0016 0.18324,-0.0016 0.18324,-0.0016 0.18324,-0.0016 0.18324,-0.0016 0.18325,-0.0017 0.18324,-0.0019 0.18324,-0.0019 0.18324,-0.0019 0.18324,-0.0019 0.18324,-0.0019 0.18324,-0.0019 0.18324,-0.0019 0.18324,-0.0019 0.18325,-0.0019 0.18324,-0.0019 0.18324,-0.0019 0.18324,-0.002 0.18324,-0.002 0.18324,-0.002 0.18324,-0.0019 0.18324,-0.0019 0.18325,-0.002 0.18324,-0.002 0.18324,-0.0021 0.18324,-0.0021 0.18324,-0.0022 0.18324,-0.0022 0.18324,-0.0022 0.18324,-0.0022 0.18325,-0.0023 0.18324,-0.0023 0.18324,-0.0023 0.18324,-0.0023 0.18324,-0.0023 0.18324,-0.0023 0.18324,-0.0023 0.18325,-0.0023 0.18324,-0.0023 0.18324,-0.0024 0.18324,-0.0024 0.18324,-0.0024 0.18324,-0.0024 0.18324,-0.0024 0.18324,-0.0024 0.18324,-0.0024 0.18324,-0.0024 0.18325,-0.0027 0.18324,-0.0027 0.18324,-0.0028 0.18324,-0.0028 0.18324,-0.0028 0.18324,-0.0029 0.18324,-0.0029 0.18324,-0.0029 0.18325,-0.0029 0.18324,-0.0029 0.18324,-0.003 0.18324,-0.003 0.18324,-0.003 0.18324,-0.003 0.18324,-0.003 0.18324,-0.0031 0.18325,-0.0031 0.18324,-0.0031 0.18324,-0.0031 0.18324,-0.0032 0.18324,-0.0032 0.18324,-0.0032 0.18324,-0.0032 0.18324,-0.0031 0.18325,-0.003 0.18324,-0.0029 0.18324,-0.0029 0.18324,-0.0029 0.18324,-0.003 0.18324,-0.003 0.18324,-0.003 0.18324,-0.003 0.18325,-0.0031 0.18324,-0.0031 0.18324,-0.0032 0.18324,-0.0033 0.18324,-0.0033 0.18324,-0.0034 0.18324,-0.0034 0.18324,-0.0034 0.18324,-0.0035 0.18325,-0.0035 0.18324,-0.0035 0.18324,-0.0036 0.18324,-0.0036 0.18324,-0.0037 0.18324,-0.0037 0.18324,-0.0038 0.18324,-0.0038 0.18325,-0.0039 0.18324,-0.0039 0.18324,-0.004 0.18324,-0.004 0.18324,-0.0041 0.18324,-0.0042 0.18324,-0.0042 0.18325,-0.0043 0.18324,-0.0044 0.18324,-0.0046 0.18324,-0.0047 0.18324,-0.0045 0.18324,-0.0042 0.18324,-0.0043 0.18324,-0.0043 0.18324,-0.0044 0.18325,-0.0045 0.18324,-0.0046 0.18324,-0.0047 0.18324,-0.0048 0.18324,-0.0049 0.18324,-0.0051 0.18324,-0.0052 0.18324,-0.0054 0.18325,-0.0055 0.18324,-0.0057 0.18324,-0.0059 0.18324,-0.0061 0.18324,-0.0064 0.18324,-0.0067 0.18324,-0.007 0.18324,-0.0074 0.18324,-0.0079 0.18325,-0.0084 0.18324,-0.0091 0.18324,-0.01 0.18324,-0.01122 0.18324,-0.01305 0.18324,-0.01629 0.18324,-0.02651 0.18324,-0.0253 0.18325,-6e-6 0.18324,-8e-6 0.18324,-8e-6 0.18324,-9e-6 0.18324,-9e-6 0.18324,-1e-5 0.18324,-10e-6 0.18324,-1e-5 0.18325,-1.2e-5 0.18324,-1.2e-5 0.18324,-1.3e-5 0.18324,-1.4e-5 0.18324,-1.6e-5 0.18324,-1.9e-5 m 14.6593,-9.3e-5 v 0 l 0.18324,7e-6 0.18324,2e-6 0.18324,3e-6 0.18324,2e-6 0.18324,10e-7 h 0.18325 0.18324 0.18324 0.18324 0.18324 0.18324 0.18324 0.18324 l 0.18325,1.9e-5 0.18324,1.2e-5 0.18324,-5.5e-5 h 0.18324 0.18324 0.18324 0.18324 0.18324 0.18325 0.18324 0.18324 0.18324 0.18324 0.18324 0.18324 0.18324 v 0 h -0.18324 -0.18324 -0.18324 -0.18324 -0.18324 -0.18324 -0.18324 -0.18325 -0.18324 -0.18324 -0.18324 -0.18324 -0.18324 l -0.18324,-0.0022 -0.18324,4.68e-4 -0.18325,7.51e-4 -0.18324,-10e-7 h -0.18324 -0.18324 l -0.18324,-10e-7 h -0.18324 l -0.18324,-10e-7 h -0.18324 l -0.18325,1.1e-5 -0.18324,4.2e-5 -0.18324,8.2e-5 -0.18324,9.1e-5 -0.18324,1.05e-4 -0.18324,2.64e-4 m -14.6593,-0.0037 v 0 l -0.18324,-7.54e-4 -0.18324,-6.42e-4 -0.18324,-5.72e-4 -0.18324,-5.2e-4 -0.18324,-4.81e-4 -0.18325,-4.5e-4 -0.18324,-4.24e-4 -0.18324,-4.02e-4 -0.18324,-3.83e-4 -0.18324,-3.67e-4 -0.18324,-3.52e-4 -0.18324,-3.4e-4 -0.18324,-3.09e-4 -0.18325,-2.38e-4 -0.18324,-1.011987 -0.18324,-1.060231 -0.18324,-0.651705 -0.18324,-0.522173 -0.18324,-0.448832 -0.18324,-0.399856 -0.18324,-0.364129 -0.18325,-0.336566 -0.18324,-0.314266 -0.18324,-0.296029 -0.18324,-0.280653 -0.18324,-0.267451 -0.18324,-0.255955 -0.18324,-0.245826 -0.18324,-0.236813 -0.18324,-0.228723 -0.18325,-0.221411 -0.18324,-0.214758 -0.18324,-0.208672 -0.18324,-0.203074 -0.18324,-0.197906 -0.18324,-0.193113 -0.18324,-0.188651 -0.18324,-0.184487 -0.18325,-0.180585 -0.18324,-0.176922 -0.18324,-0.173473 -0.18324,-0.170218 -0.18324,-0.167512 -0.18324,-0.180179 -0.18324,-0.186101 -0.18324,-0.182125 -0.18324,-0.176417 -0.18325,-0.17184 -0.18324,-0.168792 -0.18324,-0.166117 -0.18324,-0.163563 -0.18324,-0.161124 -0.18324,-0.158791 -0.18324,-0.156556 -0.18325,-0.154414 -0.18324,-0.152356 -0.18324,-0.15038 -0.18324,-0.148477 -0.18324,-0.146646 -0.18324,-0.144881 -0.18324,-0.143177 -0.18324,-0.141533 -0.18325,-0.139944 -0.18324,-0.138407 -0.18324,-0.13692 -0.18324,-0.13548 -0.18324,-0.134084 -0.18324,-0.132731 -0.18324,-0.131417 -0.18324,-0.129247 -0.18324,-0.125114 -0.18325,-0.122346 -0.18324,-0.121269 -0.18324,-0.120221 -0.18324,-0.119201 -0.18324,-0.118204 -0.18324,-0.117234 -0.18324,-0.116285 -0.18324,-0.115361 -0.18325,-0.118594 -0.18324,-0.125202 -0.18324,-0.129915 -0.18324,-0.128798 -0.18324,-0.12771 -0.18324,-0.126649 -0.18324,-0.125615 -0.18324,-0.124605 -0.18325,-0.12362 -0.18324,-0.122656 -0.18324,-0.121716 -0.18324,-0.120797 -0.18324,-0.119898 -0.18324,-0.119019 -0.18324,-0.118158 -0.18324,-0.117318 -0.18325,-0.116493 -0.18324,-0.115687 -0.18324,-0.114897 -0.18324,-0.114122 -0.18324,-0.113364 -0.18324,-0.112412 -0.18324,-0.1103 -0.18324,-0.109605 -0.18325,-0.106733 -0.18324,-0.09776 -0.18324,-0.09722 -0.18324,-0.09669 -0.18324,-0.09618 -0.18324,-0.09566 -0.18324,-0.09521 -0.18324,-0.09488 -0.18324,-0.09439 -0.18324,-0.09391 -0.18325,-0.09343 -0.18324,-0.09297 -0.18324,-0.09251 -0.18324,-0.09205 -0.18324,-0.0916 -0.18324,-0.09116 -0.18324,-0.09073 -0.18325,-0.0903 -0.18324,-0.08988 -0.18324,-0.08946 -0.18324,-0.08905 -0.18324,-0.08864 -0.18324,-0.08583 -0.18324,-0.08466 -0.18324,-0.07971 -0.18325,-0.07856 -0.18324,-0.07748 -0.18324,-0.07737 -0.18324,-0.07803 -0.18324,-0.07813 -0.18324,-0.07814 -0.18324,-0.07784 -0.18324,-0.07755 -0.18325,-0.07725 -0.18324,-0.07696 -0.18324,-0.07667 -0.18324,-0.07639 -0.18324,-0.07611 -0.18324,-0.07583 -0.18324,-0.07556 -0.18324,-0.07529 -0.18324,-0.0747 -0.18325,-0.06627 -0.18324,-0.06578 -0.18324,-0.06558 -0.18324,-0.06538 -0.18324,-0.06518 -0.18324,-0.06498 -0.18324,-0.06479 -0.18324,-0.06459 -0.18325,-0.0644 -0.18324,-0.06421 -0.18324,-0.06402 -0.18324,-0.06383 -0.18324,-0.06365 -0.18324,-0.06346 -0.18324,-0.06328 -0.18324,-0.0631 -0.18325,-0.06292 -0.18324,-0.06274 -0.18324,-0.06257 -0.18324,-0.06239 -0.18324,-0.06222 -0.18324,-0.06205 -0.18324,-0.06188 -0.18324,-0.06171 -0.18325,-0.06154 -0.18324,-0.0619 -0.18324,-0.06247 -0.18324,-0.06259 -0.18324,-0.06292 -0.18324,-0.06275 -0.18324,-0.06257 -0.18324,-0.06241 -0.18325,-0.06224 -0.18324,-0.06207 -0.18324,-0.05641 -0.18324,-0.05071 -0.18324,-0.0506 -0.18324,-0.05049 -0.18324,-0.05039 -0.18324,-0.05028 -0.18324,-0.05017 -0.18325,-0.05006 -0.18324,-0.04996 -0.18324,-0.04985 -0.18324,-0.04975 -0.18324,-0.04965 -0.18324,-0.04954 -0.18324,-0.04944 -0.18324,-0.04934 -0.18325,-0.04734 -0.18324,-0.04455 -0.18324,-0.04447 -0.18324,-0.04438 -0.18324,-0.0443 -0.18324,-0.04422 -0.18324,-0.04414 -0.18324,-0.04406 -0.18325,-0.04398 -0.18324,-0.0439 -0.18324,-0.04382 -0.18324,-0.04375 -0.18324,-0.04367 -0.18324,-0.04359 -0.18324,-0.04351 -0.18324,-0.04344 -0.18325,-0.04336 -0.18324,-0.04329 -0.18324,-0.04321 -0.18324,-0.04314 -0.18324,-0.04306 -0.18324,-0.04317 -0.18324,-0.04333 -0.18324,-0.04327 -0.18325,-0.04345 -0.18324,-0.04337 -0.18324,-0.0433 -0.18324,-0.04323 -0.18324,-0.04315 -0.18324,-0.03878 -0.18324,-0.03696 -0.18324,-0.0369 -0.18324,-0.03656 -0.18325,-0.03508 -0.18324,-0.03237 -0.18324,-0.03228 -0.18324,-0.03224 -0.18324,-0.0322 -0.18324,-0.03216 -0.18324,-0.03211 -0.18324,-0.03207 -0.18325,-0.03203 -0.18324,-0.032 -0.18324,-0.03195 -0.18324,-0.03192 -0.18324,-0.03188 -0.18324,-0.03184 -0.18324,-0.0318 -0.18324,-0.03176 -0.18324,-0.03168 -0.18325,-0.0316 -0.18324,-0.03156 -0.18324,-0.03152 -0.18324,-0.03148 -0.18324,-0.03144 -0.18324,-0.03141 -0.18324,-0.03137 -0.18325,-0.03127 -0.18324,-0.03116 -0.18324,-0.03112 -0.18324,-0.03109 -0.18324,-0.03105 -0.18324,-0.03101 -0.18324,-0.03097 -0.18324,-0.03094 -0.18324,-0.02824 -0.18325,-0.02517 -0.18324,-0.02413 -0.18324,-0.0228 -0.18324,-0.02278 -0.18324,-0.02276 -0.18324,-0.02274 -0.18324,-0.02272 -0.18324,-0.0227 -0.18325,-0.02268 -0.18324,-0.02266 -0.18324,-0.02264 -0.18324,-0.02263 -0.18324,-0.02261 -0.18324,-0.02259 -0.18324,-0.02257 -0.18324,-0.02255 -0.18325,-0.02253 -0.18324,-0.02251 -0.18324,-0.02249 -0.18324,-0.02247 -0.18324,-0.02246 -0.18324,-0.02244 -0.18324,-0.02242 -0.18324,-0.0224 -0.18324,-0.02238 -0.18325,-0.02236 -0.18324,-0.02234 -0.18324,-0.02232 -0.18324,-0.02149 -0.18324,-0.01833 -0.18324,-0.01731 -0.18324,-0.01504 -0.18325,-0.01442 -0.18324,-0.01441 -0.18324,-0.0144 -0.18324,-0.01439 -0.18324,-0.01439 -0.18324,-0.01453 -0.18324,-0.01453 -0.18324,-0.01453 -0.18324,-0.01452 -0.18325,-0.01451 -0.18324,-0.0145 -0.18324,-0.01454 -0.18324,-0.01459 -0.18324,-0.01458 -0.18324,-0.01457 -0.18324,-0.01457 -0.18324,-0.01456 -0.18325,-0.01455 -0.18324,-0.01454 -0.18324,-0.01453 -0.18324,-0.01453 -0.18324,-0.01452 -0.18324,-0.01451 -0.18324,-0.0145 -0.18324,-0.0145 -0.18325,-0.01449 -0.18324,-0.01448 -0.18324,-0.01447 -0.18324,-0.01447 -0.18324,-0.01446 -0.18324,-0.01445 -0.18324,-0.01444 -0.18324,-0.01188 -0.18324,-0.01007 -0.18325,-0.0098 -0.18324,-0.0098 -0.18324,-0.0098 -0.18324,-0.0098 -0.18324,-0.0098 -0.18324,-0.0098 -0.18324,-0.0098 -0.18324,-0.0098 -0.18325,-0.0098 -0.18324,-0.0097 -0.18324,-0.0085 -0.18324,-0.0079 -0.18324,-0.0052 -0.18324,-0.0051 -0.18324,-0.0051 -0.18324,-0.0051 -0.18325,-0.0051 -0.18324,-0.0051 -0.18324,-0.0051 -0.18324,-0.0051 -0.18324,-0.0051 -0.18324,-0.0051 -0.18324,-0.0051 -0.18324,-0.0051 -0.18325,-0.0051 -0.18324,-0.0051 -0.18324,-0.005 -0.18324,-0.003 -0.18324,-0.0021 -0.18324,-0.0021 -0.18324,-0.0021 -0.18324,-0.0021 -0.18325,-0.0021 -0.18324,-0.0021 -0.18324,-0.0021 -0.18324,-0.0021 -0.18324,-0.0021 -0.18324,-0.0021 -0.18324,-0.0021 -0.18324,-0.0021 -0.18325,-0.0021 -0.18324,-0.0021 -0.18324,-0.0021 -0.18324,-0.0021 -0.18324,-0.0021 -0.18324,-0.0021 -0.18324,-0.0021 -0.18324,-0.0021 -0.18324,-0.0021 -0.18325,-0.0021 -0.18324,-0.0021 -0.18324,-0.0021 -0.18324,-0.0021 -0.18324,-0.0021 -0.18324,-6.1e-5 -0.18324,0.0036 -0.18324,0.0038 -0.18325,0.0038 -0.18324,0.0054 -0.18324,0.0058 -0.18324,0.0069 -0.18324,0.0069 -0.18324,0.0069 -0.18324,0.0069 -0.18324,0.0069 -0.18325,0.0069 -0.18324,0.0069 -0.18324,0.0069 -0.18324,0.0069 -0.18324,0.0069 -0.18324,0.0069 -0.18324,0.0069 -0.18324,0.0069 -0.18325,0.0069 -0.18324,0.0069 -0.18324,0.0069 -0.18324,0.0069 -0.18324,0.0069 -0.18324,0.0069 -0.18324,0.0069 -0.18324,0.0069 -0.18325,0.0069 -0.18324,0.0069 -0.18324,0.0069 -0.18324,0.0069 -0.18324,0.0069 -0.18324,0.0069 -0.18324,0.0069 -0.18324,0.0069 -0.18324,0.0069 -0.18325,0.0069 -0.18324,0.0069 -0.18324,0.0069 -0.18324,0.007 -0.18324,0.007 -0.18324,0.007 -0.18324,0.007 -0.18324,0.007 -0.18325,0.007 -0.18324,0.007 -0.18324,0.0085 -0.18324,0.0093 -0.18324,0.01149 -0.18324,0.01268 -0.18324,0.01647 -0.18324,0.01667 -0.18325,0.01682 -0.18324,0.017 -0.18324,0.01701 -0.18324,0.01702 -0.18324,0.01703 -0.18324,0.01704 -0.18324,0.01705 -0.18324,0.01706 -0.18325,0.01708 -0.18324,0.01709 -0.18324,0.0171 -0.18324,0.01711 -0.18324,0.01712 -0.18324,0.01713 -0.18324,0.01714 -0.18324,0.01715 -0.18324,0.01716 -0.18325,0.01717 -0.18324,0.01718 -0.18324,0.01719 -0.18324,0.0172 -0.18324,0.01722 -0.18324,0.01723 -0.18324,0.01724 -0.18324,0.01725 -0.18325,0.01754 -0.18324,0.02175 -0.18324,0.02187 -0.18324,0.02188 -0.18324,0.0219 -0.18324,0.02192 -0.18324,0.02194 -0.18324,0.02196 -0.18325,0.02197 -0.18324,0.02199 -0.18324,0.02201 -0.18324,0.02203 -0.18324,0.02205 -0.18324,0.02206 -0.18324,0.02208 -0.18324,0.0221 -0.18325,0.02212 -0.18324,0.02254 -0.18324,0.0227 -0.18324,0.02284 -0.18324,0.02308 -0.18324,0.0231 -0.18324,0.02312 -0.18324,0.02314 -0.18325,0.02316 -0.18324,0.02318 -0.18324,0.0232 -0.18324,0.02322 -0.18324,0.02728 -0.18324,0.02964 -0.18324,0.02967 -0.18324,0.02971 -0.18324,0.02974 -0.18325,0.02977 -0.18324,0.02981 -0.18324,0.02984 -0.18324,0.02988 -0.18324,0.02991 -0.18324,0.02994 -0.18324,0.02998 -0.18324,0.03001 -0.18325,0.031 -0.18324,0.03127 -0.18324,0.03131 -0.18324,0.03289 -0.18324,0.03327 -0.18324,0.03332 -0.18324,0.03336 -0.18324,0.0334 -0.18325,0.03345 -0.18324,0.03349 -0.18324,0.03353 -0.18324,0.03358 -0.18324,0.03362 -0.18324,0.03366 -0.18324,0.03371 -0.18324,0.03375 -0.18325,0.0338 -0.18324,0.03384 -0.18324,0.03389 -0.18324,0.03393 -0.18324,0.03398 -0.18324,0.03402 -0.18324,0.03407 -0.18324,0.03412 -0.18325,0.03416 -0.18324,0.03421 -0.18324,0.03425 -0.18324,0.0343 -0.18324,0.03435 -0.18324,0.03899 -0.18324,0.0405 -0.18324,0.04057 -0.18324,0.04064 -0.18325,0.0407 -0.18324,0.04077 -0.18324,0.04084 -0.18324,0.0409 -0.18324,0.04146 -0.18324,0.04214 -0.18324,0.04378 -0.18324,0.04386 -0.18325,0.04394 -0.18324,0.04402 -0.18324,0.04409 -0.18324,0.04417 -0.18324,0.04425 -0.18324,0.04433 -0.18324,0.04442 -0.18324,0.04449 -0.18325,0.04458 -0.18324,0.04466 -0.18324,0.04474 -0.18324,0.04482 -0.18324,0.04491 -0.18324,0.04499 -0.18324,0.04508 -0.18324,0.04635 -0.18325,0.0518 -0.18324,0.05191 -0.18324,0.05203 -0.18324,0.05214 -0.18324,0.05225 -0.18324,0.05237 -0.18324,0.05249 -0.18324,0.0526 -0.18324,0.05272 -0.18325,0.05284 -0.18324,0.05296 -0.18324,0.05308 -0.18324,0.0532 -0.18324,0.05332 -0.18324,0.05345 -0.18324,0.05357 -0.18324,0.05369 -0.18324,0.05393 -0.18325,0.05417 -0.18324,0.05436 -0.18324,0.05449 -0.18324,0.05641 -0.18324,0.05776 -0.18324,0.06025 -0.18324,0.06041 -0.18324,0.06058 -0.18325,0.06074 -0.18324,0.0609 -0.18324,0.06107 -0.18324,0.06124 -0.18324,0.0614 -0.18324,0.06157 -0.18324,0.06175 -0.18324,0.06192 -0.18325,0.06209 -0.18324,0.06227 -0.18324,0.06245 -0.18324,0.06263 -0.18324,0.06281 -0.18324,0.06299 -0.18324,0.06671 -0.18324,0.06962 -0.18325,0.06985 -0.18324,0.07007 -0.18324,0.0703 -0.18324,0.07054 -0.18324,0.07077 -0.18324,0.07101 -0.18324,0.07125 -0.18324,0.07149 -0.18325,0.07174 -0.18324,0.07198 -0.18324,0.0732 -0.18324,0.07497 -0.18324,0.0771 -0.18324,0.07738 -0.18324,0.07768 -0.18324,0.07797 -0.18325,0.07828 -0.18324,0.07858 -0.18324,0.07888 -0.18324,0.07919 -0.18324,0.07951 -0.18324,0.08733 -0.18324,0.09203 -0.18324,0.09246 -0.18324,0.09289 -0.18325,0.09334 -0.18324,0.09379 -0.18324,0.09424 -0.18324,0.0947 -0.18324,0.09517 -0.18324,0.09565 -0.18324,0.09613 -0.18324,0.09662 -0.18325,0.09712 -0.18324,0.09762 -0.18324,0.09814 -0.18324,0.09866 -0.18324,0.09919 -0.18324,0.09973 -0.18324,0.100277 -0.18324,0.100834 -0.18325,0.101401 -0.18324,0.103164 -0.18324,0.10568 -0.18324,0.106385 -0.18324,0.124477 -0.18324,0.133649 -0.18324,0.134685 -0.18324,0.134011 -0.18324,0.127942 -0.18325,0.128917 -0.18324,0.129913 -0.18324,0.129825 -0.18324,0.126191 -0.18324,0.127167 -0.18324,0.128164 -0.18324,0.129185 -0.18324,0.130232 -0.18325,0.131304 -0.18324,0.132403 -0.18324,0.133531 -0.18324,0.134687 -0.18324,0.135874 -0.18324,0.137093 -0.18324,0.138345 -0.18324,0.139633 -0.18325,0.140957 -0.18324,0.142319 -0.18324,0.143722 -0.18324,0.188462 -0.18324,0.231995 -0.18324,0.2359 -0.18324,0.240008 -0.18324,0.24434 -0.18325,0.248913 -0.18324,0.253755 -0.18324,0.25889 -0.18324,0.264351 -0.18324,0.270172 -0.18324,0.246586 -0.18324,0.22708 -0.18324,0.219159 -0.18325,0.199516 -0.18324,0.203169 -0.18324,0.227686 -0.18324,0.290034 -0.18324,0.300088 -0.18324,0.309308 -0.18324,0.319436 -0.18324,0.330631 -0.18324,0.313144 -0.18325,0.294 -0.18324,0.280317 -0.18324,0.251269 -0.18324,0.224891 -0.18324,0.231648 -0.18324,0.23906 -0.18324,0.268354 -0.18324,0.346827 -0.183246,0.316502 -0.183242,0.07208 -0.183241,0.0032 -0.183241,0.03993 -0.183241,0.03609 -0.183241,0.01407 -0.183242,0.0141 -0.183241,0.01413 -0.183241,0.01416 -0.183241,0.0142 -0.183241,0.01423 -0.183242,0.0099 -0.183241,0.002 -0.183241,10e-7 -0.183241,0.02994 -0.183242,0.07227 -0.183241,0.08118 -0.183241,0.08232 -0.183241,0.08351 -0.183241,0.08475 -0.183242,0.08606 -0.183241,0.08742 -0.183241,0.08885 -0.183241,0.09036 -0.183242,0.09194 -0.183241,0.09361 -0.183241,0.03181 -0.183241,0.01664 -0.183241,-0.08738 -0.183242,-0.09433 -0.183241,-0.09267 -0.183241,-0.09109 -0.183241,-0.08959 -0.183241,-0.08816 -0.183242,-0.04233 -0.183241,0.144399 -0.183241,0.183868 -0.183241,0.190418 -0.183242,0.197726 -0.183241,0.194348 -0.183241,0.145123 -0.183241,0.150872 -0.183241,0.12319 -0.183242,0.109318 -0.183241,0.112259 -0.183241,0.115456 -0.183241,0.11895 -0.183242,0.12279 -0.183241,0.127038 -0.183241,0.130509 -0.183241,0.114857 -0.183241,0.110805 -0.183242,0.114855 -0.183241,0.119411 -0.183241,0.124595 -0.183241,0.130578 -0.183241,0.137609 -0.183242,0.146072 -0.183241,0.156597 -0.183241,0.170348 -0.183241,0.189827 -0.183242,0.222197 -0.183241,0.311498 -0.183241,0.262669 -0.183241,0.121395 -0.183241,0.136922 -0.183242,0.160576 -0.183241,0.20365 -0.183241,0.3394 -0.183241,0.232456 -0.183241,2.5e-5 -0.183242,2.5e-5 -0.183241,2.6e-5 -0.183241,3.1e-5 -0.183241,7e-5 -0.183242,1.22e-4 -0.183241,1.25e-4 -0.183241,1.27e-4 -0.183241,1.28e-4 -0.183241,1.31e-4 -0.183242,1.33e-4 -0.183241,1.36e-4 -0.183241,1.38e-4 -0.183241,1.41e-4 -0.183242,1.45e-4 -0.183241,1.47e-4 -0.183241,1.5e-4 -0.183241,1.54e-4 -0.183241,1.58e-4 -0.183242,1.62e-4 -0.183241,8.8e-5 -0.183241,2.8e-5 -0.183241,-9.3e-5 -0.183241,-1.43e-4 -0.183242,-1.1e-5 -0.183241,1.46e-4 -0.183241,1.5e-4 -0.183241,1.54e-4 -0.183242,1.58e-4 -0.183241,1.62e-4 -0.183241,1.68e-4 -0.183241,1.73e-4 -0.183241,1.79e-4 -0.183242,1.87e-4 -0.183241,1.94e-4 -0.183241,2.02e-4 -0.183241,2.13e-4 -0.183242,2.25e-4 -0.183241,2.39e-4 -0.183241,1.87e-4 -0.183241,1.29e-4 -0.183241,3.5e-5 -0.183242,3.5e-5 -0.183241,3.6e-5 -0.183241,3.6e-5 -0.183241,3.7e-5 -0.183241,3.7e-5 -0.183242,3.8e-5 -0.183241,2.6e-5 -0.183241,-2.2e-5 -0.183241,-7.7e-5 -0.183242,-1.15e-4 -0.183241,-1.11e-4 -0.183241,-1.08e-4 -0.183241,-1.04e-4 -0.183241,-1.01e-4 -0.183242,-9.9e-5 -0.183241,-9.6e-5 -0.183241,-9.4e-5 -0.183241,-9.1e-5 -0.183242,-9e-5 -0.183241,-8.7e-5 -0.183241,-8.6e-5 -0.183241,-8.4e-5 -0.183241,-8.3e-5 -0.183242,-8.1e-5 -0.183241,-8e-5 -0.183241,-7.8e-5 -0.183241,-3.7e-5 -0.183241,7.1e-5 -0.183242,2.32e-4 -0.183241,2.45e-4 -0.183241,2.61e-4 -0.183241,2.79e-4 -0.183242,3.03e-4 -0.183241,3.33e-4 -0.183241,3.75e-4 -0.183241,4.41e-4 -0.183241,5.63e-4 -0.183242,9.01e-4 -0.183241,7.35e-4 H 72.17403 71.990789 71.807547 71.624306 71.441065 71.257824 71.074583 70.891341 70.7081 70.524859 70.341618 70.158377 69.975135 69.791894 69.608653 69.425412 69.24217 69.058929 68.875688 68.692447 68.509206 68.325964 68.142723 67.959482 67.776241 67.592999 67.409758 67.226517 67.043276 66.860035 66.676793 66.493552 66.310311 66.12707 65.943829 65.760587 65.577346 65.394105 65.210864 65.027622 64.844381 64.66114 64.477899"
           style="fill:#0064ff;fill-opacity:1;fill-rule:nonzero;stroke:none;stroke-width:1;stroke-linecap:butt;stroke-linejoin:round;stroke-miterlimit:10;stroke-dasharray:none;stroke-opacity:1"
           id="path184" />
      </g>
    </g>
    <g
       id="g186"
       style="fill:#0096ff;fill-opacity:1;stroke:none">
      <g
         id="g188"
         clip-path="url(#clipPath192)"
         style="fill:#0096ff;fill-opacity:1;stroke:none">
        <path
           d="m 247.53587,92.139239 h -0.18324 -0.18324 -0.18324 -0.18324 -0.18324 -0.18324 -0.18324 -0.18325 -0.18324 -0.18324 -0.18324 -0.18324 -0.18324 l -0.18324,-0.0022 -0.18324,4.68e-4 -0.18325,7.51e-4 -0.18324,-10e-7 h -0.18324 -0.18324 l -0.18324,-10e-7 h -0.18324 l -0.18324,-10e-7 h -0.18324 l -0.18325,1.1e-5 -0.18324,4.2e-5 -0.18324,8.2e-5 -0.18324,9.1e-5 -0.18324,1.05e-4 -0.18324,2.64e-4 m -14.6593,-0.0037 v 0 l -0.18324,-7.54e-4 -0.18324,-6.42e-4 -0.18324,-5.72e-4 -0.18324,-5.2e-4 -0.18324,-4.81e-4 -0.18325,-4.5e-4 -0.18324,-4.24e-4 -0.18324,-4.02e-4 -0.18324,-3.83e-4 -0.18324,-3.67e-4 -0.18324,-3.52e-4 -0.18324,-3.4e-4 -0.18324,-3.09e-4 -0.18325,-2.38e-4 -0.18324,-1.011987 -0.18324,-1.060231 -0.18324,-0.651705 -0.18324,-0.522173 -0.18324,-0.448832 -0.18324,-0.399856 -0.18324,-0.364129 -0.18325,-0.336566 -0.18324,-0.314266 -0.18324,-0.296029 -0.18324,-0.280653 -0.18324,-0.267451 -0.18324,-0.255955 -0.18324,-0.245826 -0.18324,-0.236813 -0.18324,-0.228723 -0.18325,-0.221411 -0.18324,-0.214758 -0.18324,-0.208672 -0.18324,-0.203074 -0.18324,-0.197906 -0.18324,-0.193113 -0.18324,-0.188651 -0.18324,-0.184487 -0.18325,-0.180585 -0.18324,-0.176922 -0.18324,-0.173473 -0.18324,-0.170218 -0.18324,-0.167512 -0.18324,-0.180179 -0.18324,-0.186101 -0.18324,-0.182125 -0.18324,-0.176417 -0.18325,-0.17184 -0.18324,-0.168792 -0.18324,-0.166117 -0.18324,-0.163563 -0.18324,-0.161124 -0.18324,-0.158791 -0.18324,-0.156556 -0.18325,-0.154414 -0.18324,-0.152356 -0.18324,-0.15038 -0.18324,-0.148477 -0.18324,-0.146646 -0.18324,-0.144881 -0.18324,-0.143177 -0.18324,-0.141533 -0.18325,-0.139944 -0.18324,-0.138407 -0.18324,-0.13692 -0.18324,-0.13548 -0.18324,-0.134084 -0.18324,-0.132731 -0.18324,-0.131417 -0.18324,-0.129247 -0.18324,-0.125114 -0.18325,-0.122346 -0.18324,-0.121269 -0.18324,-0.120221 -0.18324,-0.119201 -0.18324,-0.118204 -0.18324,-0.117234 -0.18324,-0.116285 -0.18324,-0.115361 -0.18325,-0.118594 -0.18324,-0.125202 -0.18324,-0.129915 -0.18324,-0.128798 -0.18324,-0.12771 -0.18324,-0.126649 -0.18324,-0.125615 -0.18324,-0.124605 -0.18325,-0.12362 -0.18324,-0.122656 -0.18324,-0.121716 -0.18324,-0.120797 -0.18324,-0.119898 -0.18324,-0.119019 -0.18324,-0.118158 -0.18324,-0.117318 -0.18325,-0.116493 -0.18324,-0.115687 -0.18324,-0.114897 -0.18324,-0.114122 -0.18324,-0.113364 -0.18324,-0.112412 -0.18324,-0.1103 -0.18324,-0.109605 -0.18325,-0.106733 -0.18324,-0.09776 -0.18324,-0.09722 -0.18324,-0.09669 -0.18324,-0.09618 -0.18324,-0.09566 -0.18324,-0.09521 -0.18324,-0.09488 -0.18324,-0.09439 -0.18324,-0.09391 -0.18325,-0.09343 -0.18324,-0.09297 -0.18324,-0.09251 -0.18324,-0.09205 -0.18324,-0.0916 -0.18324,-0.09116 -0.18324,-0.09073 -0.18325,-0.0903 -0.18324,-0.08988 -0.18324,-0.08946 -0.18324,-0.08905 -0.18324,-0.08864 -0.18324,-0.08583 -0.18324,-0.08466 -0.18324,-0.07971 -0.18325,-0.07856 -0.18324,-0.07748 -0.18324,-0.07737 -0.18324,-0.07803 -0.18324,-0.07813 -0.18324,-0.07814 -0.18324,-0.07784 -0.18324,-0.07755 -0.18325,-0.07725 -0.18324,-0.07696 -0.18324,-0.07667 -0.18324,-0.07639 -0.18324,-0.07611 -0.18324,-0.07583 -0.18324,-0.07556 -0.18324,-0.07529 -0.18324,-0.0747 -0.18325,-0.06627 -0.18324,-0.06578 -0.18324,-0.06558 -0.18324,-0.06538 -0.18324,-0.06518 -0.18324,-0.06498 -0.18324,-0.06479 -0.18324,-0.06459 -0.18325,-0.0644 -0.18324,-0.06421 -0.18324,-0.06402 -0.18324,-0.06383 -0.18324,-0.06365 -0.18324,-0.06346 -0.18324,-0.06328 -0.18324,-0.0631 -0.18325,-0.06292 -0.18324,-0.06274 -0.18324,-0.06257 -0.18324,-0.06239 -0.18324,-0.06222 -0.18324,-0.06205 -0.18324,-0.06188 -0.18324,-0.06171 -0.18325,-0.06154 -0.18324,-0.0619 -0.18324,-0.06247 -0.18324,-0.06259 -0.18324,-0.06292 -0.18324,-0.06275 -0.18324,-0.06257 -0.18324,-0.06241 -0.18325,-0.06224 -0.18324,-0.06207 -0.18324,-0.05641 -0.18324,-0.05071 -0.18324,-0.0506 -0.18324,-0.05049 -0.18324,-0.05039 -0.18324,-0.05028 -0.18324,-0.05017 -0.18325,-0.05006 -0.18324,-0.04996 -0.18324,-0.04985 -0.18324,-0.04975 -0.18324,-0.04965 -0.18324,-0.04954 -0.18324,-0.04944 -0.18324,-0.04934 -0.18325,-0.04734 -0.18324,-0.04455 -0.18324,-0.04447 -0.18324,-0.04438 -0.18324,-0.0443 -0.18324,-0.04422 -0.18324,-0.04414 -0.18324,-0.04406 -0.18325,-0.04398 -0.18324,-0.0439 -0.18324,-0.04382 -0.18324,-0.04375 -0.18324,-0.04367 -0.18324,-0.04359 -0.18324,-0.04351 -0.18324,-0.04344 -0.18325,-0.04336 -0.18324,-0.04329 -0.18324,-0.04321 -0.18324,-0.04314 -0.18324,-0.04306 -0.18324,-0.04317 -0.18324,-0.04333 -0.18324,-0.04327 -0.18325,-0.04345 -0.18324,-0.04337 -0.18324,-0.0433 -0.18324,-0.04323 -0.18324,-0.04315 -0.18324,-0.03878 -0.18324,-0.03696 -0.18324,-0.0369 -0.18324,-0.03656 -0.18325,-0.03508 -0.18324,-0.03237 -0.18324,-0.03228 -0.18324,-0.03224 -0.18324,-0.0322 -0.18324,-0.03216 -0.18324,-0.03211 -0.18324,-0.03207 -0.18325,-0.03203 -0.18324,-0.032 -0.18324,-0.03195 -0.18324,-0.03192 -0.18324,-0.03188 -0.18324,-0.03184 -0.18324,-0.0318 -0.18324,-0.03176 -0.18324,-0.03168 -0.18325,-0.0316 -0.18324,-0.03156 -0.18324,-0.03152 -0.18324,-0.03148 -0.18324,-0.03144 -0.18324,-0.03141 -0.18324,-0.03137 -0.18325,-0.03127 -0.18324,-0.03116 -0.18324,-0.03112 -0.18324,-0.03109 -0.18324,-0.03105 -0.18324,-0.03101 -0.18324,-0.03097 -0.18324,-0.03094 -0.18324,-0.02824 -0.18325,-0.02517 -0.18324,-0.02413 -0.18324,-0.0228 -0.18324,-0.02278 -0.18324,-0.02276 -0.18324,-0.02274 -0.18324,-0.02272 -0.18324,-0.0227 -0.18325,-0.02268 -0.18324,-0.02266 -0.18324,-0.02264 -0.18324,-0.02263 -0.18324,-0.02261 -0.18324,-0.02259 -0.18324,-0.02257 -0.18324,-0.02255 -0.18325,-0.02253 -0.18324,-0.02251 -0.18324,-0.02249 -0.18324,-0.02247 -0.18324,-0.02246 -0.18324,-0.02244 -0.18324,-0.02242 -0.18324,-0.0224 -0.18324,-0.02238 -0.18325,-0.02236 -0.18324,-0.02234 -0.18324,-0.02232 -0.18324,-0.02149 -0.18324,-0.01833 -0.18324,-0.01731 -0.18324,-0.01504 -0.18325,-0.01442 -0.18324,-0.01441 -0.18324,-0.0144 -0.18324,-0.01439 -0.18324,-0.01439 -0.18324,-0.01453 -0.18324,-0.01453 -0.18324,-0.01453 -0.18324,-0.01452 -0.18325,-0.01451 -0.18324,-0.0145 -0.18324,-0.01454 -0.18324,-0.01459 -0.18324,-0.01458 -0.18324,-0.01457 -0.18324,-0.01457 -0.18324,-0.01456 -0.18325,-0.01455 -0.18324,-0.01454 -0.18324,-0.01453 -0.18324,-0.01453 -0.18324,-0.01452 -0.18324,-0.01451 -0.18324,-0.0145 -0.18324,-0.0145 -0.18325,-0.01449 -0.18324,-0.01448 -0.18324,-0.01447 -0.18324,-0.01447 -0.18324,-0.01446 -0.18324,-0.01445 -0.18324,-0.01444 -0.18324,-0.01188 -0.18324,-0.01007 -0.18325,-0.0098 -0.18324,-0.0098 -0.18324,-0.0098 -0.18324,-0.0098 -0.18324,-0.0098 -0.18324,-0.0098 -0.18324,-0.0098 -0.18324,-0.0098 -0.18325,-0.0098 -0.18324,-0.0097 -0.18324,-0.0085 -0.18324,-0.0079 -0.18324,-0.0052 -0.18324,-0.0051 -0.18324,-0.0051 -0.18324,-0.0051 -0.18325,-0.0051 -0.18324,-0.0051 -0.18324,-0.0051 -0.18324,-0.0051 -0.18324,-0.0051 -0.18324,-0.0051 -0.18324,-0.0051 -0.18324,-0.0051 -0.18325,-0.0051 -0.18324,-0.0051 -0.18324,-0.005 -0.18324,-0.003 -0.18324,-0.0021 -0.18324,-0.0021 -0.18324,-0.0021 -0.18324,-0.0021 -0.18325,-0.0021 -0.18324,-0.0021 -0.18324,-0.0021 -0.18324,-0.0021 -0.18324,-0.0021 -0.18324,-0.0021 -0.18324,-0.0021 -0.18324,-0.0021 -0.18325,-0.0021 -0.18324,-0.0021 -0.18324,-0.0021 -0.18324,-0.0021 -0.18324,-0.0021 -0.18324,-0.0021 -0.18324,-0.0021 -0.18324,-0.0021 -0.18324,-0.0021 -0.18325,-0.0021 -0.18324,-0.0021 -0.18324,-0.0021 -0.18324,-0.0021 -0.18324,-0.0021 -0.18324,-6.1e-5 -0.18324,0.0036 -0.18324,0.0038 -0.18325,0.0038 -0.18324,0.0054 -0.18324,0.0058 -0.18324,0.0069 -0.18324,0.0069 -0.18324,0.0069 -0.18324,0.0069 -0.18324,0.0069 -0.18325,0.0069 -0.18324,0.0069 -0.18324,0.0069 -0.18324,0.0069 -0.18324,0.0069 -0.18324,0.0069 -0.18324,0.0069 -0.18324,0.0069 -0.18325,0.0069 -0.18324,0.0069 -0.18324,0.0069 -0.18324,0.0069 -0.18324,0.0069 -0.18324,0.0069 -0.18324,0.0069 -0.18324,0.0069 -0.18325,0.0069 -0.18324,0.0069 -0.18324,0.0069 -0.18324,0.0069 -0.18324,0.0069 -0.18324,0.0069 -0.18324,0.0069 -0.18324,0.0069 -0.18324,0.0069 -0.18325,0.0069 -0.18324,0.0069 -0.18324,0.0069 -0.18324,0.007 -0.18324,0.007 -0.18324,0.007 -0.18324,0.007 -0.18324,0.007 -0.18325,0.007 -0.18324,0.007 -0.18324,0.0085 -0.18324,0.0093 -0.18324,0.01149 -0.18324,0.01268 -0.18324,0.01647 -0.18324,0.01667 -0.18325,0.01682 -0.18324,0.017 -0.18324,0.01701 -0.18324,0.01702 -0.18324,0.01703 -0.18324,0.01704 -0.18324,0.01705 -0.18324,0.01706 -0.18325,0.01708 -0.18324,0.01709 -0.18324,0.0171 -0.18324,0.01711 -0.18324,0.01712 -0.18324,0.01713 -0.18324,0.01714 -0.18324,0.01715 -0.18324,0.01716 -0.18325,0.01717 -0.18324,0.01718 -0.18324,0.01719 -0.18324,0.0172 -0.18324,0.01722 -0.18324,0.01723 -0.18324,0.01724 -0.18324,0.01725 -0.18325,0.01754 -0.18324,0.02175 -0.18324,0.02187 -0.18324,0.02188 -0.18324,0.0219 -0.18324,0.02192 -0.18324,0.02194 -0.18324,0.02196 -0.18325,0.02197 -0.18324,0.02199 -0.18324,0.02201 -0.18324,0.02203 -0.18324,0.02205 -0.18324,0.02206 -0.18324,0.02208 -0.18324,0.0221 -0.18325,0.02212 -0.18324,0.02254 -0.18324,0.0227 -0.18324,0.02284 -0.18324,0.02308 -0.18324,0.0231 -0.18324,0.02312 -0.18324,0.02314 -0.18325,0.02316 -0.18324,0.02318 -0.18324,0.0232 -0.18324,0.02322 -0.18324,0.02728 -0.18324,0.02964 -0.18324,0.02967 -0.18324,0.02971 -0.18324,0.02974 -0.18325,0.02977 -0.18324,0.02981 -0.18324,0.02984 -0.18324,0.02988 -0.18324,0.02991 -0.18324,0.02994 -0.18324,0.02998 -0.18324,0.03001 -0.18325,0.031 -0.18324,0.03127 -0.18324,0.03131 -0.18324,0.03289 -0.18324,0.03327 -0.18324,0.03332 -0.18324,0.03336 -0.18324,0.0334 -0.18325,0.03345 -0.18324,0.03349 -0.18324,0.03353 -0.18324,0.03358 -0.18324,0.03362 -0.18324,0.03366 -0.18324,0.03371 -0.18324,0.03375 -0.18325,0.0338 -0.18324,0.03384 -0.18324,0.03389 -0.18324,0.03393 -0.18324,0.03398 -0.18324,0.03402 -0.18324,0.03407 -0.18324,0.03412 -0.18325,0.03416 -0.18324,0.03421 -0.18324,0.03425 -0.18324,0.0343 -0.18324,0.03435 -0.18324,0.03899 -0.18324,0.0405 -0.18324,0.04057 -0.18324,0.04064 -0.18325,0.0407 -0.18324,0.04077 -0.18324,0.04084 -0.18324,0.0409 -0.18324,0.04146 -0.18324,0.04214 -0.18324,0.04378 -0.18324,0.04386 -0.18325,0.04394 -0.18324,0.04402 -0.18324,0.04409 -0.18324,0.04417 -0.18324,0.04425 -0.18324,0.04433 -0.18324,0.04442 -0.18324,0.04449 -0.18325,0.04458 -0.18324,0.04466 -0.18324,0.04474 -0.18324,0.04482 -0.18324,0.04491 -0.18324,0.04499 -0.18324,0.04508 -0.18324,0.04635 -0.18325,0.0518 -0.18324,0.05191 -0.18324,0.05203 -0.18324,0.05214 -0.18324,0.05225 -0.18324,0.05237 -0.18324,0.05249 -0.18324,0.0526 -0.18324,0.05272 -0.18325,0.05284 -0.18324,0.05296 -0.18324,0.05308 -0.18324,0.0532 -0.18324,0.05332 -0.18324,0.05345 -0.18324,0.05357 -0.18324,0.05369 -0.18324,0.05393 -0.18325,0.05417 -0.18324,0.05436 -0.18324,0.05449 -0.18324,0.05641 -0.18324,0.05776 -0.18324,0.06025 -0.18324,0.06041 -0.18324,0.06058 -0.18325,0.06074 -0.18324,0.0609 -0.18324,0.06107 -0.18324,0.06124 -0.18324,0.0614 -0.18324,0.06157 -0.18324,0.06175 -0.18324,0.06192 -0.18325,0.06209 -0.18324,0.06227 -0.18324,0.06245 -0.18324,0.06263 -0.18324,0.06281 -0.18324,0.06299 -0.18324,0.06671 -0.18324,0.06962 -0.18325,0.06985 -0.18324,0.07007 -0.18324,0.0703 -0.18324,0.07054 -0.18324,0.07077 -0.18324,0.07101 -0.18324,0.07125 -0.18324,0.07149 -0.18325,0.07174 -0.18324,0.07198 -0.18324,0.0732 -0.18324,0.07497 -0.18324,0.0771 -0.18324,0.07738 -0.18324,0.07768 -0.18324,0.07797 -0.18325,0.07828 -0.18324,0.07858 -0.18324,0.07888 -0.18324,0.07919 -0.18324,0.07951 -0.18324,0.08733 -0.18324,0.09203 -0.18324,0.09246 -0.18324,0.09289 -0.18325,0.09334 -0.18324,0.09379 -0.18324,0.09424 -0.18324,0.0947 -0.18324,0.09517 -0.18324,0.09565 -0.18324,0.09613 -0.18324,0.09662 -0.18325,0.09712 -0.18324,0.09762 -0.18324,0.09814 -0.18324,0.09866 -0.18324,0.09919 -0.18324,0.09973 -0.18324,0.100277 -0.18324,0.100834 -0.18325,0.101401 -0.18324,0.103164 -0.18324,0.10568 -0.18324,0.106385 -0.18324,0.124477 -0.18324,0.133649 -0.18324,0.134685 -0.18324,0.134011 -0.18324,0.127942 -0.18325,0.128917 -0.18324,0.129913 -0.18324,0.129825 -0.18324,0.126191 -0.18324,0.127167 -0.18324,0.128164 -0.18324,0.129185 -0.18324,0.130232 -0.18325,0.131304 -0.18324,0.132403 -0.18324,0.133531 -0.18324,0.134687 -0.18324,0.135874 -0.18324,0.137093 -0.18324,0.138345 -0.18324,0.139633 -0.18325,0.140957 -0.18324,0.142319 -0.18324,0.143722 -0.18324,0.188462 -0.18324,0.231995 -0.18324,0.2359 -0.18324,0.240008 -0.18324,0.24434 -0.18325,0.248913 -0.18324,0.253755 -0.18324,0.25889 -0.18324,0.264351 -0.18324,0.270172 -0.18324,0.246586 -0.18324,0.22708 -0.18324,0.219159 -0.18325,0.199516 -0.18324,0.203169 -0.18324,0.227686 -0.18324,0.290034 -0.18324,0.300088 -0.18324,0.309308 -0.18324,0.319436 -0.18324,0.330631 -0.18324,0.313144 -0.18325,0.294 -0.18324,0.280317 -0.18324,0.251269 -0.18324,0.224891 -0.18324,0.231648 -0.18324,0.23906 -0.18324,0.268354 -0.18324,0.346827 -0.183246,0.316502 -0.183242,0.07208 -0.183241,0.0032 -0.183241,0.03993 -0.183241,0.03609 -0.183241,0.01407 -0.183242,0.0141 -0.183241,0.01413 -0.183241,0.01416 -0.183241,0.0142 -0.183241,0.01423 -0.183242,0.0099 -0.183241,0.002 -0.183241,10e-7 -0.183241,0.02994 -0.183242,0.07227 -0.183241,0.08118 -0.183241,0.08232 -0.183241,0.08351 -0.183241,0.08475 -0.183242,0.08606 -0.183241,0.08742 -0.183241,0.08885 -0.183241,0.09036 -0.183242,0.09194 -0.183241,0.09361 -0.183241,0.03181 -0.183241,0.01664 -0.183241,-0.08738 -0.183242,-0.09433 -0.183241,-0.09267 -0.183241,-0.09109 -0.183241,-0.08959 -0.183241,-0.08816 -0.183242,-0.04233 -0.183241,0.144399 -0.183241,0.183868 -0.183241,0.190418 -0.183242,0.197726 -0.183241,0.194348 -0.183241,0.145123 -0.183241,0.150872 -0.183241,0.12319 -0.183242,0.109318 -0.183241,0.112259 -0.183241,0.115456 -0.183241,0.11895 -0.183242,0.12279 -0.183241,0.127038 -0.183241,0.130509 -0.183241,0.114857 -0.183241,0.110805 -0.183242,0.114855 -0.183241,0.119411 -0.183241,0.124595 -0.183241,0.130578 -0.183241,0.137609 -0.183242,0.146072 -0.183241,0.156597 -0.183241,0.170348 -0.183241,0.189827 -0.183242,0.222197 -0.183241,0.311498 -0.183241,0.262669 -0.183241,0.121395 -0.183241,0.136922 -0.183242,0.160576 -0.183241,0.20365 -0.183241,0.3394 -0.183241,0.232456 -0.183241,2.5e-5 -0.183242,2.5e-5 -0.183241,2.6e-5 -0.183241,3.1e-5 -0.183241,7e-5 -0.183242,1.22e-4 -0.183241,1.25e-4 -0.183241,1.27e-4 -0.183241,1.28e-4 -0.183241,1.31e-4 -0.183242,1.33e-4 -0.183241,1.36e-4 -0.183241,1.38e-4 -0.183241,1.41e-4 -0.183242,1.45e-4 -0.183241,1.47e-4 -0.183241,1.5e-4 -0.183241,1.54e-4 -0.183241,1.58e-4 -0.183242,1.62e-4 -0.183241,8.8e-5 -0.183241,2.8e-5 -0.183241,-9.3e-5 -0.183241,-1.43e-4 -0.183242,-1.1e-5 -0.183241,1.46e-4 -0.183241,1.5e-4 -0.183241,1.54e-4 -0.183242,1.58e-4 -0.183241,1.62e-4 -0.183241,1.68e-4 -0.183241,1.73e-4 -0.183241,1.79e-4 -0.183242,1.87e-4 -0.183241,1.94e-4 -0.183241,2.02e-4 -0.183241,2.13e-4 -0.183242,2.25e-4 -0.183241,2.39e-4 -0.183241,1.87e-4 -0.183241,1.29e-4 -0.183241,3.5e-5 -0.183242,3.5e-5 -0.183241,3.6e-5 -0.183241,3.6e-5 -0.183241,3.7e-5 -0.183241,3.7e-5 -0.183242,3.8e-5 -0.183241,2.6e-5 -0.183241,-2.2e-5 -0.183241,-7.7e-5 -0.183242,-1.15e-4 -0.183241,-1.11e-4 -0.183241,-1.08e-4 -0.183241,-1.04e-4 -0.183241,-1.01e-4 -0.183242,-9.9e-5 -0.183241,-9.6e-5 -0.183241,-9.4e-5 -0.183241,-9.1e-5 -0.183242,-9e-5 -0.183241,-8.7e-5 -0.183241,-8.6e-5 -0.183241,-8.4e-5 -0.183241,-8.3e-5 -0.183242,-8.1e-5 -0.183241,-8e-5 -0.183241,-7.8e-5 -0.183241,-3.7e-5 -0.183241,7.1e-5 -0.183242,2.32e-4 -0.183241,2.45e-4 -0.183241,2.61e-4 -0.183241,2.79e-4 -0.183242,3.03e-4 -0.183241,3.33e-4 -0.183241,3.75e-4 -0.183241,4.41e-4 -0.183241,5.63e-4 -0.183242,9.01e-4 -0.183241,7.35e-4 H 72.17403 71.990789 71.807547 71.624306 71.441065 71.257824 71.074583 70.891341 70.7081 70.524859 70.341618 70.158377 69.975135 69.791894 69.608653 69.425412 69.24217 69.058929 68.875688 68.692447 68.509206 68.325964 68.142723 67.959482 67.776241 67.592999 67.409758 67.226517 67.043276 66.860035 66.676793 66.493552 66.310311 66.12707 65.943829 65.760587 65.577346 65.394105 65.210864 65.027622 64.844381 64.66114 64.477899 V 42.581336 H 247.53587 v 49.555489"
           style="fill:#0096ff;fill-opacity:1;fill-rule:nonzero;stroke:none;stroke-width:1;stroke-linecap:butt;stroke-linejoin:round;stroke-miterlimit:10;stroke-dasharray:none;stroke-opacity:1"
           id="path194" />
      </g>
    </g>
    <g
       id="g346"
       transform="translate(64.973454,139.41698)">
      <text
         xml:space="preserve"
         transform="scale(1,-1)"
         style="font-variant:normal;font-weight:normal;font-size:10px;font-family:'DejaVu Sans';-inkscape-font-specification:DejaVuSans;writing-mode:lr-tb;fill:#000000;fill-opacity:1;fill-rule:nonzero;stroke:none"
         id="text350"><tspan
           x="0"
           y="0"
           id="tspan348">W</tspan></text>
    </g>
    <g
       id="g352"
       transform="translate(261.92211,139.41698)">
      <text
         xml:space="preserve"
         transform="scale(1,-1)"
         style="font-variant:normal;font-weight:normal;font-size:10px;font-family:'DejaVu Sans';-inkscape-font-specification:DejaVuSans;writing-mode:lr-tb;fill:#000000;fill-opacity:1;fill-rule:nonzero;stroke:none"
         id="text356"><tspan
           x="0"
           y="0"
           id="tspan354">E</tspan></text>
    </g>
    <text
       xml:space="preserve"
       style="font-size:9px;font-family:cmr10;-inkscape-font-specification:cmr10;fill:#000000;fill-opacity:1;stroke:none;stroke-width:0.850395"
       x="145.13503"
       y="-145.89482"
       id="text8461"
       transform="scale(1,-1)"><tspan
         sodipodi:role="line"
         id="tspan8459"
         style="font-size:9px;fill:#000000;fill-opacity:1;stroke-width:0.850394"
         x="145.13503"
         y="-145.89482">Petite Terre</tspan></text>
    <rect
       style="fill:#0096ff;fill-opacity:1;stroke:none;stroke-width:0.856928;stroke-opacity:1"
       id="rect10197"
       width="28.726837"
       height="49.557751"
       x="238.90355"
       y="-92.139084"
       transform="scale(1,-1)" />
    <g
       id="g326">
      <g
         id="g328"
         clip-path="url(#clipPath332)">
        <path
           d="m 64.477899,92.100784 1.282688,-0.06793 0.916206,0.0302 3.664825,0.108398 5.313995,0.109708 1.282689,0.01696 5.680477,0.09435 3.664825,0.356556 0.916206,0.318926 2.015653,0.0097 0.916206,0.0524 1.099447,0.202535 0.916207,0.157726 1.282688,-0.215218 2.565377,0.17742 1.099447,0.167628 1.099448,0.677671 2.748617,-0.219012 1.09945,0.241797 1.28269,0.626537 6.96316,1.150533 0.91621,0.152847 1.09945,0.226673 1.09944,0.241331 1.46593,0.205044 1.09945,0.156634 2.1989,0.175966 2.93186,0.430779 0.9162,0.163659 1.28269,0.363163 3.48158,0.498463 5.314,1.332682 1.09944,0.26448 2.74862,0.99018 4.21455,1.14338 2.74862,0.90583 1.46593,0.70144 1.83241,1.15642 2.74862,1.63028 1.46593,1.61557 1.83241,3.04498 1.64917,2.73666 2.01566,2.82947 1.46593,2.44125 1.83241,3.00104 0.9162,0.84964 2.93186,5.56419 1.83242,3.73626 4.39778,8.2672 1.09945,1.5564 0.91621,0.90416 1.28269,-1.60578 2.74862,-5.90062 1.09944,-1.83409 1.28269,-2.67444 2.1989,-3.29877 1.28268,-3.47565 1.46593,-1.01895 0.91621,-0.31334 0.54972,-1.646 0.91621,-2.69962 0.91621,-1.52091 0.18324,-0.0842 1.28268,4.80868 1.09945,-1.46447 0.54973,-2.68668 0.9162,-4.33257 1.09945,-2.38608 1.46593,-1.44661 1.09945,-1.32626 1.09944,0.22868 1.09945,-0.87929 0.18324,-0.17905 1.28269,-2.53055 1.46593,0.98576 1.09945,0.32078 1.64917,-0.66455 1.28269,-0.55451 1.83241,-0.69827 1.46593,-1.02265 1.28269,-1.11391 0.9162,-0.30235 0.18324,0.10141 1.28269,1.68542 3.48159,2.20486 0.36648,0.59055 1.09945,2.02702 1.28268,1.40376 1.46593,2.63888 2.1989,4.46498 1.09945,1.1874 0.9162,-4.25224 0.36649,-1.89127 1.28268,-13.145996 1.09945,-6.260253 4.21455,-1.306772 7.87937,-0.112938 1.28269,-0.06432 1.83241,-0.05591 2.1989,-0.0024 4.39779,-0.41027 0.9162,-0.255211 0.36648,-0.04251 v 0 c 3.74977,-3.241576 5.46126,-12.049327 5.46126,-12.049327 l 5.63698,-35.940997"
           style="fill:none;stroke:#ff7f0e;stroke-width:1.5;stroke-linecap:square;stroke-linejoin:round;stroke-miterlimit:10;stroke-dasharray:none;stroke-opacity:1"
           id="path334" />
      </g>
    </g>
    <text
       xml:space="preserve"
       style="font-size:11px;font-family:cmr10;-inkscape-font-specification:cmr10;fill:#000000;fill-opacity:1;stroke:none;stroke-width:0.8505;stroke-dasharray:none;stroke-opacity:1"
       x="80.937325"
       y="-155.08585"
       id="text10620"
       transform="scale(1,-1)"><tspan
         sodipodi:role="line"
         id="tspan10618"
         style="stroke:none;stroke-width:0.8505"
         x="80.937325"
         y="-155.08585" /></text>
    <text
       xml:space="preserve"
       style="font-size:9px;font-family:cmr10;-inkscape-font-specification:cmr10;fill:#000000;fill-opacity:1;stroke:none;stroke-width:0.8505;stroke-dasharray:none;stroke-opacity:1"
       x="64.644615"
       y="-99.934479"
       id="text10831"
       transform="scale(1,-1)"><tspan
         sodipodi:role="line"
         id="tspan10829"
         style="font-size:9px;stroke-width:0.8505"
         x="64.644615"
         y="-99.934479">Lagoon</tspan></text>
    <text
       xml:space="preserve"
       style="font-size:9px;font-family:cmr10;-inkscape-font-specification:cmr10;text-align:center;text-anchor:middle;fill:#000000;fill-opacity:1;stroke:none;stroke-width:0.8505;stroke-dasharray:none;stroke-opacity:1"
       x="255.5874"
       y="-112.31104"
       id="text10835"
       transform="scale(1,-1)"><tspan
         sodipodi:role="line"
         id="tspan10833"
         style="font-size:9px;text-align:center;text-anchor:middle;stroke-width:0.8505"
         x="255.5874"
         y="-112.31104">Indian</tspan><tspan
         sodipodi:role="line"
         style="font-size:9px;text-align:center;text-anchor:middle;stroke-width:0.8505"
         x="255.5874"
         y="-101.06104"
         id="tspan10837">Ocean</tspan></text>
    <text
       xml:space="preserve"
       style="font-size:9px;font-family:cmr10;-inkscape-font-specification:cmr10;text-align:center;text-anchor:middle;fill:#000000;fill-opacity:1;stroke:none;stroke-width:0.8505;stroke-dasharray:none;stroke-opacity:1"
       x="159.52136"
       y="-78.854248"
       id="text10841"
       transform="scale(1,-1)"><tspan
         sodipodi:role="line"
         id="tspan10839"
         style="font-size:9px;stroke-width:0.8505"
         x="159.52136"
         y="-78.854248">Freshwater Lens</tspan></text>
    <text
       xml:space="preserve"
       style="font-size:9px;font-family:cmr10;-inkscape-font-specification:cmr10;text-align:center;text-anchor:middle;fill:#000000;fill-opacity:1;stroke:none;stroke-width:0.8505;stroke-dasharray:none;stroke-opacity:1"
       x="163.59288"
       y="-50.365562"
       id="text10845"
       transform="scale(1,-1)"><tspan
         sodipodi:role="line"
         id="tspan10843"
         style="font-size:9px;stroke-width:0.8505"
         x="163.59288"
         y="-50.365562">Sea water</tspan></text>
    <text
       xml:space="preserve"
       style="font-size:9px;font-family:cmr10;-inkscape-font-specification:cmr10;text-align:center;text-anchor:middle;fill:#000000;fill-opacity:1;stroke:none;stroke-width:1.6755"
       x="90.943893"
       y="-59.707245"
       id="text60893"
       transform="scale(1,-1)"><tspan
         sodipodi:role="line"
         id="tspan60891"
         style="font-size:9px;fill:#000000;fill-opacity:1;stroke:none;stroke-width:1.6755"
         x="90.943893"
         y="-59.707245">Interface</tspan></text>
    <path
       style="fill:#000000;fill-opacity:1;stroke:#000000;stroke-width:0.9255;stroke-dasharray:none;stroke-opacity:1;marker-end:url(#Arrow2)"
       d="m 109.97834,62.707242 14.05295,4.513298"
       id="path61258" />
    <text
       xml:space="preserve"
       style="font-size:9px;font-family:cmr10;-inkscape-font-specification:cmr10;text-align:center;text-anchor:middle;fill:#000000;fill-opacity:1;stroke:none;stroke-width:0.9255;stroke-dasharray:none;stroke-opacity:1"
       x="176.47134"
       y="-101.50046"
       id="text61336"
       transform="scale(1,-1)"><tspan
         sodipodi:role="line"
         id="tspan61334"
         style="font-size:9px;stroke:none;stroke-width:0.9255"
         x="176.47134"
         y="-101.50046">Water table</tspan></text>
    <path
       style="fill:#000000;fill-opacity:1;stroke:#000000;stroke-width:1.0005;stroke-dasharray:none;stroke-opacity:1;marker-end:url(#marker61342)"
       d="m 152.39173,103.82633 -5.7862,-8.455561"
       id="path61338" />
    <path
       style="fill:#000000;fill-opacity:1;stroke:#000000;stroke-width:1.0005;stroke-dasharray:none;stroke-opacity:1"
       d="M 61.075,70.36149 V 45.583747"
       id="path66081" />
    <path
       style="fill:#000000;fill-opacity:1;stroke:#000000;stroke-width:1.0005;stroke-dasharray:none;stroke-opacity:1"
       d="M 65.008499,39.415602 H 114.56399"
       id="path66083" />
    <text
       xml:space="preserve"
       style="font-size:9px;font-family:cmr10;-inkscape-font-specification:cmr10;text-align:center;text-anchor:middle;fill:#000000;fill-opacity:1;stroke:none;stroke-width:1.0005;stroke-dasharray:none;stroke-opacity:1"
       x="88.012535"
       y="-30.954994"
       id="text66087"
       transform="scale(1,-1)"><tspan
         sodipodi:role="line"
         id="tspan66085"
         style="fill:#000000;fill-opacity:1;stroke:none;stroke-width:1.0005"
         x="88.012535"
         y="-30.954994">1000 m</tspan></text>
    <text
       xml:space="preserve"
       style="font-size:9px;font-family:cmr10;-inkscape-font-specification:cmr10;text-align:center;text-anchor:middle;fill:#000000;fill-opacity:1;stroke:none;stroke-width:1.0005;stroke-dasharray:none;stroke-opacity:1"
       x="59.227985"
       y="57.327595"
       id="text66091"
       transform="matrix(0,1,1,0,0,0)"><tspan
         sodipodi:role="line"
         id="tspan66089"
         style="stroke-width:1.0005"
         x="59.227985"
         y="57.327595">50 m</tspan></text>
  </g>
</svg>
