<?xml version="1.0" encoding="utf-8" standalone="no"?>
<!DOCTYPE svg PUBLIC "-//W3C//DTD SVG 1.1//EN"
  "http://www.w3.org/Graphics/SVG/1.1/DTD/svg11.dtd">
<svg xmlns:xlink="http://www.w3.org/1999/xlink" width="510.695988pt" height="321.466687pt" viewBox="0 0 510.695988 321.466687" xmlns="http://www.w3.org/2000/svg" version="1.1">
 <metadata>
  <rdf:RDF xmlns:dc="http://purl.org/dc/elements/1.1/" xmlns:cc="http://creativecommons.org/ns#" xmlns:rdf="http://www.w3.org/1999/02/22-rdf-syntax-ns#">
   <cc:Work>
    <dc:type rdf:resource="http://purl.org/dc/dcmitype/StillImage"/>
    <dc:date>2025-07-21T12:10:25.665774</dc:date>
    <dc:format>image/svg+xml</dc:format>
    <dc:creator>
     <cc:Agent>
      <dc:title>Matplotlib v3.6.3, https://matplotlib.org/</dc:title>
     </cc:Agent>
    </dc:creator>
   </cc:Work>
  </rdf:RDF>
 </metadata>
 <defs>
  <style type="text/css">*{stroke-linejoin: round; stroke-linecap: butt}</style>
 </defs>
 <g id="figure_1">
  <g id="patch_1">
   <path d="M 0 321.466687 
L 510.695988 321.466687 
L 510.695988 0 
L 0 0 
z
" style="fill: #ffffff"/>
  </g>
  <g id="axes_1">
   <g id="patch_2">
    <path d="M 56.50625 283.910437 
L 413.62625 283.910437 
L 413.62625 17.798437 
L 56.50625 17.798437 
z
" style="fill: #ffffff"/>
   </g>
   <g id="matplotlib.axis_1">
    <g id="xtick_1">
     <g id="line2d_1">
      <defs>
       <path id="m51f773f3d1" d="M 0 0 
L 0 3.5 
" style="stroke: #000000; stroke-width: 0.8"/>
      </defs>
      <g>
       <use xlink:href="#m51f773f3d1" x="99.508014" y="283.910437" style="stroke: #000000; stroke-width: 0.8"/>
      </g>
     </g>
     <g id="text_1">
      <!-- 704000 -->
      <g transform="translate(80.420514 298.508875) scale(0.1 -0.1)">
       <defs>
        <path id="DejaVuSans-37" d="M 525 4666 
L 3525 4666 
L 3525 4397 
L 1831 0 
L 1172 0 
L 2766 4134 
L 525 4134 
L 525 4666 
z
" transform="scale(0.015625)"/>
        <path id="DejaVuSans-30" d="M 2034 4250 
Q 1547 4250 1301 3770 
Q 1056 3291 1056 2328 
Q 1056 1369 1301 889 
Q 1547 409 2034 409 
Q 2525 409 2770 889 
Q 3016 1369 3016 2328 
Q 3016 3291 2770 3770 
Q 2525 4250 2034 4250 
z
M 2034 4750 
Q 2819 4750 3233 4129 
Q 3647 3509 3647 2328 
Q 3647 1150 3233 529 
Q 2819 -91 2034 -91 
Q 1250 -91 836 529 
Q 422 1150 422 2328 
Q 422 3509 836 4129 
Q 1250 4750 2034 4750 
z
" transform="scale(0.015625)"/>
        <path id="DejaVuSans-34" d="M 2419 4116 
L 825 1625 
L 2419 1625 
L 2419 4116 
z
M 2253 4666 
L 3047 4666 
L 3047 1625 
L 3713 1625 
L 3713 1100 
L 3047 1100 
L 3047 0 
L 2419 0 
L 2419 1100 
L 313 1100 
L 313 1709 
L 2253 4666 
z
" transform="scale(0.015625)"/>
       </defs>
       <use xlink:href="#DejaVuSans-37"/>
       <use xlink:href="#DejaVuSans-30" x="63.623047"/>
       <use xlink:href="#DejaVuSans-34" x="127.246094"/>
       <use xlink:href="#DejaVuSans-30" x="190.869141"/>
       <use xlink:href="#DejaVuSans-30" x="254.492188"/>
       <use xlink:href="#DejaVuSans-30" x="318.115234"/>
      </g>
     </g>
    </g>
    <g id="xtick_2">
     <g id="line2d_2">
      <g>
       <use xlink:href="#m51f773f3d1" x="162.545895" y="283.910437" style="stroke: #000000; stroke-width: 0.8"/>
      </g>
     </g>
     <g id="text_2">
      <!-- 706000 -->
      <g transform="translate(143.458395 298.508875) scale(0.1 -0.1)">
       <defs>
        <path id="DejaVuSans-36" d="M 2113 2584 
Q 1688 2584 1439 2293 
Q 1191 2003 1191 1497 
Q 1191 994 1439 701 
Q 1688 409 2113 409 
Q 2538 409 2786 701 
Q 3034 994 3034 1497 
Q 3034 2003 2786 2293 
Q 2538 2584 2113 2584 
z
M 3366 4563 
L 3366 3988 
Q 3128 4100 2886 4159 
Q 2644 4219 2406 4219 
Q 1781 4219 1451 3797 
Q 1122 3375 1075 2522 
Q 1259 2794 1537 2939 
Q 1816 3084 2150 3084 
Q 2853 3084 3261 2657 
Q 3669 2231 3669 1497 
Q 3669 778 3244 343 
Q 2819 -91 2113 -91 
Q 1303 -91 875 529 
Q 447 1150 447 2328 
Q 447 3434 972 4092 
Q 1497 4750 2381 4750 
Q 2619 4750 2861 4703 
Q 3103 4656 3366 4563 
z
" transform="scale(0.015625)"/>
       </defs>
       <use xlink:href="#DejaVuSans-37"/>
       <use xlink:href="#DejaVuSans-30" x="63.623047"/>
       <use xlink:href="#DejaVuSans-36" x="127.246094"/>
       <use xlink:href="#DejaVuSans-30" x="190.869141"/>
       <use xlink:href="#DejaVuSans-30" x="254.492188"/>
       <use xlink:href="#DejaVuSans-30" x="318.115234"/>
      </g>
     </g>
    </g>
    <g id="xtick_3">
     <g id="line2d_3">
      <g>
       <use xlink:href="#m51f773f3d1" x="225.583777" y="283.910437" style="stroke: #000000; stroke-width: 0.8"/>
      </g>
     </g>
     <g id="text_3">
      <!-- 708000 -->
      <g transform="translate(206.496277 298.508875) scale(0.1 -0.1)">
       <defs>
        <path id="DejaVuSans-38" d="M 2034 2216 
Q 1584 2216 1326 1975 
Q 1069 1734 1069 1313 
Q 1069 891 1326 650 
Q 1584 409 2034 409 
Q 2484 409 2743 651 
Q 3003 894 3003 1313 
Q 3003 1734 2745 1975 
Q 2488 2216 2034 2216 
z
M 1403 2484 
Q 997 2584 770 2862 
Q 544 3141 544 3541 
Q 544 4100 942 4425 
Q 1341 4750 2034 4750 
Q 2731 4750 3128 4425 
Q 3525 4100 3525 3541 
Q 3525 3141 3298 2862 
Q 3072 2584 2669 2484 
Q 3125 2378 3379 2068 
Q 3634 1759 3634 1313 
Q 3634 634 3220 271 
Q 2806 -91 2034 -91 
Q 1263 -91 848 271 
Q 434 634 434 1313 
Q 434 1759 690 2068 
Q 947 2378 1403 2484 
z
M 1172 3481 
Q 1172 3119 1398 2916 
Q 1625 2713 2034 2713 
Q 2441 2713 2670 2916 
Q 2900 3119 2900 3481 
Q 2900 3844 2670 4047 
Q 2441 4250 2034 4250 
Q 1625 4250 1398 4047 
Q 1172 3844 1172 3481 
z
" transform="scale(0.015625)"/>
       </defs>
       <use xlink:href="#DejaVuSans-37"/>
       <use xlink:href="#DejaVuSans-30" x="63.623047"/>
       <use xlink:href="#DejaVuSans-38" x="127.246094"/>
       <use xlink:href="#DejaVuSans-30" x="190.869141"/>
       <use xlink:href="#DejaVuSans-30" x="254.492188"/>
       <use xlink:href="#DejaVuSans-30" x="318.115234"/>
      </g>
     </g>
    </g>
    <g id="xtick_4">
     <g id="line2d_4">
      <g>
       <use xlink:href="#m51f773f3d1" x="288.621658" y="283.910437" style="stroke: #000000; stroke-width: 0.8"/>
      </g>
     </g>
     <g id="text_4">
      <!-- 710000 -->
      <g transform="translate(269.534158 298.508875) scale(0.1 -0.1)">
       <defs>
        <path id="DejaVuSans-31" d="M 794 531 
L 1825 531 
L 1825 4091 
L 703 3866 
L 703 4441 
L 1819 4666 
L 2450 4666 
L 2450 531 
L 3481 531 
L 3481 0 
L 794 0 
L 794 531 
z
" transform="scale(0.015625)"/>
       </defs>
       <use xlink:href="#DejaVuSans-37"/>
       <use xlink:href="#DejaVuSans-31" x="63.623047"/>
       <use xlink:href="#DejaVuSans-30" x="127.246094"/>
       <use xlink:href="#DejaVuSans-30" x="190.869141"/>
       <use xlink:href="#DejaVuSans-30" x="254.492188"/>
       <use xlink:href="#DejaVuSans-30" x="318.115234"/>
      </g>
     </g>
    </g>
    <g id="xtick_5">
     <g id="line2d_5">
      <g>
       <use xlink:href="#m51f773f3d1" x="351.65954" y="283.910437" style="stroke: #000000; stroke-width: 0.8"/>
      </g>
     </g>
     <g id="text_5">
      <!-- 712000 -->
      <g transform="translate(332.57204 298.508875) scale(0.1 -0.1)">
       <defs>
        <path id="DejaVuSans-32" d="M 1228 531 
L 3431 531 
L 3431 0 
L 469 0 
L 469 531 
Q 828 903 1448 1529 
Q 2069 2156 2228 2338 
Q 2531 2678 2651 2914 
Q 2772 3150 2772 3378 
Q 2772 3750 2511 3984 
Q 2250 4219 1831 4219 
Q 1534 4219 1204 4116 
Q 875 4013 500 3803 
L 500 4441 
Q 881 4594 1212 4672 
Q 1544 4750 1819 4750 
Q 2544 4750 2975 4387 
Q 3406 4025 3406 3419 
Q 3406 3131 3298 2873 
Q 3191 2616 2906 2266 
Q 2828 2175 2409 1742 
Q 1991 1309 1228 531 
z
" transform="scale(0.015625)"/>
       </defs>
       <use xlink:href="#DejaVuSans-37"/>
       <use xlink:href="#DejaVuSans-31" x="63.623047"/>
       <use xlink:href="#DejaVuSans-32" x="127.246094"/>
       <use xlink:href="#DejaVuSans-30" x="190.869141"/>
       <use xlink:href="#DejaVuSans-30" x="254.492188"/>
       <use xlink:href="#DejaVuSans-30" x="318.115234"/>
      </g>
     </g>
    </g>
    <g id="text_6">
     <!-- X (m) -->
     <g transform="translate(221.280313 312.187) scale(0.1 -0.1)">
      <defs>
       <path id="DejaVuSans-58" d="M 403 4666 
L 1081 4666 
L 2241 2931 
L 3406 4666 
L 4084 4666 
L 2584 2425 
L 4184 0 
L 3506 0 
L 2194 1984 
L 872 0 
L 191 0 
L 1856 2491 
L 403 4666 
z
" transform="scale(0.015625)"/>
       <path id="DejaVuSans-20" transform="scale(0.015625)"/>
       <path id="DejaVuSans-28" d="M 1984 4856 
Q 1566 4138 1362 3434 
Q 1159 2731 1159 2009 
Q 1159 1288 1364 580 
Q 1569 -128 1984 -844 
L 1484 -844 
Q 1016 -109 783 600 
Q 550 1309 550 2009 
Q 550 2706 781 3412 
Q 1013 4119 1484 4856 
L 1984 4856 
z
" transform="scale(0.015625)"/>
       <path id="DejaVuSans-6d" d="M 3328 2828 
Q 3544 3216 3844 3400 
Q 4144 3584 4550 3584 
Q 5097 3584 5394 3201 
Q 5691 2819 5691 2113 
L 5691 0 
L 5113 0 
L 5113 2094 
Q 5113 2597 4934 2840 
Q 4756 3084 4391 3084 
Q 3944 3084 3684 2787 
Q 3425 2491 3425 1978 
L 3425 0 
L 2847 0 
L 2847 2094 
Q 2847 2600 2669 2842 
Q 2491 3084 2119 3084 
Q 1678 3084 1418 2786 
Q 1159 2488 1159 1978 
L 1159 0 
L 581 0 
L 581 3500 
L 1159 3500 
L 1159 2956 
Q 1356 3278 1631 3431 
Q 1906 3584 2284 3584 
Q 2666 3584 2933 3390 
Q 3200 3197 3328 2828 
z
" transform="scale(0.015625)"/>
       <path id="DejaVuSans-29" d="M 513 4856 
L 1013 4856 
Q 1481 4119 1714 3412 
Q 1947 2706 1947 2009 
Q 1947 1309 1714 600 
Q 1481 -109 1013 -844 
L 513 -844 
Q 928 -128 1133 580 
Q 1338 1288 1338 2009 
Q 1338 2731 1133 3434 
Q 928 4138 513 4856 
z
" transform="scale(0.015625)"/>
      </defs>
      <use xlink:href="#DejaVuSans-58"/>
      <use xlink:href="#DejaVuSans-20" x="68.505859"/>
      <use xlink:href="#DejaVuSans-28" x="100.292969"/>
      <use xlink:href="#DejaVuSans-6d" x="139.306641"/>
      <use xlink:href="#DejaVuSans-29" x="236.71875"/>
     </g>
    </g>
   </g>
   <g id="matplotlib.axis_2">
    <g id="ytick_1">
     <g id="line2d_6">
      <defs>
       <path id="m54cb340e32" d="M 0 0 
L -3.5 0 
" style="stroke: #000000; stroke-width: 0.8"/>
      </defs>
      <g>
       <use xlink:href="#m54cb340e32" x="56.50625" y="255.738441" style="stroke: #000000; stroke-width: 0.8"/>
      </g>
     </g>
     <g id="text_7">
      <!-- 1.802 -->
      <g transform="translate(20.878125 259.537659) scale(0.1 -0.1)">
       <defs>
        <path id="DejaVuSans-2e" d="M 684 794 
L 1344 794 
L 1344 0 
L 684 0 
L 684 794 
z
" transform="scale(0.015625)"/>
       </defs>
       <use xlink:href="#DejaVuSans-31"/>
       <use xlink:href="#DejaVuSans-2e" x="63.623047"/>
       <use xlink:href="#DejaVuSans-38" x="95.410156"/>
       <use xlink:href="#DejaVuSans-30" x="159.033203"/>
       <use xlink:href="#DejaVuSans-32" x="222.65625"/>
      </g>
     </g>
    </g>
    <g id="ytick_2">
     <g id="line2d_7">
      <g>
       <use xlink:href="#m54cb340e32" x="56.50625" y="224.2195" style="stroke: #000000; stroke-width: 0.8"/>
      </g>
     </g>
     <g id="text_8">
      <!-- 1.803 -->
      <g transform="translate(20.878125 228.018719) scale(0.1 -0.1)">
       <defs>
        <path id="DejaVuSans-33" d="M 2597 2516 
Q 3050 2419 3304 2112 
Q 3559 1806 3559 1356 
Q 3559 666 3084 287 
Q 2609 -91 1734 -91 
Q 1441 -91 1130 -33 
Q 819 25 488 141 
L 488 750 
Q 750 597 1062 519 
Q 1375 441 1716 441 
Q 2309 441 2620 675 
Q 2931 909 2931 1356 
Q 2931 1769 2642 2001 
Q 2353 2234 1838 2234 
L 1294 2234 
L 1294 2753 
L 1863 2753 
Q 2328 2753 2575 2939 
Q 2822 3125 2822 3475 
Q 2822 3834 2567 4026 
Q 2313 4219 1838 4219 
Q 1578 4219 1281 4162 
Q 984 4106 628 3988 
L 628 4550 
Q 988 4650 1302 4700 
Q 1616 4750 1894 4750 
Q 2613 4750 3031 4423 
Q 3450 4097 3450 3541 
Q 3450 3153 3228 2886 
Q 3006 2619 2597 2516 
z
" transform="scale(0.015625)"/>
       </defs>
       <use xlink:href="#DejaVuSans-31"/>
       <use xlink:href="#DejaVuSans-2e" x="63.623047"/>
       <use xlink:href="#DejaVuSans-38" x="95.410156"/>
       <use xlink:href="#DejaVuSans-30" x="159.033203"/>
       <use xlink:href="#DejaVuSans-33" x="222.65625"/>
      </g>
     </g>
    </g>
    <g id="ytick_3">
     <g id="line2d_8">
      <g>
       <use xlink:href="#m54cb340e32" x="56.50625" y="192.700559" style="stroke: #000000; stroke-width: 0.8"/>
      </g>
     </g>
     <g id="text_9">
      <!-- 1.804 -->
      <g transform="translate(20.878125 196.499778) scale(0.1 -0.1)">
       <use xlink:href="#DejaVuSans-31"/>
       <use xlink:href="#DejaVuSans-2e" x="63.623047"/>
       <use xlink:href="#DejaVuSans-38" x="95.410156"/>
       <use xlink:href="#DejaVuSans-30" x="159.033203"/>
       <use xlink:href="#DejaVuSans-34" x="222.65625"/>
      </g>
     </g>
    </g>
    <g id="ytick_4">
     <g id="line2d_9">
      <g>
       <use xlink:href="#m54cb340e32" x="56.50625" y="161.181618" style="stroke: #000000; stroke-width: 0.8"/>
      </g>
     </g>
     <g id="text_10">
      <!-- 1.805 -->
      <g transform="translate(20.878125 164.980837) scale(0.1 -0.1)">
       <defs>
        <path id="DejaVuSans-35" d="M 691 4666 
L 3169 4666 
L 3169 4134 
L 1269 4134 
L 1269 2991 
Q 1406 3038 1543 3061 
Q 1681 3084 1819 3084 
Q 2600 3084 3056 2656 
Q 3513 2228 3513 1497 
Q 3513 744 3044 326 
Q 2575 -91 1722 -91 
Q 1428 -91 1123 -41 
Q 819 9 494 109 
L 494 744 
Q 775 591 1075 516 
Q 1375 441 1709 441 
Q 2250 441 2565 725 
Q 2881 1009 2881 1497 
Q 2881 1984 2565 2268 
Q 2250 2553 1709 2553 
Q 1456 2553 1204 2497 
Q 953 2441 691 2322 
L 691 4666 
z
" transform="scale(0.015625)"/>
       </defs>
       <use xlink:href="#DejaVuSans-31"/>
       <use xlink:href="#DejaVuSans-2e" x="63.623047"/>
       <use xlink:href="#DejaVuSans-38" x="95.410156"/>
       <use xlink:href="#DejaVuSans-30" x="159.033203"/>
       <use xlink:href="#DejaVuSans-35" x="222.65625"/>
      </g>
     </g>
    </g>
    <g id="ytick_5">
     <g id="line2d_10">
      <g>
       <use xlink:href="#m54cb340e32" x="56.50625" y="129.662678" style="stroke: #000000; stroke-width: 0.8"/>
      </g>
     </g>
     <g id="text_11">
      <!-- 1.806 -->
      <g transform="translate(20.878125 133.461896) scale(0.1 -0.1)">
       <use xlink:href="#DejaVuSans-31"/>
       <use xlink:href="#DejaVuSans-2e" x="63.623047"/>
       <use xlink:href="#DejaVuSans-38" x="95.410156"/>
       <use xlink:href="#DejaVuSans-30" x="159.033203"/>
       <use xlink:href="#DejaVuSans-36" x="222.65625"/>
      </g>
     </g>
    </g>
    <g id="ytick_6">
     <g id="line2d_11">
      <g>
       <use xlink:href="#m54cb340e32" x="56.50625" y="98.143737" style="stroke: #000000; stroke-width: 0.8"/>
      </g>
     </g>
     <g id="text_12">
      <!-- 1.807 -->
      <g transform="translate(20.878125 101.942956) scale(0.1 -0.1)">
       <use xlink:href="#DejaVuSans-31"/>
       <use xlink:href="#DejaVuSans-2e" x="63.623047"/>
       <use xlink:href="#DejaVuSans-38" x="95.410156"/>
       <use xlink:href="#DejaVuSans-30" x="159.033203"/>
       <use xlink:href="#DejaVuSans-37" x="222.65625"/>
      </g>
     </g>
    </g>
    <g id="ytick_7">
     <g id="line2d_12">
      <g>
       <use xlink:href="#m54cb340e32" x="56.50625" y="66.624796" style="stroke: #000000; stroke-width: 0.8"/>
      </g>
     </g>
     <g id="text_13">
      <!-- 1.808 -->
      <g transform="translate(20.878125 70.424015) scale(0.1 -0.1)">
       <use xlink:href="#DejaVuSans-31"/>
       <use xlink:href="#DejaVuSans-2e" x="63.623047"/>
       <use xlink:href="#DejaVuSans-38" x="95.410156"/>
       <use xlink:href="#DejaVuSans-30" x="159.033203"/>
       <use xlink:href="#DejaVuSans-38" x="222.65625"/>
      </g>
     </g>
    </g>
    <g id="ytick_8">
     <g id="line2d_13">
      <g>
       <use xlink:href="#m54cb340e32" x="56.50625" y="35.105855" style="stroke: #000000; stroke-width: 0.8"/>
      </g>
     </g>
     <g id="text_14">
      <!-- 1.809 -->
      <g transform="translate(20.878125 38.905074) scale(0.1 -0.1)">
       <defs>
        <path id="DejaVuSans-39" d="M 703 97 
L 703 672 
Q 941 559 1184 500 
Q 1428 441 1663 441 
Q 2288 441 2617 861 
Q 2947 1281 2994 2138 
Q 2813 1869 2534 1725 
Q 2256 1581 1919 1581 
Q 1219 1581 811 2004 
Q 403 2428 403 3163 
Q 403 3881 828 4315 
Q 1253 4750 1959 4750 
Q 2769 4750 3195 4129 
Q 3622 3509 3622 2328 
Q 3622 1225 3098 567 
Q 2575 -91 1691 -91 
Q 1453 -91 1209 -44 
Q 966 3 703 97 
z
M 1959 2075 
Q 2384 2075 2632 2365 
Q 2881 2656 2881 3163 
Q 2881 3666 2632 3958 
Q 2384 4250 1959 4250 
Q 1534 4250 1286 3958 
Q 1038 3666 1038 3163 
Q 1038 2656 1286 2365 
Q 1534 2075 1959 2075 
z
" transform="scale(0.015625)"/>
       </defs>
       <use xlink:href="#DejaVuSans-31"/>
       <use xlink:href="#DejaVuSans-2e" x="63.623047"/>
       <use xlink:href="#DejaVuSans-38" x="95.410156"/>
       <use xlink:href="#DejaVuSans-30" x="159.033203"/>
       <use xlink:href="#DejaVuSans-39" x="222.65625"/>
      </g>
     </g>
    </g>
    <g id="text_15">
     <!-- Y (m) -->
     <g transform="translate(14.798438 164.269281) rotate(-90) scale(0.1 -0.1)">
      <defs>
       <path id="DejaVuSans-59" d="M -13 4666 
L 666 4666 
L 1959 2747 
L 3244 4666 
L 3922 4666 
L 2272 2222 
L 2272 0 
L 1638 0 
L 1638 2222 
L -13 4666 
z
" transform="scale(0.015625)"/>
      </defs>
      <use xlink:href="#DejaVuSans-59"/>
      <use xlink:href="#DejaVuSans-20" x="61.083984"/>
      <use xlink:href="#DejaVuSans-28" x="92.871094"/>
      <use xlink:href="#DejaVuSans-6d" x="131.884766"/>
      <use xlink:href="#DejaVuSans-29" x="229.296875"/>
     </g>
    </g>
    <g id="text_16">
     <!-- 1e6 -->
     <g transform="translate(56.50625 14.798437) scale(0.1 -0.1)">
      <defs>
       <path id="DejaVuSans-65" d="M 3597 1894 
L 3597 1613 
L 953 1613 
Q 991 1019 1311 708 
Q 1631 397 2203 397 
Q 2534 397 2845 478 
Q 3156 559 3463 722 
L 3463 178 
Q 3153 47 2828 -22 
Q 2503 -91 2169 -91 
Q 1331 -91 842 396 
Q 353 884 353 1716 
Q 353 2575 817 3079 
Q 1281 3584 2069 3584 
Q 2775 3584 3186 3129 
Q 3597 2675 3597 1894 
z
M 3022 2063 
Q 3016 2534 2758 2815 
Q 2500 3097 2075 3097 
Q 1594 3097 1305 2825 
Q 1016 2553 972 2059 
L 3022 2063 
z
" transform="scale(0.015625)"/>
      </defs>
      <use xlink:href="#DejaVuSans-31"/>
      <use xlink:href="#DejaVuSans-65" x="63.623047"/>
      <use xlink:href="#DejaVuSans-36" x="125.146484"/>
     </g>
    </g>
   </g>
   <g id="line2d_14">
    <path d="M 77.113806 215.807095 
L 77.107502 216.128588 
L 77.028705 216.260967 
L 77.192604 216.636043 
L 77.110654 217.061549 
L 77.268249 217.01427 
L 77.328135 216.96384 
L 77.520401 217.212839 
L 77.741033 217.335763 
L 77.744185 217.301092 
L 77.845046 217.178169 
L 77.870261 217.190776 
L 78.008944 217.320004 
L 78.106653 217.622586 
L 77.958514 217.723446 
L 77.794615 217.767573 
L 77.993185 218.457838 
L 78.160235 218.19623 
L 78.421842 217.997661 
L 78.727576 218.051243 
L 79.124715 218.249813 
L 79.537613 218.750964 
L 79.669992 219.296241 
L 79.461967 219.570456 
L 79.061677 219.885646 
L 79.260246 219.995962 
L 79.370562 219.964443 
L 79.389474 220.027481 
L 79.537613 220.071607 
L 80.193207 219.86043 
L 80.272004 220.516024 
L 80.117561 220.720898 
L 79.953663 220.787087 
L 79.906384 220.998264 
L 80.555675 221.820909 
L 80.962269 221.937529 
L 80.896079 222.054149 
L 80.792067 222.195984 
L 80.886623 222.473351 
L 81.015851 222.861034 
L 80.937054 223.642703 
L 80.908687 223.724653 
L 80.694358 223.866488 
L 80.725877 224.295145 
L 80.899231 224.528386 
L 81.015851 224.670221 
L 81.126167 225.187131 
L 81.264851 225.921523 
L 81.186053 226.375395 
L 81.249091 227.046749 
L 81.11356 228.575418 
L 80.968573 229.167974 
L 80.688054 229.599783 
L 80.246789 229.804656 
L 79.584891 229.773137 
L 79.190904 229.719555 
L 79.181449 229.769985 
L 79.9316 230.64306 
L 79.985182 231.137907 
L 79.764549 231.569717 
L 78.866259 232.209551 
L 78.182298 232.25683 
L 77.249338 232.884057 
L 77.277705 233.117297 
L 77.050768 233.416727 
L 77.047616 233.574322 
L 76.467668 234.264586 
L 76.691452 234.32132 
L 76.981427 234.239371 
L 77.205211 234.485219 
L 77.085439 234.645966 
L 76.776554 234.68694 
L 76.603199 234.715307 
L 76.392023 234.872902 
L 76.146175 234.964307 
L 76.149327 235.241674 
L 76.33844 235.626205 
L 76.196605 235.875204 
L 76.313225 236.278647 
L 76.240732 236.392115 
L 76.325833 236.411026 
L 76.505491 236.278647 
L 77.041313 236.581229 
L 77.104351 237.236822 
L 76.994034 238.24858 
L 76.63787 238.500732 
L 76.373111 238.374656 
L 76.486579 238.09729 
L 76.23758 237.882961 
L 75.58829 237.892416 
L 75.383416 238.037404 
L 75.443302 238.188694 
L 75.471669 238.44715 
L 75.553619 238.529099 
L 76.083137 238.74658 
L 76.722971 238.882111 
L 76.773402 239.008187 
L 76.505491 239.332832 
L 76.360504 239.367503 
L 75.569378 239.244579 
L 75.178543 239.632262 
L 75.128113 240.105046 
L 74.957911 240.363501 
L 74.649025 240.300464 
L 74.633266 240.404476 
L 74.55762 240.540007 
L 74.526101 240.684995 
L 74.522949 240.798463 
L 74.592291 240.782703 
L 74.746734 240.946602 
L 74.705759 241.082133 
L 74.106899 241.504487 
L 73.823229 241.753487 
L 73.571077 241.835436 
L 73.394571 241.684145 
L 73.400875 241.595892 
L 73.30947 241.633715 
L 73.180242 241.863803 
L 73.199154 242.134866 
L 73.139268 242.24203 
L 73.205458 242.25779 
L 73.400875 242.32398 
L 73.577381 242.336587 
L 73.744431 242.519397 
L 74.198304 242.620258 
L 74.084836 242.717966 
L 73.854748 242.963814 
L 73.385116 243.174991 
L 73.016344 243.260092 
L 72.969066 243.342041 
L 73.038407 243.468117 
L 73.30947 243.370408 
L 73.167635 243.493332 
L 72.931243 243.726572 
L 72.748433 243.899927 
L 72.814623 244.02285 
L 72.90918 244.03861 
L 72.89342 244.1048 
L 72.751585 244.22142 
L 72.839838 244.268698 
L 73.643571 243.931445 
L 73.621508 243.849496 
L 74.182545 243.73918 
L 74.526101 243.950357 
L 74.753038 244.237179 
L 74.875961 244.675292 
L 75.014645 245.003089 
L 75.247885 244.971571 
L 75.619808 245.034608 
L 75.783707 245.412836 
L 75.679694 245.696506 
L 75.175391 245.873012 
L 75.027252 245.873012 
L 75.0241 246.011696 
L 75.232125 246.16929 
L 75.178543 246.478176 
L 75.285708 246.437201 
L 75.723821 246.58534 
L 75.670239 246.824884 
L 75.793163 246.846948 
L 75.912935 246.897378 
L 76.010643 247.077036 
L 76.139871 247.099099 
L 76.083137 247.181048 
L 76.073681 247.663288 
L 76.284858 247.779908 
L 76.508643 247.997389 
L 76.546465 248.224325 
L 76.549617 248.407135 
L 76.360504 248.807426 
L 76.486579 249.21402 
L 76.477124 249.494539 
L 76.458212 249.699412 
L 76.328985 250.118614 
L 76.486579 250.131221 
L 76.524402 250.348702 
L 76.253339 250.758448 
L 76.467668 250.818334 
L 76.823832 251.054726 
L 76.663085 251.168194 
L 76.912085 251.458169 
L 77.800919 251.628371 
L 78.292615 251.666194 
L 78.488032 251.839548 
L 78.699209 252.306028 
L 78.673994 252.59285 
L 78.529007 252.700015 
L 77.955362 252.633825 
L 77.677995 252.684255 
L 77.246186 252.744141 
L 76.77025 252.926951 
L 76.88687 253.0089 
L 77.085439 253.112913 
L 77.25249 252.914344 
L 77.23673 252.870217 
L 77.517249 252.930103 
L 77.545616 252.945863 
L 77.744185 252.914344 
L 77.734729 253.465925 
L 77.958514 253.55733 
L 78.778006 253.276811 
L 79.184601 253.450166 
L 79.878017 253.213774 
L 80.511548 253.891431 
L 80.612409 254.184557 
L 80.401232 254.55648 
L 80.16484 254.676252 
L 79.427297 254.865366 
L 79.417841 255.010353 
L 79.625866 255.10491 
L 79.906384 255.139581 
L 79.112107 255.193163 
L 78.992335 255.275112 
L 79.074284 255.297176 
L 79.348499 255.407492 
L 79.959967 255.391732 
L 80.16484 255.533568 
L 80.5147 255.650188 
L 80.792067 255.7542 
L 81.239636 255.719529 
L 81.264851 255.877124 
L 81.075737 255.981137 
L 80.88032 256.0032 
L 81.245939 256.091453 
L 81.485483 256.11982 
L 81.649382 255.984288 
L 81.964571 256.107212 
L 82.197811 256.097757 
L 82.758849 255.643884 
L 82.966874 254.827543 
L 82.935355 254.82124 
L 82.831342 254.745594 
L 82.847102 254.663645 
L 83.033063 254.392582 
L 83.055127 254.329544 
L 83.408139 254.099456 
L 83.805277 253.614064 
L 83.480632 253.015204 
L 83.436506 252.756749 
L 83.231633 252.744141 
L 83.256848 252.662192 
L 83.572037 252.012902 
L 83.647683 252.101155 
L 83.710721 252.00975 
L 83.742239 251.949864 
L 83.572037 251.606308 
L 83.581493 251.212321 
L 84.20872 250.843549 
L 84.281213 250.430651 
L 84.757149 250.266753 
L 84.955719 250.087095 
L 84.984086 250.124917 
L 84.971478 250.222626 
L 85.195263 250.496841 
L 85.163744 250.424347 
L 85.037668 250.106006 
L 85.034516 250.020905 
L 85.211022 249.948411 
L 85.321338 250.11231 
L 85.576642 249.771905 
L 85.762604 249.752994 
L 86.027363 249.57964 
L 86.194413 249.226628 
L 86.254299 249.03121 
L 86.345704 248.810578 
L 86.433957 248.545818 
L 86.563185 248.337793 
L 86.415046 247.855554 
L 85.794123 247.675896 
L 85.727933 247.467871 
L 85.365465 247.38277 
L 84.927352 247.322884 
L 84.911592 246.708264 
L 85.185807 245.545215 
L 85.516756 245.151229 
L 86.490691 244.568128 
L 87.823942 244.048066 
L 88.95232 243.540611 
L 89.582699 242.966966 
L 90.15004 242.402777 
L 91.067241 241.766094 
L 92.258657 241.34374 
L 93.440618 241.025399 
L 94.12773 240.142869 
L 94.458679 239.780401 
L 94.650945 239.458908 
L 94.723438 239.439996 
L 95.240349 239.849743 
L 95.7415 239.62911 
L 95.684766 239.427389 
L 95.618576 239.310769 
L 96.044082 238.633112 
L 97.147245 237.816771 
L 97.358422 237.630809 
L 97.698826 237.252582 
L 98.039231 237.098139 
L 98.808293 237.104443 
L 98.912306 236.959456 
L 99.820051 236.568621 
L 101.055594 236.398419 
L 104.749614 235.654572 
L 105.108929 235.474914 
L 106.130143 235.443395 
L 107.898356 235.692394 
L 109.997517 236.392115 
L 111.258275 236.527646 
L 112.991817 236.480368 
L 113.905866 236.574925 
L 115.034244 236.272343 
L 119.585579 234.734219 
L 121.325424 234.384358 
L 122.255233 233.98722 
L 126.116303 233.02274 
L 127.95701 232.196944 
L 128.719768 231.84078 
L 129.031805 231.727312 
L 129.681096 231.327021 
L 130.015196 231.219857 
L 130.995435 231.279743 
L 131.376815 231.090629 
L 131.496587 230.636756 
L 131.361055 229.640758 
L 131.565928 229.271986 
L 131.963067 228.72986 
L 132.977977 226.457345 
L 135.584593 223.403159 
L 136.801224 222.662464 
L 137.667995 222.410313 
L 139.347955 222.186528 
L 139.943663 222.192832 
L 141.573192 222.5553 
L 142.086951 222.649857 
L 142.994696 222.842122 
L 143.89929 222.898856 
L 144.728238 223.072211 
L 145.371224 223.308603 
L 145.566642 223.201438 
L 145.702173 222.835818 
L 146.215932 220.361582 
L 147.36007 218.407407 
L 147.946322 217.764421 
L 149.330003 215.835462 
L 150.130584 214.858375 
L 150.997355 214.404502 
L 151.485899 214.215388 
L 153.222592 213.339162 
L 153.477896 213.339162 
L 153.827756 214.372983 
L 153.919161 214.735451 
L 154.108275 214.710236 
L 154.19968 214.473843 
L 153.994807 214.057793 
L 153.730047 212.998757 
L 155.201982 212.217087 
L 156.383942 211.611924 
L 156.793688 211.737999 
L 157.008017 211.687569 
L 157.370485 211.674962 
L 157.654156 211.665506 
L 158.095421 211.514215 
L 160.197734 210.991001 
L 160.733556 210.997304 
L 160.755619 211.25576 
L 161.03929 211.258912 
L 161.032986 212.273821 
L 162.186579 212.299037 
L 162.262225 210.984697 
L 164.165969 211.05719 
L 164.225855 213.112225 
L 164.241614 213.279276 
L 163.970551 213.689022 
L 162.908363 214.067249 
L 159.104027 215.192475 
L 158.700584 215.21769 
L 158.656458 215.510817 
L 158.896002 215.665259 
L 159.523229 215.510817 
L 164.203791 214.067249 
L 164.459095 213.915958 
L 164.61669 213.591313 
L 164.742765 212.412505 
L 165.618992 212.207632 
L 168.11214 211.864075 
L 169.035645 211.495304 
L 169.599834 211.268367 
L 170.532795 211.009912 
L 171.664325 210.533976 
L 174.188992 209.396142 
L 175.897318 209.017915 
L 176.663229 209.049434 
L 177.892467 209.27637 
L 178.491327 209.553737 
L 178.964111 209.846863 
L 179.323427 209.922508 
L 179.919135 210.218786 
L 181.214564 210.433115 
L 181.583335 210.385837 
L 182.897675 209.872078 
L 183.216017 209.746002 
L 183.682497 209.3268 
L 184.58709 209.039978 
L 185.132368 209.080953 
L 185.334089 209.090408 
L 186.248139 208.879231 
L 188.637274 208.614472 
L 189.756197 208.343409 
L 190.944461 207.955727 
L 191.842751 207.703575 
L 192.810382 207.278069 
L 194.937911 206.565741 
L 195.246796 206.379779 
L 196.961427 204.892085 
L 199.690967 203.848809 
L 200.274067 203.70067 
L 201.254306 203.432759 
L 201.531673 203.448518 
L 203.495303 204.053682 
L 203.974391 204.05053 
L 207.148348 202.884329 
L 208.005663 202.531317 
L 208.513118 202.528165 
L 209.058396 202.260254 
L 210.000812 202.547076 
L 210.9779 202.225583 
L 211.570456 202.291773 
L 212.333214 202.316988 
L 214.161313 202.058533 
L 215.4725 201.778014 
L 220.720404 200.167396 
L 220.985163 200.198915 
L 221.180581 200.312383 
L 221.517833 200.208371 
L 222.26168 200.145333 
L 222.438186 199.971979 
L 222.507528 199.666245 
L 222.699794 199.754498 
L 223.635906 199.357359 
L 223.957399 199.480283 
L 224.165424 199.537017 
L 224.638208 199.177702 
L 225.583777 198.868816 
L 225.608992 198.805778 
L 226.844534 198.380272 
L 227.090382 198.424399 
L 227.238521 198.14388 
L 227.881507 198.09345 
L 230.368352 197.595451 
L 230.343137 197.715223 
L 230.503883 197.771957 
L 231.096439 197.336995 
L 231.32968 197.441008 
L 231.503034 197.336995 
L 231.717363 197.504046 
L 231.890717 197.355907 
L 232.001033 197.19516 
L 232.032552 197.214072 
L 232.19645 197.251894 
L 232.908779 196.971376 
L 233.75979 196.593148 
L 233.703056 196.526959 
L 234.074979 196.252744 
L 234.191599 195.972225 
L 234.579282 195.679099 
L 235.001636 195.600302 
L 235.411382 195.46477 
L 235.726572 195.515201 
L 236.082736 195.155885 
L 236.810823 194.906885 
L 238.210264 194.41519 
L 238.484479 194.509746 
L 240.145527 194.251291 
L 240.359856 194.311177 
L 241.242386 193.973924 
L 242.518904 192.962166 
L 243.625218 191.997687 
L 245.201165 190.992233 
L 245.89143 190.462714 
L 247.177403 189.870158 
L 250.13388 188.34149 
L 252.768863 185.492177 
L 254.729341 184.026547 
L 255.835656 183.289003 
L 257.1563 182.393866 
L 258.20588 181.621652 
L 259.019069 181.041703 
L 259.580106 180.685539 
L 261.181268 179.100136 
L 263.967543 176.01128 
L 266.870437 172.320412 
L 268.172169 171.006072 
L 269.445535 169.663365 
L 269.968749 169.445885 
L 270.618039 169.332417 
L 271.13495 168.976252 
L 271.248418 169.023531 
L 272.071062 168.802898 
L 272.402011 168.613785 
L 273.946439 168.582266 
L 274.340426 168.541291 
L 274.989716 168.194583 
L 275.758778 167.627242 
L 276.502625 166.870787 
L 277.60894 165.383093 
L 277.955649 164.941828 
L 278.110091 164.406006 
L 278.686888 163.715741 
L 280.543354 162.287933 
L 281.470011 161.455833 
L 282.043655 160.976745 
L 282.072022 160.696227 
L 282.595237 160.138341 
L 283.395818 159.495355 
L 283.622754 158.975293 
L 283.74883 158.653799 
L 284.023045 158.534027 
L 284.209006 158.417407 
L 284.265741 157.717687 
L 284.621905 157.106219 
L 284.88036 157.14089 
L 285.157727 156.84146 
L 286.226219 156.813093 
L 286.620205 156.67441 
L 287.124508 156.340309 
L 287.981824 155.940019 
L 288.716215 155.4105 
L 291.108503 154.023667 
L 292.533159 153.582402 
L 293.784461 153.327098 
L 293.879018 153.21363 
L 294.131169 152.261758 
L 294.458966 151.394987 
L 295.130319 150.840254 
L 297.66129 149.072041 
L 297.869315 148.728485 
L 298.584795 148.157992 
L 298.666745 148.161144 
L 299.552427 147.184057 
L 299.92435 146.985488 
L 301.850158 146.348805 
L 302.357613 145.784616 
L 303.287421 144.703516 
L 304.040724 144.016403 
L 304.163648 144.000644 
L 304.951621 143.442759 
L 305.090305 143.184303 
L 306.035873 142.743038 
L 306.458227 142.494038 
L 307.473137 141.929849 
L 307.971136 141.214369 
L 309.323298 140.924395 
L 309.833905 140.577687 
L 311.29008 139.424094 
L 312.645395 138.601449 
L 312.847116 138.532108 
L 313.839963 138.024653 
L 313.817899 137.958463 
L 313.880937 137.952159 
L 313.950279 137.993134 
L 317.256616 136.149276 
L 318.681272 134.797113 
L 318.823107 134.765594 
L 319.172967 134.929493 
L 319.437727 134.781354 
L 319.456638 134.645822 
L 319.589017 134.491379 
L 321.202787 133.482773 
L 321.454939 133.214862 
L 321.757521 133.189647 
L 323.314556 132.319724 
L 323.799948 131.976168 
L 324.130897 132.054965 
L 324.827465 131.701953 
L 325.341224 131.522295 
L 326.012578 131.292207 
L 326.06616 131.3647 
L 326.561007 131.052663 
L 326.800551 130.888764 
L 326.83207 130.977018 
L 328.001423 130.683891 
L 328.111739 130.809967 
L 328.515181 130.624005 
L 328.694839 130.737474 
L 330.147863 129.826576 
L 331.534696 129.23402 
L 332.483416 128.70135 
L 333.857642 127.591883 
L 336.190044 126.331126 
L 337.312118 125.395013 
L 340.126759 122.892409 
L 340.6941 123.16032 
L 340.987226 123.286396 
L 341.371757 123.384105 
L 341.765744 123.35889 
L 341.844542 123.144561 
L 342.651426 122.923928 
L 342.954008 122.791549 
L 343.55602 122.807308 
L 343.72307 122.936536 
L 343.663184 122.980662 
L 343.760893 123.204447 
L 344.33769 123.106738 
L 345.727675 122.763182 
L 346.266649 122.722207 
L 347.029407 122.640258 
L 347.744887 123.002726 
L 348.183001 123.046852 
L 348.416241 123.35889 
L 348.66524 123.607889 
L 348.977278 124.17523 
L 349.626568 124.222509 
L 349.771555 124.194141 
L 349.74634 124.118496 
L 349.071835 123.573218 
L 348.766101 122.92708 
L 348.860658 122.62765 
L 349.260948 122.180081 
L 349.585593 121.883803 
L 349.844049 121.697841 
L 350.836895 121.515031 
L 352.12602 121.767183 
L 352.412842 121.987816 
L 352.731184 123.286396 
L 352.857259 124.165774 
L 352.702817 124.430534 
L 352.857259 124.521938 
L 353.963574 124.978963 
L 354.281916 125.287849 
L 354.612864 125.313064 
L 354.962725 125.164925 
L 355.243243 124.922229 
L 355.719179 125.218507 
L 355.848407 125.114495 
L 355.80428 124.963204 
L 356.034369 124.909621 
L 356.368469 124.982115 
L 356.573343 125.171229 
L 356.793975 125.092431 
L 356.938962 124.837128 
L 356.913747 124.7079 
L 356.989393 124.745723 
L 357.11862 124.780394 
L 357.597708 124.761482 
L 357.8341 124.52509 
L 358.310036 124.632255 
L 358.429808 124.537698 
L 359.306035 124.436837 
L 359.406895 124.159471 
L 359.425807 123.841129 
L 359.662199 123.497573 
L 359.781971 123.595282 
L 359.926958 123.201295 
L 359.659047 122.104436 
L 359.781971 122.02879 
L 359.791426 121.637955 
L 358.751301 120.128198 
L 357.931809 118.826466 
L 357.78367 118.741365 
L 357.824645 118.643656 
L 357.260455 118.296948 
L 357.06819 117.805252 
L 357.424354 116.897507 
L 358.020062 116.235609 
L 358.672504 115.936179 
L 359.138984 115.983457 
L 359.725237 116.352229 
L 360.311489 116.311254 
L 360.74645 116.194634 
L 361.969385 116.37114 
L 362.36022 116.626444 
L 362.95908 117.411265 
L 363.182864 118.10153 
L 363.353067 119.274035 
L 363.498054 119.617591 
L 363.643041 119.932781 
L 364.396344 119.699541 
L 364.995204 118.927326 
L 366.281176 118.133049 
L 366.608973 117.874594 
L 367.381187 117.184329 
L 367.686921 117.105532 
L 367.998959 117.067709 
L 368.619882 116.68633 
L 369.146248 116.456242 
L 369.669462 116.333318 
L 370.999562 116.024432 
L 371.393548 116.052799 
L 373.212191 116.027584 
L 373.719646 115.895204 
L 373.738558 115.42242 
L 374.189279 114.208941 
L 374.655759 113.351626 
L 377.029135 111.419515 
L 377.514527 110.867933 
L 378.441184 110.032681 
L 378.61769 109.875087 
L 381.331471 108.604873 
L 382.377899 108.239254 
L 382.948392 108.346418 
L 383.307708 108.689975 
L 383.67648 108.589114 
L 383.982213 108.371633 
L 385.161022 108.362178 
L 385.599135 108.188823 
L 386.043552 107.70028 
L 386.027793 107.372483 
L 386.22321 106.9848 
L 386.629804 106.622332 
L 387.124652 106.414307 
L 387.625803 106.281927 
L 388.782548 105.377334 
L 389.48542 104.67131 
L 389.961356 104.516867 
L 390.311217 103.977893 
L 390.550761 103.265565 
L 391.092886 102.695072 
L 391.433291 102.10882 
L 391.650772 101.765263 
L 393.182592 100.89534 
L 393.740477 100.841758 
L 394.361401 100.889037 
L 394.878311 100.892189 
L 395.521298 101.115973 
L 395.896373 100.841758 
L 396.712714 100.558088 
L 397.160283 100.504506 
L 397.321029 100.006506 
L 397.264295 99.227988 
L 397.308422 98.811938 
L 396.810422 98.553483 
L 395.306969 97.428257 
L 395.045362 96.889283 
L 394.985476 96.649739 
L 394.947653 96.697018 
L 394.613552 96.082398 
L 394.437046 95.158893 
L 394.522147 94.894134 
L 394.623008 94.651438 
L 394.786906 94.323641 
L 394.503236 94.084097 
L 393.964262 93.746845 
L 393.289757 93.970629 
L 393.14477 93.775212 
L 392.29691 93.302428 
L 391.902923 92.684656 
L 391.934442 92.309581 
L 391.751632 91.966025 
L 391.962809 90.995241 
L 391.887164 90.617014 
L 391.868252 89.554826 
L 391.59719 89.157687 
L 390.938444 88.801523 
L 390.002331 87.912689 
L 389.343585 87.540765 
L 389.321522 87.433601 
L 389.441294 87.313829 
L 389.365649 86.875716 
L 388.896016 86.194906 
L 389.022092 86.138172 
L 389.13556 86.194906 
L 388.561916 86.005793 
L 388.817219 86.119261 
L 388.788852 86.157084 
L 387.808613 86.015249 
L 387.556461 85.637021 
L 387.518639 85.230427 
L 387.937841 84.73558 
L 388.36965 84.448757 
L 388.363346 84.291162 
L 388.571371 84.023251 
L 388.722662 83.500037 
L 389.296307 82.510342 
L 389.167079 82.195153 
L 389.245877 81.965065 
L 388.930687 81.734976 
L 388.889713 81.649875 
L 388.454751 81.621508 
L 388.171081 81.501736 
L 387.118348 81.684546 
L 386.431235 81.782255 
L 386.021489 81.662483 
L 385.570768 81.37566 
L 384.940389 80.619206 
L 384.738668 79.736676 
L 384.618896 78.857297 
L 385.318617 77.312869 
L 385.400566 77.067021 
L 385.246123 76.849541 
L 384.751276 76.714009 
L 384.410871 76.811718 
L 383.566163 76.572174 
L 383.399113 76.704553 
L 383.399113 76.704553 
" clip-path="url(#p7c25daea84)" style="fill: none; stroke: #1f77b4; stroke-width: 1.5; stroke-linecap: square"/>
   </g>
   <g id="line2d_15">
    <path d="M 383.399113 76.704553 
L 382.76243 77.171034 
L 382.141507 77.120603 
L 381.892508 76.972464 
L 381.117142 76.975616 
L 380.773585 76.603693 
L 380.477307 76.105694 
L 380.505674 75.56672 
L 380.366991 75.216859 
L 380.423725 74.722012 
L 380.51513 73.410824 
L 380.735763 73.067268 
L 381.186483 72.629154 
L 381.539496 71.960953 
L 381.362989 70.715955 
L 381.552103 70.460651 
L 381.293648 69.448893 
L 381.359838 68.995021 
L 381.867293 67.913921 
L 382.64581 67.242567 
L 383.046101 66.886403 
L 383.487366 66.586973 
L 384.124049 66.668923 
L 384.549554 66.517632 
L 384.893111 66.070063 
L 384.826921 65.650861 
L 384.716605 65.237963 
L 384.398263 64.881799 
L 384.379352 64.497268 
L 383.250974 63.655712 
L 382.59538 63.598978 
L 381.961849 63.239662 
L 381.47961 63.611585 
L 381.495369 63.948838 
L 381.362989 64.122192 
L 380.704244 64.409015 
L 380.077017 64.374344 
L 379.427726 64.144256 
L 378.750069 63.60213 
L 378.529437 63.227054 
L 378.513677 62.788941 
L 378.85093 61.73936 
L 378.863537 61.228754 
L 379.121993 60.929324 
L 378.970702 59.290339 
L 379.273284 59.088617 
L 379.210246 59.044491 
L 379.021132 58.95939 
L 379.44979 58.284884 
L 379.229157 58.373137 
L 379.162967 58.051644 
L 379.588473 57.774278 
L 379.689334 57.64505 
L 379.367841 57.730151 
L 379.197638 57.774278 
L 378.942335 57.320405 
L 378.948639 57.099772 
L 378.778436 57.024127 
L 378.579867 56.92957 
L 378.41912 56.835013 
L 377.798197 57.273126 
L 377.057502 56.901203 
L 377.000768 56.806646 
L 376.934578 56.494609 
L 376.701338 56.46309 
L 376.376693 55.999761 
L 376.0552 55.813799 
L 375.525682 55.173965 
L 375.308201 54.622384 
L 375.374391 53.333259 
L 375.487859 52.932968 
L 375.560352 52.765918 
L 375.844023 52.646146 
L 376.600478 50.338959 
L 376.269529 50.20658 
L 375.916516 50.048985 
L 375.809352 49.894542 
L 375.796745 49.443822 
L 375.629694 49.097113 
L 375.702188 48.759861 
L 375.393302 48.731494 
L 375.172669 48.473038 
L 375.002467 48.189368 
L 374.914214 47.738647 
L 374.967796 47.407698 
L 374.835417 47.092509 
L 375.005619 46.51256 
L 374.90791 46.408548 
L 374.517076 46.452674 
L 374.49186 46.364421 
L 374.788138 45.756106 
L 374.646303 45.686764 
L 374.469797 45.844359 
L 374.315354 46.216282 
L 374.359481 46.506256 
L 374.435126 46.64494 
L 374.173519 46.685914 
L 373.952886 46.575598 
L 373.940279 46.506256 
L 374.063203 46.317143 
L 373.90876 46.26356 
L 373.829963 46.332902 
L 373.801596 46.544079 
L 373.710191 46.553535 
L 373.713343 46.484193 
L 373.37609 46.039776 
L 373.347723 46.071295 
L 373.524229 46.496801 
L 373.404457 46.364421 
L 373.25947 46.361269 
L 373.284685 46.424307 
L 373.571507 46.758408 
L 373.499014 47.22804 
L 373.180672 47.284774 
L 372.553446 47.373027 
L 372.131092 47.269015 
L 371.692978 47.149243 
L 370.927068 47.089357 
L 371.084663 46.651243 
L 371.005866 46.57875 
L 370.589816 46.69537 
L 370.227348 47.105116 
L 369.760867 47.565293 
L 369.562298 47.382483 
L 368.55054 46.471585 
L 368.128186 46.358117 
L 367.425314 46.156396 
L 367.277175 46.071295 
L 366.914707 46.235193 
L 366.921011 46.061839 
L 366.857973 46.090206 
L 366.435619 46.613421 
L 366.385189 46.909699 
L 366.098366 47.108268 
L 365.458532 47.168154 
L 365.398646 47.39509 
L 365.15595 47.259559 
L 364.87228 47.108268 
L 364.79033 46.856117 
L 364.717837 46.610269 
L 363.939319 46.285624 
L 364.14104 46.143788 
L 364.544483 46.118573 
L 364.594913 46.165852 
L 364.613824 46.099662 
L 364.396344 45.661549 
L 364.021268 45.693068 
L 363.964534 45.585903 
L 363.706079 45.611118 
L 363.494902 45.856966 
L 363.526421 46.380181 
L 363.693471 46.377029 
L 364.096914 46.717433 
L 364.002357 46.9948 
L 364.037028 47.205977 
L 363.665104 47.391939 
L 363.520117 47.089357 
L 363.627281 46.975889 
L 363.504358 46.796231 
L 363.239599 46.887635 
L 362.981143 47.054686 
L 362.71008 47.09566 
L 362.606068 47.388787 
L 362.779422 47.373027 
L 362.382283 47.871026 
L 362.212081 48.0759 
L 362.968536 48.025469 
L 362.186866 48.964734 
L 361.887436 48.813443 
L 361.773968 48.589658 
L 361.556487 48.255558 
L 361.638436 47.565293 
L 361.127829 47.89309 
L 360.973387 48.268165 
L 360.692868 48.183064 
L 360.380831 48.41 
L 360.336704 48.605418 
L 360.090856 48.681063 
L 359.873376 48.696823 
L 359.759907 48.444671 
L 359.56449 48.17676 
L 359.249301 48.488798 
L 358.96563 49.235797 
L 358.007454 49.352417 
L 357.383379 48.983645 
L 357.345557 48.77562 
L 357.348708 48.473038 
L 357.43381 48.381633 
L 357.389683 48.346962 
L 357.213177 48.22719 
L 357.172202 47.889938 
L 357.102861 47.69452 
L 356.756152 47.69452 
L 357.020912 47.574748 
L 357.266759 47.436065 
L 357.355012 47.180762 
L 357.18481 47.098812 
L 356.90114 47.079901 
L 356.715178 47.237496 
L 356.261305 47.124028 
L 356.081647 47.237496 
L 355.716027 47.253255 
L 355.517458 47.350964 
L 355.265307 47.852115 
L 355.473332 48.00971 
L 355.385078 48.06014 
L 355.27161 48.173608 
L 355.328344 48.343811 
L 355.38823 48.30914 
L 355.63723 48.220887 
L 355.627774 48.287076 
L 355.385078 48.567595 
L 355.299977 48.797683 
L 355.145535 49.027772 
L 355.227484 49.00886 
L 355.378775 48.986797 
L 355.410294 49.078202 
L 355.306281 49.346113 
L 355.211724 49.487948 
L 355.227484 49.689669 
L 354.827193 50.175061 
L 354.420599 50.143542 
L 353.642081 49.475341 
L 353.667296 49.034075 
L 353.588499 48.974189 
L 353.597955 48.848114 
L 353.430904 48.778772 
L 353.25755 48.800835 
L 353.251246 48.665304 
L 353.200816 48.687367 
L 353.12517 48.822898 
L 352.917145 49.32405 
L 352.627171 49.301986 
L 352.387627 49.295683 
L 352.368716 49.002556 
L 352.30883 49.018316 
L 351.820286 49.163303 
L 351.817134 49.134936 
L 351.650084 48.920607 
L 351.618565 48.803987 
L 351.722578 48.586506 
L 351.442059 48.271317 
L 351.366414 48.406848 
L 351.407388 48.079051 
L 351.331743 47.946672 
L 351.1773 47.981343 
L 351.180452 47.94352 
L 351.221426 47.606267 
L 351.16154 47.549533 
L 351.114262 47.612571 
L 351.04492 47.754406 
L 350.843199 47.871026 
L 350.81168 48.101115 
L 350.572136 48.706278 
L 350.272706 48.674759 
L 350.499643 48.022317 
L 350.389326 47.848963 
L 349.897631 47.883634 
L 349.916542 47.779621 
L 350.061529 47.640938 
L 349.992188 47.385635 
L 349.547771 47.609419 
L 349.421695 47.748103 
L 349.352353 47.874178 
L 349.232581 48.094811 
L 349.201062 47.87733 
L 349.125417 47.934064 
L 348.677848 48.236646 
L 348.602202 48.460431 
L 348.554924 48.438367 
L 348.252342 48.545532 
L 348.287013 49.062442 
L 348.072684 49.213733 
L 347.464369 49.188518 
L 347.287863 49.254708 
L 346.862357 49.065594 
L 346.815078 48.901696 
L 346.566079 49.030923 
L 346.462066 49.245252 
L 346.231978 49.30829 
L 346.254041 49.393391 
L 345.894725 49.711733 
L 345.834839 49.522619 
L 345.321081 49.828353 
L 345.349448 49.881935 
L 345.667789 49.72434 
L 345.670941 49.705429 
L 345.756042 49.803137 
L 345.76865 50.067897 
L 345.529106 50.244403 
L 345.576384 50.45558 
L 345.715067 50.546984 
L 345.576384 50.821199 
L 345.421941 51.123781 
L 345.497587 51.1553 
L 345.57008 51.561894 
L 345.166638 52.050438 
L 345.258043 52.318349 
L 345.264347 52.441273 
L 345.339992 52.412906 
L 345.421941 52.428665 
L 345.223372 52.762766 
L 344.801018 52.775374 
L 344.864056 52.832108 
L 344.968069 52.999158 
L 345.018499 52.973943 
L 345.065777 53.081107 
L 345.141423 53.279677 
L 345.204461 53.25131 
L 345.232828 53.320651 
L 345.289562 53.629537 
L 345.532258 54.114929 
L 345.248587 54.354473 
L 345.147727 54.348169 
L 345.191853 54.442726 
L 345.289562 54.587713 
L 345.113056 54.685421 
L 344.889271 54.49946 
L 345.005891 54.698029 
L 344.728525 54.890295 
L 344.507892 55.328408 
L 344.306171 55.303193 
L 344.312475 55.489154 
L 344.611905 55.530129 
L 344.517348 55.74761 
L 344.801018 55.883141 
L 344.700158 56.094318 
L 344.432247 56.412659 
L 344.57093 56.828709 
L 344.340842 58.11153 
L 344.318778 58.533884 
L 343.842842 60.002667 
L 343.401577 60.926172 
L 343.149426 61.276032 
L 342.575781 62.183777 
L 342.279503 62.33822 
L 342.260592 63.015877 
L 342.169187 63.006422 
L 342.002136 62.918169 
L 342.0242 62.993814 
L 342.134516 63.315307 
L 341.390669 63.800699 
L 340.580632 64.547698 
L 340.32848 64.53509 
L 338.645369 64.831368 
L 338.617002 64.576065 
L 338.368002 64.557154 
L 338.4468 64.762027 
L 338.396369 65.058305 
L 337.992927 65.805304 
L 337.775446 65.880949 
L 337.195498 66.360037 
L 337.485472 66.476657 
L 337.293206 66.99672 
L 336.96541 67.501023 
L 336.388613 67.964351 
L 335.629006 67.980111 
L 335.591184 67.917073 
L 334.954501 68.106186 
L 334.352489 68.134553 
L 333.967958 68.207047 
L 333.662225 68.386705 
L 333.309212 68.490717 
L 332.316366 68.613641 
L 331.726962 68.232262 
L 331.808911 67.872946 
L 331.512633 67.809908 
L 331.386557 67.831972 
L 331.065064 67.551453 
L 330.973659 67.365491 
L 331.080823 66.917922 
L 330.888558 66.665771 
L 330.664773 65.247418 
L 330.608039 65.275786 
L 329.955597 64.560306 
L 329.902015 64.582369 
L 329.867344 64.746267 
L 330.122647 64.995267 
L 329.952445 64.954292 
L 329.574218 65.039393 
L 329.120345 65.31676 
L 328.883953 65.96605 
L 328.701143 65.843126 
L 328.644409 65.739114 
L 328.363891 65.780089 
L 328.190536 65.943987 
L 328.149562 65.594127 
L 328.206296 65.439684 
L 328.335524 65.162317 
L 328.187385 64.897558 
L 327.932081 64.78409 
L 328.099131 64.311306 
L 328.02979 64.308154 
L 327.516031 64.818761 
L 327.386803 65.146558 
L 327.040095 65.515329 
L 326.658716 65.723354 
L 326.43178 66.079518 
L 326.456995 66.180379 
L 326.378197 66.457746 
L 326.434931 66.735112 
L 326.397109 66.807606 
L 325.974755 66.86434 
L 325.293946 66.536543 
L 325.227756 66.309607 
L 324.991364 66.186683 
L 323.342923 66.337974 
L 323.093924 66.133101 
L 322.926873 66.08267 
L 322.961544 66.003873 
L 323.226303 65.754873 
L 322.926873 65.354583 
L 322.595924 65.345127 
L 322.460393 65.124495 
L 322.211393 65.045697 
L 322.069558 65.13395 
L 322.246064 65.411317 
L 322.091621 65.502722 
L 321.413964 65.55 
L 321.650356 66.161468 
L 321.470698 66.829669 
L 321.212243 67.173226 
L 321.256369 67.308757 
L 321.776432 66.936834 
L 321.785888 67.012479 
L 321.975001 67.34658 
L 321.842622 67.52939 
L 321.807951 67.639706 
L 321.949786 67.854035 
L 321.83947 68.607338 
L 321.587318 68.985565 
L 321.467546 69.436286 
L 320.553497 70.385006 
L 320.632294 70.567816 
L 320.607079 70.883005 
L 320.503067 71.005929 
L 320.607079 71.491321 
L 320.799345 71.838029 
L 320.588168 72.276142 
L 320.178422 72.503079 
L 319.746612 72.477863 
L 319.125689 72.102788 
L 318.593019 71.648915 
L 318.249462 71.595333 
L 317.801894 71.32427 
L 317.943729 71.062663 
L 317.855476 70.816815 
L 317.587565 70.621398 
L 317.401603 70.778993 
L 317.401603 71.566966 
L 317.136844 71.472409 
L 316.925667 71.570118 
L 316.471794 71.497624 
L 316.071504 71.355789 
L 316.175516 71.232865 
L 315.794137 70.930283 
L 315.623935 71.018537 
L 315.494707 71.245473 
L 316.021073 71.983016 
L 315.686973 72.534598 
L 315.226796 72.818268 
L 314.681518 73.659824 
L 314.902151 74.167279 
L 314.763468 74.517139 
L 314.460886 74.78505 
L 314.16776 74.838632 
L 313.877785 74.397367 
L 313.732798 74.138912 
L 313.338812 73.874153 
L 312.402699 73.30366 
L 312.330205 73.328875 
L 312.059143 73.240622 
L 311.958282 73.250078 
L 311.775472 73.133457 
L 311.592662 73.199647 
L 311.702978 73.341482 
L 311.917307 73.294204 
L 311.851118 73.347786 
L 311.819599 73.432887 
L 312.185218 73.997076 
L 311.482346 74.097937 
L 311.501257 74.280747 
L 312.096965 74.220861 
L 312.267168 74.346937 
L 312.106421 74.838632 
L 311.743953 75.232619 
L 311.12303 75.462707 
L 310.896094 75.56672 
L 311.116726 75.891365 
L 311.113574 76.219162 
L 309.890639 77.662729 
L 308.97659 77.883362 
L 308.938767 77.965311 
L 309.222438 78.12921 
L 308.979742 78.958158 
L 308.683464 79.289107 
L 308.415553 79.623207 
L 307.822997 79.824929 
L 307.192618 79.884815 
L 306.53072 80.338687 
L 306.505505 80.288257 
L 306.483442 80.023498 
L 305.635582 79.802865 
L 305.544177 79.862751 
L 305.329849 80.385966 
L 304.809786 80.14327 
L 304.393736 80.187396 
L 303.520661 80.31032 
L 303.277966 80.256738 
L 303.142434 79.884815 
L 303.293725 79.783954 
L 303.259054 79.481372 
L 303.095156 79.465613 
L 303.066789 79.333233 
L 302.924953 79.26074 
L 303.01951 79.172486 
L 302.887131 78.633513 
L 303.082548 78.523196 
L 303.0857 78.390817 
L 302.906042 78.444399 
L 302.943865 78.365602 
L 303.000599 78.208007 
L 301.790272 77.240375 
L 301.812335 77.123755 
L 301.55388 76.959857 
L 301.405741 76.966161 
L 301.134678 76.918882 
L 301.115766 77.117452 
L 301.027513 77.271894 
L 300.88883 77.29711 
L 300.683957 77.719463 
L 300.397134 77.933792 
L 300.409742 77.81402 
L 300.393983 77.596539 
L 300.167046 77.684792 
L 299.981084 77.990526 
L 299.710022 78.315171 
L 299.40744 78.488525 
L 299.473629 78.586234 
L 299.328642 79.074778 
L 299.098554 79.651574 
L 299.454718 79.771346 
L 299.385376 79.82808 
L 299.375921 80.029802 
L 299.372769 80.20946 
L 299.375921 80.521497 
L 299.536667 80.467915 
L 299.552427 80.50889 
L 299.527212 80.824079 
L 299.558731 80.997433 
L 299.687958 81.038408 
L 299.665895 81.126661 
L 299.486237 81.243281 
L 299.52406 81.2748 
L 299.899135 81.429243 
L 299.962173 81.646723 
L 299.880224 82.012343 
L 299.713173 82.034406 
L 299.451566 81.939849 
L 299.303427 82.094292 
L 299.133225 82.422089 
L 299.240389 82.422089 
L 299.171048 82.519798 
L 299.148984 82.948456 
L 299.048124 83.361354 
L 298.474479 83.878264 
L 298.401985 83.774252 
L 298.386226 83.572531 
L 298.301125 83.912935 
L 298.175049 84.360504 
L 298.285365 84.284859 
L 298.386226 84.064226 
L 298.379922 84.275403 
L 298.354707 84.77025 
L 298.449264 84.808073 
L 298.424049 84.874263 
L 298.20972 85.331288 
L 297.595101 85.205212 
L 297.251544 84.798617 
L 297.097101 84.300618 
L 297.141228 83.414936 
L 296.923747 83.607201 
L 296.554976 84.05477 
L 296.365862 85.403781 
L 296.466723 85.71897 
L 296.580191 85.933299 
L 296.766152 85.886021 
L 297.084494 86.188603 
L 297.528911 86.254792 
L 298.121467 85.583439 
L 298.206568 85.599199 
L 298.253846 86.031008 
L 298.269606 86.324134 
L 298.130923 86.837893 
L 297.724328 87.105804 
L 297.724328 87.361107 
L 298.162442 87.279158 
L 298.222328 87.657385 
L 297.948113 88.1806 
L 297.74324 88.48003 
L 297.393379 89.598952 
L 297.052975 89.873167 
L 295.861559 90.178901 
L 294.619713 90.213571 
L 294.052372 89.702965 
L 293.872714 89.504395 
L 293.926296 89.472876 
L 293.954663 89.406687 
L 292.608804 88.795219 
L 290.966667 87.802372 
L 290.566377 87.351652 
L 290.474972 87.600651 
L 290.18815 87.553373 
L 290.175542 87.386322 
L 290.074681 87.228728 
L 290.024251 87.276006 
L 289.879264 87.276006 
L 289.860353 86.727577 
L 289.753188 86.472273 
L 289.652328 86.374564 
L 289.778403 86.352501 
L 289.809922 86.213818 
L 289.929694 85.895477 
L 290.036859 85.451059 
L 290.014795 85.309224 
L 290.159782 84.962516 
L 290.134567 84.905782 
L 289.869808 85.217819 
L 289.693302 85.4353 
L 289.535707 85.425844 
L 289.794163 85.006642 
L 290.065226 84.83644 
L 290.065226 84.729276 
L 290.125112 84.596896 
L 289.850897 84.618959 
L 289.740581 84.83644 
L 289.58929 84.795466 
L 289.504189 84.96882 
L 289.485277 84.779706 
L 289.447454 84.48658 
L 290.074681 83.979125 
L 289.942302 83.982277 
L 289.787859 84.076834 
L 289.794163 83.922391 
L 289.819378 83.774252 
L 289.816226 83.613505 
L 289.734277 83.468518 
L 289.469518 83.60405 
L 289.542011 83.512645 
L 289.535707 83.455911 
L 289.119657 83.698606 
L 288.34114 84.559073 
L 287.80847 85.406933 
L 287.42709 85.696907 
L 287.553166 85.838742 
L 287.241129 85.624414 
L 286.881813 85.605502 
L 287.01104 85.454211 
L 287.086686 85.359655 
L 286.979521 85.365958 
L 286.935395 85.211516 
L 286.746281 85.359655 
L 286.563471 85.558224 
L 286.336535 85.652781 
L 286.141118 85.807224 
L 286.223067 85.794616 
L 286.620205 85.876565 
L 286.746281 86.031008 
L 286.535104 86.169691 
L 285.598992 86.289463 
L 285.375207 86.576286 
L 285.24598 86.768551 
L 284.833082 87.020703 
L 284.754284 87.276006 
L 284.811018 87.257095 
L 284.974917 87.600651 
L 284.807866 87.726727 
L 284.29726 87.783461 
L 284.445399 87.821284 
L 284.618753 87.934752 
L 285.283802 87.900081 
L 285.460308 88.353954 
L 284.990676 89.293218 
L 284.353994 89.882623 
L 284.218462 90.074888 
L 284.026197 90.122167 
L 283.874906 90.159989 
L 283.887513 90.267154 
L 284.038804 90.304976 
L 284.060867 90.446812 
L 283.465159 90.787216 
L 283.291805 90.973178 
L 283.08378 90.906988 
L 281.804111 91.215874 
L 281.7852 91.39238 
L 281.662276 91.57519 
L 281.463707 91.694962 
L 281.277745 91.966025 
L 281.277745 92.375771 
L 281.227315 92.769758 
L 280.388911 92.716175 
L 280.325873 92.621619 
L 280.398367 92.609011 
L 280.436189 92.432505 
L 280.366848 92.331644 
L 280.335329 92.3411 
L 280.177734 92.281214 
L 280.00438 92.085797 
L 279.57257 91.846253 
L 279.487469 91.688658 
L 279.184887 91.726481 
L 279.10609 91.720177 
L 278.34018 92.117315 
L 278.144762 92.054278 
L 277.816965 92.177201 
L 277.631004 92.218176 
L 277.422979 92.388378 
L 277.003777 93.236238 
L 276.921827 93.135377 
L 276.748473 93.103858 
L 276.716954 93.349706 
L 276.647613 93.926503 
L 276.890308 93.998996 
L 277.114093 93.998996 
L 277.066815 94.13768 
L 276.080272 94.484388 
L 275.856487 94.556881 
L 275.534994 94.840552 
L 275.629551 94.85316 
L 275.982563 95.013906 
L 275.932133 95.064336 
L 275.635855 95.234539 
L 275.891158 95.193564 
L 275.919525 95.281817 
L 275.563361 95.433108 
L 275.582272 95.48669 
L 275.516083 95.688411 
L 276.017234 97.560637 
L 275.494019 97.929408 
L 275.31121 97.702472 
L 274.791147 97.012207 
L 274.633552 97.147738 
L 274.608337 97.428257 
L 274.718653 97.64889 
L 274.494869 97.746598 
L 274.23011 97.689864 
L 274.078819 97.875826 
L 274.104034 98.046028 
L 273.467351 98.458926 
L 272.991415 98.972685 
L 272.959897 99.300482 
L 272.988264 99.905646 
L 272.742416 100.135734 
L 272.600581 100.167253 
L 271.66762 99.984443 
L 271.743265 99.820545 
L 271.532089 99.454925 
L 271.361886 99.637735 
L 270.699988 99.751203 
L 270.580216 99.817393 
L 270.394255 99.618823 
L 270.265027 99.603064 
L 270.321761 99.543178 
L 270.381647 99.48014 
L 270.293394 99.432862 
L 269.997116 99.467532 
L 269.98766 99.284723 
L 269.735509 98.588154 
L 269.297396 98.506205 
L 269.076763 98.644888 
L 269.114586 98.562939 
L 269.458142 97.834851 
L 269.612585 97.670953 
L 269.735509 97.497599 
L 269.782787 97.163498 
L 269.681927 97.302181 
L 269.098826 98.285572 
L 269.045244 98.1658 
L 268.912865 97.970383 
L 268.994814 97.834851 
L 269.03894 97.617371 
L 268.852979 97.21708 
L 268.512574 97.248599 
L 268.320308 97.176105 
L 267.680474 97.065789 
L 267.579613 97.245447 
L 267.897955 97.560637 
L 268.055549 97.74975 
L 268.172169 98.061788 
L 268.723751 99.038875 
L 268.487359 99.23114 
L 268.153258 99.190166 
L 268.187929 99.111368 
L 268.235207 98.969533 
L 268.254119 98.903343 
L 267.910562 98.238294 
L 267.765575 98.112218 
L 267.793942 97.869522 
L 267.30855 97.554333 
L 267.002817 97.853763 
L 266.703387 98.046028 
L 266.5584 97.875826 
L 266.489058 97.737143 
L 266.123438 97.803332 
L 264.314251 98.206775 
L 264.531732 98.752052 
L 263.560948 99.461229 
L 263.636594 99.581001 
L 263.545189 99.593608 
L 263.475847 99.669254 
L 263.352923 99.751203 
L 263.154354 99.71338 
L 263.044038 99.760659 
L 263.050342 99.877279 
L 262.79819 99.870975 
L 263.450632 99.908798 
L 263.371835 100.088456 
L 262.974696 100.249202 
L 263.103924 100.570695 
L 262.662659 100.769265 
L 262.022824 100.740898 
L 261.638293 100.854366 
L 261.619382 100.769265 
L 261.310496 100.706227 
L 261.140294 100.889037 
L 260.979547 100.536025 
L 260.853471 100.690467 
L 260.875535 100.863822 
L 260.695877 101.358669 
L 260.806193 101.450074 
L 260.821952 101.37758 
L 261.411357 100.964682 
L 261.439724 101.018264 
L 261.376686 101.166403 
L 261.41766 101.185315 
L 261.395597 101.295631 
L 261.272673 101.528871 
L 261.439724 101.699073 
L 261.562648 101.765263 
L 261.553192 102.058389 
L 260.954332 102.238047 
L 260.46894 102.004807 
L 260.248308 101.954377 
L 260.156903 102.118275 
L 259.88584 102.285326 
L 259.876384 102.171858 
L 259.737701 102.004807 
L 259.6526 102.099364 
L 259.542283 102.282174 
L 259.293284 102.704528 
L 259.107322 102.654097 
L 258.489551 102.75811 
L 258.319349 103.202527 
L 258.694424 103.593362 
L 259.047436 103.577602 
L 259.167208 103.662703 
L 259.085259 104.031475 
L 258.546285 104.321449 
L 258.650297 104.299386 
L 258.719639 104.393943 
L 258.555741 104.570449 
L 258.196425 104.60512 
L 258.177513 104.334057 
L 258.17121 104.154399 
L 257.994703 103.930614 
L 258.123931 103.555539 
L 257.887539 103.410552 
L 257.581805 103.404248 
L 257.165755 103.445223 
L 257.131084 103.331755 
L 257.282375 102.944072 
L 257.231945 102.903097 
L 256.235947 103.454678 
L 256.163453 103.687919 
L 256.217035 103.870728 
L 256.012162 104.233196 
L 256.109871 104.283627 
L 256.796984 104.088209 
L 256.604718 104.311994 
L 256.522769 104.497955 
L 256.179212 104.545234 
L 255.980643 104.529474 
L 255.901846 104.832056 
L 256.00901 105.178765 
L 255.936517 105.30484 
L 256.015314 105.594815 
L 255.674909 105.746105 
L 255.104417 106.02032 
L 255.088657 106.20313 
L 254.924759 106.348117 
L 254.76086 106.31975 
L 254.764012 106.297687 
L 254.861721 106.13694 
L 254.653696 106.256712 
L 254.609569 106.448978 
L 254.540228 106.597117 
L 255.356568 106.489952 
L 255.315593 106.540383 
L 255.274619 106.754712 
L 255.186366 106.880787 
L 255.180062 106.86818 
L 254.984645 106.880787 
L 254.439367 106.940673 
L 254.06114 107.132939 
L 254.013861 107.344116 
L 253.859418 107.504862 
L 253.808988 107.46704 
L 253.660849 107.734951 
L 253.774317 107.712887 
L 253.831051 107.687672 
L 253.837355 107.760166 
L 253.764862 107.908305 
L 253.720735 108.103722 
L 253.805836 108.258165 
L 254.089507 108.179368 
L 254.158848 108.497709 
L 254.130481 108.743557 
L 253.739646 109.235252 
L 253.411849 109.251012 
L 253.27947 109.140695 
L 253.292077 109.042987 
L 253.191217 109.090265 
L 253.068293 109.13124 
L 252.882331 108.957886 
L 252.989496 108.718342 
L 253.077749 108.418912 
L 253.134483 108.28338 
L 253.134483 108.188823 
L 253.225888 108.062748 
L 253.175457 107.977646 
L 253.169154 108.05014 
L 253.039926 108.277076 
L 253.061989 108.390545 
L 252.898091 108.541835 
L 252.762559 108.705734 
L 252.891787 108.406304 
L 252.674306 108.608025 
L 252.466281 109.039835 
L 252.349661 109.210037 
L 252.062839 109.2321 
L 252.135332 109.036683 
L 252.242497 108.58281 
L 252.08175 108.636392 
L 251.832751 109.068202 
L 251.939915 109.011468 
L 251.9147 109.137543 
L 251.936763 109.165911 
L 251.895788 109.165911 
L 251.668852 109.339265 
L 251.68146 109.4811 
L 251.621574 109.544138 
L 251.672004 109.720644 
L 251.744498 109.657606 
L 251.89894 109.585112 
L 251.911548 109.622935 
L 252.069143 109.701733 
L 251.886333 110.07996 
L 251.766561 110.527529 
L 251.586903 110.606326 
L 251.690915 110.864781 
L 251.567991 111.091718 
L 251.457675 111.454186 
L 250.991195 111.958489 
L 249.982589 113.102626 
L 249.995196 113.023829 
L 249.888032 113.102626 
L 249.708374 113.238158 
L 249.090603 113.685727 
L 248.93616 113.918967 
L 248.655641 114.00722 
L 248.031566 113.8906 
L 247.549326 113.506069 
L 247.640731 113.272828 
L 247.520959 113.247613 
L 247.108061 113.045892 
L 246.991441 113.036436 
L 246.931555 112.919816 
L 246.745593 112.897753 
L 246.597454 112.74331 
L 246.54072 112.541589 
L 246.430404 112.453336 
L 246.408341 112.248463 
L 246.304328 112.188577 
L 246.181404 112.201185 
L 246.20662 112.472247 
L 246.12467 112.585716 
L 246.156189 112.878842 
L 245.579393 112.869386 
L 245.692861 112.733855 
L 245.834696 112.522678 
L 245.818937 112.406058 
L 245.762203 112.431273 
L 245.336697 112.598323 
L 245.071938 112.453336 
L 245.138128 112.257919 
L 245.012052 112.32726 
L 244.772508 112.333564 
L 244.596002 112.150754 
L 243.930952 111.892299 
L 243.74499 111.61178 
L 244.000294 110.91206 
L 243.808028 110.672516 
L 243.852155 110.461339 
L 244.331243 110.127238 
L 244.306027 109.834112 
L 243.959319 109.884542 
L 243.975079 109.591416 
L 243.663041 109.641847 
L 243.199713 109.853023 
L 243.016903 109.54729 
L 243.391978 109.285682 
L 243.990838 109.093417 
L 244.06018 108.973645 
L 244.268205 108.122634 
L 244.047572 107.927216 
L 243.852155 107.861026 
L 243.385674 107.577356 
L 243.070485 107.703432 
L 242.919194 107.693976 
L 242.714321 108.05014 
L 242.38022 108.236102 
L 242.16274 108.551291 
L 242.191107 108.359026 
L 242.140676 108.040684 
L 241.819183 107.678217 
L 242.08079 107.485951 
L 242.001993 107.422913 
L 241.844398 107.404002 
L 241.355855 107.763318 
L 241.396829 107.772773 
L 241.31488 108.037532 
L 241.535513 108.188823 
L 241.440956 108.248709 
L 239.921743 108.88224 
L 239.593946 109.503163 
L 239.603402 109.859327 
L 239.619161 110.880541 
L 239.63492 110.867933 
L 239.776756 110.823807 
L 239.846097 110.893148 
L 239.259845 111.214642 
L 239.307123 111.3943 
L 240.079338 111.545591 
L 240.381919 111.463641 
L 240.53321 111.841869 
L 240.369312 112.119235 
L 240.460717 112.216944 
L 240.429198 112.270526 
L 239.319731 112.989158 
L 239.370161 112.979702 
L 239.745237 113.086867 
L 239.382769 113.3926 
L 239.288212 113.547043 
L 239.508845 114.149055 
L 239.250389 114.391751 
L 239.036061 114.379143 
L 239.010845 114.234156 
L 238.626314 114.476852 
L 238.531758 114.558801 
L 238.51915 114.457941 
L 238.358403 114.394903 
L 238.081037 114.432726 
L 237.652379 114.672269 
L 237.346645 115.041041 
L 237.201658 115.129294 
L 237.472721 115.085168 
L 238.162986 114.820408 
L 237.895075 115.047345 
L 237.781607 115.148205 
L 237.838341 115.186028 
L 238.128315 115.267977 
L 238.131467 115.747065 
L 237.977024 116.235609 
L 237.756392 116.185179 
L 237.286759 115.769129 
L 237.157532 115.92042 
L 237.050367 116.08747 
L 236.864406 116.333318 
L 237.624012 116.257672 
L 237.759543 116.446786 
L 237.983328 116.352229 
L 238.166138 116.645355 
L 238.058973 116.821861 
L 237.463265 117.20324 
L 237.062975 116.922722 
L 236.902228 116.859684 
L 236.72257 116.891203 
L 236.95581 117.114987 
L 237.148076 117.155962 
L 237.176443 117.404962 
L 235.808521 118.189783 
L 235.414534 118.51758 
L 235.130864 118.880048 
L 235.222269 118.861137 
L 235.439749 118.961997 
L 235.546914 119.255123 
L 235.181294 119.409566 
L 234.938598 119.274035 
L 234.837738 119.507275 
L 234.960662 119.567161 
L 234.916535 119.623895 
L 234.554067 119.935933 
L 234.613953 120.118742 
L 234.951206 120.358286 
L 234.809371 121.259728 
L 234.806219 121.637955 
L 234.497333 121.738816 
L 234.383865 121.622196 
L 234.229422 121.54655 
L 233.665233 121.858588 
L 233.605347 122.233663 
L 233.501335 122.113891 
L 233.416233 122.069765 
L 233.413082 122.126499 
L 233.513942 122.552005 
L 233.321677 122.665473 
L 233.271246 122.864042 
L 233.09474 122.952295 
L 232.97812 122.756878 
L 232.845741 122.592979 
L 232.789007 122.706447 
L 232.67869 123.141409 
L 232.552614 123.213902 
L 233.091588 123.570066 
L 233.006487 123.77494 
L 232.56207 124.313913 
L 232.004185 124.559761 
L 231.512489 124.733115 
L 231.178389 124.947444 
L 230.544858 125.250026 
L 229.851441 124.370648 
L 229.611897 124.373799 
L 229.076075 124.569217 
L 229.069772 124.714204 
L 228.723063 124.900166 
L 228.688392 124.793001 
L 228.537101 124.799305 
L 228.281798 124.780394 
L 227.714457 124.537698 
L 227.500128 124.421078 
L 227.285799 124.436837 
L 227.197546 124.52509 
L 226.292953 124.739419 
L 226.359143 124.811913 
L 226.296105 124.931685 
L 225.958852 124.972659 
L 225.801257 124.953748 
L 224.89036 125.325671 
L 224.70755 125.281545 
L 224.464854 125.325671 
L 224.014133 125.196444 
L 223.714703 124.928533 
L 223.572868 124.912773 
L 223.500375 124.950596 
L 223.512982 124.843432 
L 223.437337 124.616495 
L 223.522438 124.509331 
L 223.317565 124.326521 
L 222.863692 124.011332 
L 222.819566 123.724509 
L 222.866844 123.339978 
L 222.624148 123.144561 
L 222.022136 123.541699 
L 221.722706 123.70875 
L 221.126998 124.695293 
L 221.149062 125.133406 
L 221.086024 125.291001 
L 221.51153 126.211354 
L 221.621846 126.312214 
L 221.420125 127.459504 
L 221.234163 127.821972 
L 219.516381 128.821122 
L 219.352482 128.707654 
L 219.434431 128.609945 
L 219.361938 128.606793 
L 219.053052 128.672983 
L 218.920673 128.83373 
L 218.923824 128.912527 
L 218.637002 128.966109 
L 217.949889 128.748628 
L 217.962497 128.657223 
L 218.075965 128.439743 
L 218.044446 128.411376 
L 217.770231 128.679287 
L 217.754472 128.644616 
L 217.625244 128.688742 
L 217.647307 128.742325 
L 217.555902 128.789603 
L 217.240713 128.641464 
L 216.764777 128.679287 
L 216.389702 128.537451 
L 216.373942 128.40192 
L 216.496866 128.083579 
L 216.522081 127.910225 
L 216.556752 127.944895 
L 216.60403 127.784149 
L 216.509474 127.831427 
L 216.26993 127.815668 
L 216.336119 127.654921 
L 216.493714 127.607643 
L 216.591423 127.427985 
L 216.60403 127.201048 
L 216.698587 127.065517 
L 216.689132 126.646315 
L 216.597727 126.882707 
L 216.547296 126.923682 
L 216.531537 126.8701 
L 216.500018 126.784998 
L 216.418069 126.844884 
L 215.967348 127.147466 
L 214.987109 128.048908 
L 214.936678 128.0363 
L 214.999716 127.948047 
L 214.8894 127.888161 
L 214.561603 128.086731 
L 214.479654 128.379857 
L 214.268477 128.720261 
L 214.388249 128.761236 
L 214.615185 128.622553 
L 214.596274 128.786451 
L 214.659312 128.789603 
L 214.952438 128.754932 
L 214.965046 128.799059 
L 215.075362 129.164678 
L 214.845274 129.24978 
L 214.693983 129.28445 
L 214.83897 129.353792 
L 214.942982 129.460956 
L 214.826362 129.842336 
L 214.596274 129.889614 
L 214.309452 130.557816 
L 214.233806 130.668132 
L 214.032085 130.857246 
L 213.865035 130.923435 
L 213.543541 130.841486 
L 213.467896 131.077878 
L 213.448984 131.645219 
L 213.278782 131.66413 
L 213.124339 131.582181 
L 212.582214 131.610548 
L 212.32691 131.701953 
L 212.405708 131.503384 
L 212.336366 131.475017 
L 211.850974 131.802814 
L 211.954987 131.900522 
L 212.371037 131.944649 
L 212.232353 132.199952 
L 212.15986 132.231471 
L 212.415163 132.193649 
L 212.553847 132.370155 
L 212.465594 132.824027 
L 212.128341 133.038356 
L 212.077911 133.126609 
L 211.359279 133.372457 
L 211.289937 133.552115 
L 211.32776 133.99338 
L 211.122887 134.59224 
L 210.646951 135.159581 
L 210.227749 135.531504 
L 208.850371 136.20601 
L 208.011967 136.521199 
L 205.455781 137.80402 
L 205.272971 137.785109 
L 205.285579 137.718919 
L 205.197326 137.595995 
L 205.168959 137.63697 
L 204.683567 137.775653 
L 203.441721 138.144425 
L 203.448025 138.22007 
L 203.394442 138.210614 
L 203.315645 138.194855 
L 203.321949 138.308323 
L 203.334556 138.349298 
L 203.217936 138.481677 
L 203.22424 138.617209 
L 203.170658 138.620361 
L 203.101316 138.595145 
L 203.091861 138.661335 
L 203.451176 139.11836 
L 203.630834 139.244436 
L 204.280125 139.849599 
L 204.368378 140.334991 
L 204.12253 141.059927 
L 203.425961 142.182001 
L 202.663203 142.91324 
L 202.237697 143.218974 
L 202.130533 143.322987 
L 201.689268 143.496341 
L 201.468635 143.770556 
L 201.222787 143.849353 
L 201.046281 143.940758 
L 200.529371 144.155087 
L 200.066042 144.432453 
L 199.467182 144.41039 
L 199.098411 144.318985 
L 198.606715 144.404086 
L 198.319893 144.706668 
L 198.228488 144.936756 
L 197.963729 145.069136 
L 197.368021 145.387477 
L 196.756553 145.617565 
L 196.624174 145.784616 
L 195.792074 146.137628 
L 195.5021 146.235337 
L 195.442214 146.408691 
L 195.155391 146.418147 
L 194.493494 146.348805 
L 194.222431 146.156539 
L 193.478584 146.087198 
L 193.399786 145.831894 
L 193.270559 145.800375 
L 193.103508 145.79092 
L 191.905788 146.44021 
L 191.669396 146.298375 
L 191.202916 145.916995 
L 191.338448 145.686907 
L 191.269106 145.368566 
L 191.001195 145.327591 
L 190.616664 145.138478 
L 190.150183 145.195212 
L 190.118665 145.412692 
L 190.345601 145.579743 
L 190.490588 145.551376 
L 190.518955 145.705819 
L 190.301474 146.068286 
L 190.796322 146.522159 
L 190.730132 146.645083 
L 190.247892 147.250247 
L 189.504045 147.329044 
L 189.737285 147.524461 
L 189.790868 147.600107 
L 189.144729 148.47003 
L 188.886274 148.539371 
L 188.381971 147.893233 
L 188.265351 148.041372 
L 188.47968 148.45427 
L 188.892578 148.908143 
L 188.602603 149.358864 
L 188.523806 149.276915 
L 188.441857 149.516458 
L 188.476528 149.664597 
L 188.255895 150.345407 
L 187.839845 150.88438 
L 187.38282 151.224785 
L 185.895126 151.729088 
L 185.759595 151.558886 
L 185.759595 151.221633 
L 185.605152 151.221633 
L 185.50114 151.246848 
L 185.312026 151.44857 
L 183.534358 151.820493 
L 183.442953 152.271214 
L 183.026903 152.718783 
L 182.569878 152.819643 
L 182.487929 152.466631 
L 182.358701 152.44772 
L 181.851246 152.444568 
L 181.580183 152.444568 
L 181.428893 152.485543 
L 181.34064 152.441416 
L 180.981324 152.718783 
L 180.871007 152.73139 
L 180.826881 152.643137 
L 180.74178 152.693568 
L 180.180743 152.939415 
L 179.912832 153.115921 
L 179.320275 153.219934 
L 179.156377 153.245149 
L 178.39677 153.509908 
L 178.28015 153.796731 
L 178.119404 154.089857 
L 177.889316 154.319945 
L 177.101342 154.739147 
L 177.167532 154.792729 
L 177.173836 154.852615 
L 176.779849 154.962931 
L 176.489875 155.029121 
L 176.146318 155.445171 
L 175.812217 155.385285 
L 175.60104 154.707628 
L 175.48442 154.5784 
L 175.26694 154.635134 
L 175.222813 154.887286 
L 174.772092 155.057488 
L 174.690143 155.019666 
L 174.381257 155.211931 
L 174.296156 155.114222 
L 174.188992 154.903045 
L 173.880106 154.817944 
L 172.972361 154.912501 
L 172.029944 155.479842 
L 171.888109 155.564943 
L 171.613894 155.435716 
L 171.4563 155.59331 
L 171.497274 155.798183 
L 170.74082 156.154347 
L 170.028492 156.195322 
L 169.035645 156.14174 
L 168.064862 156.094461 
L 167.554255 156.02512 
L 166.539345 155.624829 
L 165.98146 155.687867 
L 165.089474 155.697323 
L 164.043045 155.423108 
L 163.526134 155.139437 
L 163.141603 154.783273 
L 163.00292 154.562641 
L 162.65306 154.669805 
L 162.435579 154.591008 
L 162.366237 154.628831 
L 162.006921 154.351464 
L 161.811504 154.250603 
L 161.307201 154.260059 
L 161.385998 154.187565 
L 161.363935 154.039426 
L 160.979404 154.001604 
L 160.579113 154.231692 
L 160.030684 154.537426 
L 159.910912 154.382983 
L 159.892 154.04573 
L 160.030684 153.935414 
L 160.311202 153.768364 
L 160.342721 153.342858 
L 160.503468 153.074947 
L 160.667366 152.419353 
L 160.68943 151.609316 
L 160.547594 151.603012 
L 160.229253 151.744848 
L 160.100025 151.659746 
L 160.027532 151.54943 
L 160.087418 151.495848 
L 160.200886 151.338253 
L 159.964494 151.041975 
L 159.992861 150.726786 
L 159.936127 150.71733 
L 159.59257 150.518761 
L 159.356178 150.698419 
L 159.195432 151.19957 
L 159.460191 151.536823 
L 159.498014 151.836253 
L 159.579963 152.094708 
L 159.794292 152.674656 
L 159.696583 152.753454 
L 159.532684 152.438264 
L 159.47595 152.26491 
L 159.088267 152.526517 
L 158.965343 152.413049 
L 158.265623 152.372074 
L 158.149003 152.245999 
L 158.161611 152.03167 
L 158.092269 152.205024 
L 157.814902 152.49815 
L 157.698282 152.38153 
L 157.783383 152.141986 
L 157.657307 152.0821 
L 157.430371 152.116771 
L 157.102574 152.094708 
L 157.017473 151.855164 
L 156.437524 152.138834 
L 156.216892 152.362619 
L 156.141246 152.466631 
L 155.819753 152.586403 
L 155.592817 152.091556 
L 155.290235 152.160898 
L 155.220893 152.652593 
L 155.164159 152.838555 
L 154.789084 153.459478 
L 154.719742 153.204175 
L 154.713438 153.027668 
L 154.688223 152.873226 
L 154.618882 152.643137 
L 154.426616 152.510758 
L 154.246958 152.61477 
L 154.309996 152.876378 
L 154.25011 153.137985 
L 154.256414 153.317643 
L 154.190224 153.478389 
L 154.751261 153.554035 
L 154.726046 153.658047 
L 154.672464 153.790427 
L 154.404553 154.329401 
L 154.508565 154.253755 
L 154.521173 154.316793 
L 154.59997 154.282122 
L 154.697679 154.379831 
L 154.644097 154.76121 
L 154.606274 154.918805 
L 154.741805 155.01021 
L 155.145248 154.840008 
L 155.911158 155.287577 
L 155.835513 155.36007 
L 155.523475 155.533424 
L 154.609426 155.315944 
L 154.30054 155.12683 
L 153.18477 154.824248 
L 153.074453 154.972387 
L 152.563847 154.887286 
L 152.387341 155.205627 
L 152.295936 155.454627 
L 152.617429 155.952626 
L 153.269871 156.236297 
L 153.313997 156.463233 
L 153.247808 156.652347 
L 152.664707 156.986447 
L 152.661555 156.97384 
L 152.63634 156.652347 
L 152.223442 156.390739 
L 152.050088 156.501056 
L 152.289632 157.289029 
L 152.113126 157.50651 
L 151.668709 157.166105 
L 150.950077 157.235447 
L 150.540331 157.055789 
L 150.111673 157.251207 
L 149.771268 157.260662 
L 149.698775 157.326852 
L 149.604218 157.411953 
L 149.377282 157.582155 
L 149.254358 157.62313 
L 149.377282 157.683016 
L 149.887889 157.736598 
L 150.221989 157.733446 
L 150.234597 157.834307 
L 150.067547 157.976142 
L 149.771268 158.244053 
L 149.512813 158.162104 
L 149.506509 158.281876 
L 149.509661 158.474141 
L 149.225991 158.628584 
L 149.0747 158.723141 
L 148.986447 159.03833 
L 148.973839 158.965837 
L 148.819396 158.997356 
L 148.620827 159.22114 
L 148.699624 159.394494 
L 148.286726 159.662405 
L 148.299334 159.879886 
L 147.911651 160.141493 
L 147.889588 160.220291 
L 148.189018 160.374734 
L 148.390739 160.381037 
L 148.378131 160.715138 
L 147.952626 161.310846 
L 147.719385 161.594517 
L 147.788727 161.875035 
L 147.719385 161.871883 
L 147.587006 161.953832 
L 147.546031 162.124035 
L 147.886436 162.350971 
L 148.088157 162.39825 
L 148.078701 162.423465 
L 148.040879 162.722895 
L 148.141739 163.09797 
L 148.018815 163.138945 
L 147.908499 163.066451 
L 147.829702 163.145248 
L 147.813942 163.04754 
L 147.631132 163.063299 
L 147.722537 163.183071 
L 147.788727 163.227198 
L 147.867524 163.46359 
L 147.637436 163.744108 
L 147.508209 163.889095 
L 147.284424 164.365031 
L 146.69502 164.390247 
L 146.707627 164.286234 
L 146.631982 163.901703 
L 146.449172 163.583362 
L 146.197021 163.684222 
L 146.266362 163.725197 
L 146.297881 163.933222 
L 146.140287 164.005716 
L 145.957477 163.882792 
L 145.957477 164.289386 
L 146.036274 164.629791 
L 146.556337 165.162461 
L 146.480691 165.71089 
L 146.121375 165.758169 
L 145.623376 165.940978 
L 145.311338 165.918915 
L 145.062339 165.836966 
L 144.96463 165.736105 
L 144.89844 165.584814 
L 144.425656 165.701435 
L 144.31534 165.925219 
L 144.141986 166.136396 
L 144.003302 166.208889 
L 143.968631 166.549294 
L 144.104163 166.4768 
L 144.119922 166.583965 
L 144.261758 167.204888 
L 144.160897 167.201736 
L 144.123074 167.551596 
L 144.192416 167.863634 
L 143.773214 168.50662 
L 143.568341 168.683126 
L 143.618771 168.720949 
L 144.61477 169.530986 
L 144.476086 170.441883 
L 144.362618 170.542744 
L 144.318492 170.646756 
L 144.372074 171.110085 
L 144.280669 171.362236 
L 144.526517 171.66797 
L 144.472935 171.702641 
L 144.321644 171.898058 
L 144.324796 172.15021 
L 144.160897 172.437032 
L 144.36577 174.198941 
L 143.508455 175.402965 
L 143.385531 175.61099 
L 143.407594 175.853685 
L 142.960025 176.348533 
L 142.673203 176.345381 
L 142.638532 176.471457 
L 142.414748 176.61014 
L 141.998698 176.742519 
L 142.127925 177.041949 
L 141.979786 177.174329 
L 141.62047 177.272038 
L 141.447116 177.347683 
L 141.267458 177.401265 
L 141.040522 177.50843 
L 140.97118 177.533645 
L 140.999547 177.593531 
L 140.927054 177.729062 
L 139.962574 178.428783 
L 139.716726 178.548555 
L 136.69406 179.345984 
L 136.274858 179.494123 
L 135.408087 179.286098 
L 135.171695 179.030795 
L 135.09605 179.144263 
L 134.575987 179.160022 
L 134.591747 179.311313 
L 134.601202 179.475212 
L 134.424696 179.803009 
L 133.075686 179.963755 
L 132.574534 180.225362 
L 132.303472 180.140261 
L 132.152181 180.118198 
L 131.679396 180.23797 
L 131.357903 180.162325 
L 130.967068 179.869198 
L 131.011195 179.818768 
L 130.922942 179.695844 
L 130.878815 179.746275 
L 130.866208 179.828224 
L 130.790562 179.758882 
L 130.683398 179.803009 
L 130.651879 179.941692 
L 130.424943 179.88811 
L 129.986829 179.200997 
L 129.964766 179.125351 
L 129.879665 179.188389 
L 129.696855 179.037098 
L 129.800868 179.005579 
L 129.889121 178.844833 
L 129.759893 178.904719 
L 129.53926 178.945693 
L 129.195704 178.718757 
L 129.173641 178.532795 
L 129.30602 178.372049 
L 129.413185 178.268036 
L 128.830084 178.230213 
L 128.833236 178.283796 
L 128.899426 178.268036 
L 128.965616 178.299555 
L 128.946704 178.346834 
L 128.899426 178.929934 
L 129.202008 179.119048 
L 128.968768 179.27349 
L 129.00659 179.53825 
L 128.732376 180.518489 
L 128.29111 180.694995 
L 127.295112 180.726514 
L 127.232074 180.650868 
L 127.080783 180.928235 
L 127.143821 181.256032 
L 126.831783 181.360044 
L 126.579632 181.240272 
L 126.746682 180.931387 
L 126.850695 180.77064 
L 126.964163 180.799007 
L 127.134365 180.581526 
L 126.99253 180.326223 
L 126.349544 180.080375 
L 126.154126 180.001578 
L 125.832633 180.045704 
L 125.643519 180.017337 
L 125.397672 179.963755 
L 125.293659 179.503579 
L 125.299963 179.28925 
L 125.044659 178.986668 
L 124.310268 178.970909 
L 124.086484 179.163174 
L 124.02975 179.434237 
L 123.84694 179.503579 
L 123.928889 180.017337 
L 123.544358 180.080375 
L 123.550662 180.026793 
L 123.456105 179.982667 
L 123.203953 180.184388 
L 123.200801 180.40502 
L 122.340334 180.638261 
L 122.381309 180.442843 
L 122.034601 180.367198 
L 121.609095 180.594134 
L 121.28445 180.814767 
L 120.780147 180.802159 
L 120.723413 180.745425 
L 120.31997 180.83683 
L 120.064667 181.290703 
L 120.127705 181.356892 
L 119.825123 181.747727 
L 119.431136 181.876955 
L 118.860643 181.71936 
L 118.630555 181.48612 
L 118.769238 181.344285 
L 118.617947 181.158323 
L 118.327973 181.18669 
L 118.186138 181.278095 
L 117.990721 181.133108 
L 118.012784 180.767488 
L 117.943442 180.732817 
L 117.580974 180.83683 
L 117.565215 181.041703 
L 117.445443 180.899868 
L 117.259481 180.792703 
L 117.193291 181.010184 
L 117.15862 180.969209 
L 116.994722 180.877805 
L 117.079823 181.180386 
L 117.15862 181.170931 
L 117.136557 181.48612 
L 116.698444 182.091284 
L 115.680382 182.970662 
L 115.283244 183.005333 
L 114.848282 182.724814 
L 114.44484 182.529397 
L 114.343979 182.337131 
L 114.139106 182.302461 
L 113.855435 182.166929 
L 113.823917 182.311916 
L 113.716752 182.475815 
L 113.407867 182.538853 
L 112.307855 182.674384 
L 111.898109 182.605042 
L 111.519882 182.406473 
L 111.365439 182.012486 
L 111.526186 181.445145 
L 111.551401 181.211905 
L 111.686932 181.158323 
L 111.608135 181.07007 
L 111.371743 181.073222 
L 111.308705 181.404171 
L 111.081769 181.564917 
L 111.05025 181.716208 
L 110.990364 182.015638 
L 110.826465 182.286701 
L 110.50182 182.441144 
L 109.937631 182.526245 
L 109.830467 182.680688 
L 109.354531 182.507334 
L 108.516127 182.56722 
L 107.999216 182.311916 
L 107.951938 182.141714 
L 107.885748 181.842284 
L 107.630445 181.561766 
L 106.171118 180.773792 
L 105.956789 180.474362 
L 105.69203 180.515337 
L 105.628992 180.332527 
L 105.049043 180.048856 
L 103.331261 179.63911 
L 103.006616 179.774642 
L 102.842718 180.313615 
L 102.694579 180.534248 
L 102.294288 180.814767 
L 101.63239 181.082678 
L 101.477947 180.880956 
L 101.430669 180.966058 
L 101.395998 181.240272 
L 101.071353 181.265487 
L 100.756164 181.13626 
L 100.422063 180.663476 
L 100.176215 180.641412 
L 100.037532 180.631957 
L 100.040684 180.950298 
L 100.242405 181.000728 
L 100.185671 181.063766 
L 100.138392 181.31907 
L 100.314899 181.41993 
L 100.664759 181.413627 
L 100.781379 181.558614 
L 100.642696 181.782398 
L 100.204582 181.744575 
L 100.251861 181.820221 
L 100.10057 181.990423 
L 100.078506 182.198448 
L 100.311747 182.945447 
L 100.141544 183.106194 
L 99.993405 183.50018 
L 99.955583 184.792457 
L 100.009165 185.24633 
L 100.280228 185.779 
L 100.365329 185.990177 
L 100.132089 186.299062 
L 99.621482 186.447201 
L 99.548988 186.273847 
L 99.413457 186.393619 
L 99.227495 186.797062 
L 98.880787 187.663832 
L 98.616028 188.007389 
L 98.37018 187.982174 
L 98.35442 188.114553 
L 98.754711 188.530603 
L 98.792534 188.97502 
L 98.568749 189.372159 
L 98.212585 189.728323 
L 97.689371 189.803969 
L 97.560143 189.539209 
L 97.560143 189.280754 
L 97.468738 189.498235 
L 97.248106 189.643222 
L 96.970739 189.649526 
L 96.740651 189.769298 
L 96.724891 189.70626 
L 96.677613 189.643222 
L 96.491651 189.747234 
L 96.419157 189.926892 
L 96.365575 189.911133 
L 96.242651 190.090791 
L 96.252107 190.298816 
L 95.738348 191.282207 
L 95.687918 191.483928 
L 95.590209 191.691953 
L 95.397944 191.824333 
L 95.145792 192.407433 
L 94.962982 192.60285 
L 94.85897 192.596547 
L 94.635185 192.842394 
L 94.669856 193.179647 
L 94.149794 193.873064 
L 94.291629 194.594848 
L 94.045781 194.673645 
L 93.825149 194.591696 
L 93.591908 193.99914 
L 93.456377 193.879368 
L 93.371276 193.794266 
L 93.346061 193.888823 
L 93.532022 194.191405 
L 93.654946 194.185101 
L 93.61082 194.270202 
L 93.500504 194.692556 
L 93.72744 194.941556 
L 93.519415 195.007746 
L 93.264111 194.919493 
L 92.917403 194.872214 
L 92.904796 194.626366 
L 92.835454 194.56648 
L 92.539176 194.64843 
L 92.400493 194.806024 
L 92.299632 194.963619 
L 92.507657 195.06448 
L 92.649492 195.121214 
L 92.498201 195.143277 
L 92.482442 195.322935 
L 92.721986 195.187404 
L 92.89534 195.099151 
L 92.82915 195.222074 
L 92.813391 195.36391 
L 92.866973 195.634973 
L 93.232593 195.789415 
L 93.336605 196.151883 
L 93.226289 196.640427 
L 92.970985 197.248742 
L 92.658948 197.478831 
L 92.668404 197.954767 
L 92.775568 198.21007 
L 92.640036 198.547323 
L 92.264961 198.856208 
L 92.211379 199.193461 
L 91.700772 199.710372 
L 90.600761 200.312383 
L 90.402192 200.930155 
L 89.998749 202.20352 
L 89.998749 202.389482 
L 89.481839 203.117569 
L 89.087852 203.391784 
L 88.498448 203.227885 
L 88.161195 203.164848 
L 88.063486 203.331898 
L 87.937411 203.253101 
L 87.896436 203.287771 
L 87.080095 203.470581 
L 86.415046 203.303531 
L 86.377223 203.432759 
L 86.244843 203.391784 
L 85.898135 203.259404 
L 85.768907 203.15224 
L 85.775211 203.353961 
L 85.813034 203.905543 
L 85.595553 204.097808 
L 84.905288 204.072593 
L 84.634226 203.877176 
L 84.022758 203.665999 
L 82.970025 203.678606 
L 82.919595 203.584049 
L 83.089797 203.413847 
L 82.869165 203.360265 
L 82.730481 203.584049 
L 82.607558 203.729037 
L 82.399533 203.669151 
L 82.1789 204.173454 
L 81.507547 204.422453 
L 81.428749 204.627326 
L 81.775458 204.756554 
L 81.747091 205.210427 
L 81.337344 206.001552 
L 81.286914 206.553134 
L 81.037914 206.698121 
L 80.303523 206.556286 
L 80.101802 206.41445 
L 79.73303 206.389235 
L 79.376866 205.900692 
L 79.175145 205.446819 
L 78.885171 205.503553 
L 78.787462 205.730489 
L 78.670842 205.903843 
L 78.737032 205.910147 
L 79.118411 205.787223 
L 79.276006 205.932211 
L 79.074284 206.168603 
L 78.50064 206.486944 
L 77.734729 207.02907 
L 77.618109 207.161449 
L 77.214667 207.435664 
L 76.445605 209.077801 
L 76.259643 209.172358 
L 76.328985 209.418205 
L 76.206061 209.490699 
L 76.234428 209.534825 
L 76.111504 209.872078 
L 75.673391 210.411052 
L 75.45591 210.559191 
L 75.336138 210.685267 
L 75.310923 210.820798 
L 75.304619 210.918507 
L 75.276252 211.233696 
L 75.364505 211.243152 
L 75.430695 211.725392 
L 75.203758 211.851468 
L 75.317227 212.529125 
L 76.045314 213.68587 
L 76.319529 214.845767 
L 76.678845 215.107374 
L 76.757642 215.359526 
L 76.896326 215.734601 
L 76.971971 215.718842 
L 77.113806 215.807095 
L 77.113806 215.807095 
" clip-path="url(#p7c25daea84)" style="fill: none; stroke: #ff7f0e; stroke-width: 1.5; stroke-linecap: square"/>
   </g>
   <g id="line2d_16">
    <path d="M 285.728219 85.624414 
L 285.633663 85.624414 
L 285.589536 85.561376 
L 285.535954 85.495186 
L 285.548561 85.444756 
L 285.598992 85.31868 
L 285.699852 85.205212 
L 285.788105 85.139022 
L 285.847991 85.079136 
L 285.974067 84.990883 
L 286.084383 84.912086 
L 286.106447 84.845896 
L 286.043409 84.855352 
L 286.008738 84.808073 
L 286.002434 84.71982 
L 286.059168 84.663086 
L 286.103295 84.622111 
L 286.087535 84.530706 
L 286.065472 84.464517 
L 286.134814 84.518099 
L 286.182092 84.584289 
L 286.264041 84.568529 
L 286.289257 84.483428 
L 286.235674 84.429846 
L 286.188396 84.385719 
L 286.197852 84.294314 
L 286.175788 84.25334 
L 286.07808 84.325833 
L 286.030801 84.3542 
L 286.052865 84.281707 
L 286.033953 84.168239 
L 286.103295 84.073682 
L 286.232522 84.00434 
L 286.282953 83.900328 
L 286.282953 83.865657 
L 286.37751 83.808923 
L 286.481522 83.758492 
L 286.645421 83.723822 
L 286.749433 83.663936 
L 286.847142 83.673391 
L 286.941699 83.65448 
L 287.055167 83.619809 
L 287.074078 83.626113 
L 287.108749 83.645024 
L 287.074078 83.689151 
L 287.029952 83.815226 
L 287.102445 83.812075 
L 287.140268 83.802619 
L 287.206458 83.764796 
L 287.332534 83.648176 
L 287.389268 83.559923 
L 287.474369 83.487429 
L 287.578381 83.396025 
L 287.729672 83.358202 
L 287.821077 83.326683 
L 287.846292 83.235278 
L 287.90933 83.23843 
L 288.000735 83.194303 
L 288.048013 83.188 
L 288.054317 83.251037 
L 288.016495 83.28886 
L 288.063773 83.320379 
L 288.133115 83.323531 
L 288.148874 83.433847 
L 288.09214 83.553619 
L 287.997583 83.63872 
L 287.950305 83.65448 
L 287.893571 83.767948 
L 287.821077 83.88772 
L 287.735976 83.979125 
L 287.622508 84.076834 
L 287.433394 84.177694 
L 287.307318 84.247036 
L 287.174939 84.338441 
L 287.080382 84.395175 
L 286.995281 84.47082 
L 286.957458 84.543314 
L 286.891268 84.565377 
L 286.856598 84.527555 
L 286.821927 84.53701 
L 286.752585 84.622111 
L 286.686395 84.666238 
L 286.569775 84.71982 
L 286.582383 84.754491 
L 286.591838 84.801769 
L 286.554016 84.930997 
L 286.49413 85.057073 
L 286.431092 85.176845 
L 286.349143 85.236731 
L 286.213611 85.306072 
L 286.137966 85.331288 
L 286.049713 85.324984 
L 285.970915 85.350199 
L 285.958308 85.413237 
L 285.911029 85.422692 
L 285.84484 85.463667 
L 285.803865 85.523553 
" clip-path="url(#p7c25daea84)" style="fill: none; stroke: #1f77b4; stroke-width: 1.5; stroke-linecap: square"/>
   </g>
   <g id="line2d_17">
    <path d="M 285.803865 85.523553 
L 285.77865 85.580287 
L 285.728219 85.624414 
" clip-path="url(#p7c25daea84)" style="fill: none; stroke: #ff7f0e; stroke-width: 1.5; stroke-linecap: square"/>
   </g>
   <g id="patch_3">
    <path d="M 56.50625 283.910437 
L 56.50625 17.798437 
" style="fill: none; stroke: #000000; stroke-width: 0.8; stroke-linejoin: miter; stroke-linecap: square"/>
   </g>
   <g id="patch_4">
    <path d="M 413.62625 283.910437 
L 413.62625 17.798437 
" style="fill: none; stroke: #000000; stroke-width: 0.8; stroke-linejoin: miter; stroke-linecap: square"/>
   </g>
   <g id="patch_5">
    <path d="M 56.50625 283.910437 
L 413.62625 283.910437 
" style="fill: none; stroke: #000000; stroke-width: 0.8; stroke-linejoin: miter; stroke-linecap: square"/>
   </g>
   <g id="patch_6">
    <path d="M 56.50625 17.798437 
L 413.62625 17.798437 
" style="fill: none; stroke: #000000; stroke-width: 0.8; stroke-linejoin: miter; stroke-linecap: square"/>
   </g>
   <g id="text_17">
    <!-- 07L0000001169872212 -->
    <g style="fill: #1f77b4" transform="translate(77.113806 215.807095) scale(0.1 -0.1)">
     <defs>
      <path id="DejaVuSans-4c" d="M 628 4666 
L 1259 4666 
L 1259 531 
L 3531 531 
L 3531 0 
L 628 0 
L 628 4666 
z
" transform="scale(0.015625)"/>
     </defs>
     <use xlink:href="#DejaVuSans-30"/>
     <use xlink:href="#DejaVuSans-37" x="63.623047"/>
     <use xlink:href="#DejaVuSans-4c" x="127.246094"/>
     <use xlink:href="#DejaVuSans-30" x="182.958984"/>
     <use xlink:href="#DejaVuSans-30" x="246.582031"/>
     <use xlink:href="#DejaVuSans-30" x="310.205078"/>
     <use xlink:href="#DejaVuSans-30" x="373.828125"/>
     <use xlink:href="#DejaVuSans-30" x="437.451172"/>
     <use xlink:href="#DejaVuSans-30" x="501.074219"/>
     <use xlink:href="#DejaVuSans-31" x="564.697266"/>
     <use xlink:href="#DejaVuSans-31" x="628.320312"/>
     <use xlink:href="#DejaVuSans-36" x="691.943359"/>
     <use xlink:href="#DejaVuSans-39" x="755.566406"/>
     <use xlink:href="#DejaVuSans-38" x="819.189453"/>
     <use xlink:href="#DejaVuSans-37" x="882.8125"/>
     <use xlink:href="#DejaVuSans-32" x="946.435547"/>
     <use xlink:href="#DejaVuSans-32" x="1010.058594"/>
     <use xlink:href="#DejaVuSans-31" x="1073.681641"/>
     <use xlink:href="#DejaVuSans-32" x="1137.304688"/>
    </g>
   </g>
   <g id="text_18">
    <!-- 07L0000001169872209 -->
    <g style="fill: #ff7f0e" transform="translate(383.399113 76.704553) scale(0.1 -0.1)">
     <use xlink:href="#DejaVuSans-30"/>
     <use xlink:href="#DejaVuSans-37" x="63.623047"/>
     <use xlink:href="#DejaVuSans-4c" x="127.246094"/>
     <use xlink:href="#DejaVuSans-30" x="182.958984"/>
     <use xlink:href="#DejaVuSans-30" x="246.582031"/>
     <use xlink:href="#DejaVuSans-30" x="310.205078"/>
     <use xlink:href="#DejaVuSans-30" x="373.828125"/>
     <use xlink:href="#DejaVuSans-30" x="437.451172"/>
     <use xlink:href="#DejaVuSans-30" x="501.074219"/>
     <use xlink:href="#DejaVuSans-31" x="564.697266"/>
     <use xlink:href="#DejaVuSans-31" x="628.320312"/>
     <use xlink:href="#DejaVuSans-36" x="691.943359"/>
     <use xlink:href="#DejaVuSans-39" x="755.566406"/>
     <use xlink:href="#DejaVuSans-38" x="819.189453"/>
     <use xlink:href="#DejaVuSans-37" x="882.8125"/>
     <use xlink:href="#DejaVuSans-32" x="946.435547"/>
     <use xlink:href="#DejaVuSans-32" x="1010.058594"/>
     <use xlink:href="#DejaVuSans-30" x="1073.681641"/>
     <use xlink:href="#DejaVuSans-39" x="1137.304688"/>
    </g>
   </g>
   <g id="text_19">
    <!-- 07L0000001169871680 -->
    <g style="fill: #1f77b4" transform="translate(285.728219 85.624414) scale(0.1 -0.1)">
     <use xlink:href="#DejaVuSans-30"/>
     <use xlink:href="#DejaVuSans-37" x="63.623047"/>
     <use xlink:href="#DejaVuSans-4c" x="127.246094"/>
     <use xlink:href="#DejaVuSans-30" x="182.958984"/>
     <use xlink:href="#DejaVuSans-30" x="246.582031"/>
     <use xlink:href="#DejaVuSans-30" x="310.205078"/>
     <use xlink:href="#DejaVuSans-30" x="373.828125"/>
     <use xlink:href="#DejaVuSans-30" x="437.451172"/>
     <use xlink:href="#DejaVuSans-30" x="501.074219"/>
     <use xlink:href="#DejaVuSans-31" x="564.697266"/>
     <use xlink:href="#DejaVuSans-31" x="628.320312"/>
     <use xlink:href="#DejaVuSans-36" x="691.943359"/>
     <use xlink:href="#DejaVuSans-39" x="755.566406"/>
     <use xlink:href="#DejaVuSans-38" x="819.189453"/>
     <use xlink:href="#DejaVuSans-37" x="882.8125"/>
     <use xlink:href="#DejaVuSans-31" x="946.435547"/>
     <use xlink:href="#DejaVuSans-36" x="1010.058594"/>
     <use xlink:href="#DejaVuSans-38" x="1073.681641"/>
     <use xlink:href="#DejaVuSans-30" x="1137.304688"/>
    </g>
   </g>
   <g id="text_20">
    <!-- 07L0000001169871689 -->
    <g style="fill: #ff7f0e" transform="translate(285.803865 85.523553) scale(0.1 -0.1)">
     <use xlink:href="#DejaVuSans-30"/>
     <use xlink:href="#DejaVuSans-37" x="63.623047"/>
     <use xlink:href="#DejaVuSans-4c" x="127.246094"/>
     <use xlink:href="#DejaVuSans-30" x="182.958984"/>
     <use xlink:href="#DejaVuSans-30" x="246.582031"/>
     <use xlink:href="#DejaVuSans-30" x="310.205078"/>
     <use xlink:href="#DejaVuSans-30" x="373.828125"/>
     <use xlink:href="#DejaVuSans-30" x="437.451172"/>
     <use xlink:href="#DejaVuSans-30" x="501.074219"/>
     <use xlink:href="#DejaVuSans-31" x="564.697266"/>
     <use xlink:href="#DejaVuSans-31" x="628.320312"/>
     <use xlink:href="#DejaVuSans-36" x="691.943359"/>
     <use xlink:href="#DejaVuSans-39" x="755.566406"/>
     <use xlink:href="#DejaVuSans-38" x="819.189453"/>
     <use xlink:href="#DejaVuSans-37" x="882.8125"/>
     <use xlink:href="#DejaVuSans-31" x="946.435547"/>
     <use xlink:href="#DejaVuSans-36" x="1010.058594"/>
     <use xlink:href="#DejaVuSans-38" x="1073.681641"/>
     <use xlink:href="#DejaVuSans-39" x="1137.304688"/>
    </g>
   </g>
  </g>
 </g>
 <defs>
  <clipPath id="p7c25daea84">
   <rect x="56.50625" y="17.798438" width="357.12" height="266.112"/>
  </clipPath>
 </defs>
</svg>
