<?xml version="1.0" encoding="UTF-8" standalone="no"?>
<!-- Created with Inkscape (http://www.inkscape.org/) -->

<svg
   width="817.79633mm"
   height="183.50049mm"
   viewBox="0 0 817.79632 183.50049"
   version="1.1"
   id="svg5"
   inkscape:version="1.2.2 (b0a8486541, 2022-12-01)"
   sodipodi:docname="logo.svg"
   xmlns:inkscape="http://www.inkscape.org/namespaces/inkscape"
   xmlns:sodipodi="http://sodipodi.sourceforge.net/DTD/sodipodi-0.dtd"
   xmlns="http://www.w3.org/2000/svg"
   xmlns:svg="http://www.w3.org/2000/svg">
  <sodipodi:namedview
     id="namedview7"
     pagecolor="#ffffff"
     bordercolor="#000000"
     borderopacity="0.25"
     inkscape:showpageshadow="2"
     inkscape:pageopacity="0.0"
     inkscape:pagecheckerboard="0"
     inkscape:deskcolor="#d1d1d1"
     inkscape:document-units="mm"
     showgrid="false"
     inkscape:zoom="0.35355339"
     inkscape:cx="1353.4024"
     inkscape:cy="263.04372"
     inkscape:window-width="1920"
     inkscape:window-height="1011"
     inkscape:window-x="0"
     inkscape:window-y="0"
     inkscape:window-maximized="1"
     inkscape:current-layer="layer1" />
  <defs
     id="defs2" />
  <g
     inkscape:label="Calque 1"
     inkscape:groupmode="layer"
     id="layer1"
     transform="translate(-15.523976,-40.575638)">
    <g
       id="g5059"
       transform="translate(422.91148,-0.49517761)">
      <path
         style="opacity:0.610298;fill:none;stroke:#0058ff;stroke-width:3;stroke-dasharray:none;stroke-opacity:1"
         d="M 18.645287,132.57081 H 198.64528"
         id="path1947" />
      <path
         id="path1514-3"
         style="opacity:0.610298;fill:#0064ff;fill-opacity:1;stroke:#0064ff;stroke-width:3;stroke-dasharray:none;stroke-opacity:1"
         d="m 198.64528,132.57081 c 0,49.70563 -40.29438,90 -90,90 -49.705619,0 -89.999989,-40.29437 -89.999989,-90 52.192035,0.16045 158.377259,0.005 179.999989,0 z"
         sodipodi:nodetypes="cscc" />
      <path
         style="opacity:1;fill:#0096ff;fill-opacity:1;stroke:#0096ff;stroke-width:3;stroke-dasharray:none;stroke-opacity:1"
         d="m 179.18149,131.85147 c -19.22073,29.68264 -73.43375,118.18763 -139.326431,0.2886 v 0 c 1.688682,-0.38674 3.467282,-0.75131 5.326081,-1.09439 39.588244,-7.30691 115.55413,-4.86639 134.00035,0.80579"
         id="path1980"
         sodipodi:nodetypes="cccsc" />
      <circle
         style="opacity:0.610298;fill:none;stroke:#0064ff;stroke-width:3;stroke-dasharray:none;stroke-opacity:1"
         id="path1514"
         cx="108.64529"
         cy="132.57082"
         r="90" />
      <path
         style="opacity:0.610298;fill:none;stroke:#000000;stroke-width:3;stroke-dasharray:none;stroke-opacity:1"
         d="m 19.602387,145.66134 c 1.424415,-0.40969 2.87016,-0.75141 4.273244,-1.22907 3.157318,-1.07486 8.533349,-5.559 11.053072,-7.95597 1.628462,-1.54913 3.079697,-3.02282 4.926356,-4.33623 5.278279,-3.7541 11.027087,-6.70023 16.451821,-10.21885 4.744336,-3.0773 9.273084,-3.48177 12.922533,-8.20293 0.861065,-1.11393 1.181989,-2.61543 1.935506,-3.79349 0.585134,-0.9148 1.177909,-1.68897 1.58373,-2.61609 0.407371,-0.93066 1.451747,-1.7174 2.010172,-2.58451 1.529892,-2.37559 3.072868,-4.914928 4.92779,-7.045649 1.584762,-1.820392 3.65298,-3.453765 5.400183,-4.992407 1.565643,-1.378752 2.870343,-3.056779 4.466889,-4.395097 1.377423,-1.154634 1.234884,-0.454149 2.541431,-1.161589 0.548757,-0.29713 0.173323,-0.334857 0.703562,-0.696384 0.860933,-0.586999 0.754393,-0.117131 1.398505,-0.387675 1.359845,-0.571172 2.48594,-1.305772 3.994497,-1.593779 2.935032,-0.560345 12.419102,0.08012 14.901102,1.473168 0.20868,0.117124 0.2512,0.411338 0.41496,0.585822 1.20994,1.28913 5.16562,5.535761 6.99827,5.998927 0.26913,0.06802 0.58342,-0.12197 0.83279,0 0.52309,0.255863 0.86616,0.508707 1.4545,0.696381 1.20552,0.384551 4.87533,0 6.19564,0 0.32929,0 3.98868,-0.288285 4.51283,0 2.72435,1.498391 5.15652,3.776067 7.65732,5.466231 0.94593,0.639312 1.30418,1.995121 2.32318,2.623271 0.15523,0.0957 0.38585,-0.0852 0.54706,0 1.20863,0.63894 2.20603,1.92577 3.43021,2.63189 3.51444,2.02719 7.18485,3.64791 10.70847,5.71894 1.46443,0.86072 2.64484,2.4354 3.78343,3.63841 1.34486,1.42096 3.06404,2.45009 4.39797,3.87102 1.93138,2.05733 3.51533,4.40447 5.47772,6.44547 2.31657,2.40937 4.81709,4.68762 6.98104,7.28256 0.0817,0.098 -0.0167,0.70526 0,0.8012 0.0234,0.13425 0.27419,0.0731 0.37332,0.16656 1.21844,1.14923 3.56916,3.05274 5.12881,3.8466 1.02696,0.52273 2.21603,0.76822 3.16889,1.53348 0.59263,0.47596 1.40279,1.10054 1.8752,1.723 0.34667,0.45679 0.28406,1.12859 0.68777,1.55502 0.32918,0.3477 1.01167,1.21114 1.4947,1.38989 0.2608,0.0965 0.5834,-0.12005 0.83423,0 0.23211,0.11108 1.96784,1.19255 2.01591,1.33102 0.0191,0.055 1.26922,1.53379 1.52629,1.57798 0.61699,0.10605 1.23995,0.17388 1.85992,0.26082"
         id="path1891" />
    </g>
    <text
       xml:space="preserve"
       style="font-size:7.05556px;font-family:cmr10;-inkscape-font-specification:cmr10;fill:none;stroke:#0064ff;stroke-width:3;stroke-dasharray:none"
       x="211.70294"
       y="122.22865"
       id="text3040"><tspan
         sodipodi:role="line"
         id="tspan3038"
         style="fill:none;stroke-width:3"
         x="211.70294"
         y="122.22865" /></text>
    <text
       xml:space="preserve"
       style="font-size:21.1667px;font-family:cmr10;-inkscape-font-specification:cmr10;fill:none;stroke:none;stroke-width:1;stroke-dasharray:none"
       x="215.03503"
       y="120.46442"
       id="text3096"><tspan
         sodipodi:role="line"
         id="tspan3094"
         style="font-size:21.1667px;stroke:none;stroke-width:1;stroke-dasharray:none"
         x="215.03503"
         y="120.46442" /></text>
    <text
       xml:space="preserve"
       style="font-size:141.828px;font-family:cmr10;-inkscape-font-specification:cmr10;fill:#0096ff;fill-opacity:1;stroke:#0064ff;stroke-width:0;stroke-dasharray:none;stroke-opacity:1"
       x="11.853622"
       y="222.48334"
       id="text3365"><tspan
         sodipodi:role="line"
         id="tspan3363"
         style="fill:#0096ff;fill-opacity:1;stroke-width:0"
         x="11.853622"
         y="222.48334">Islands    Lib</tspan></text>
  </g>
</svg>
