<?xml version="1.0" encoding="UTF-8" standalone="no"?>
<!-- Created with Inkscape (http://www.inkscape.org/) -->

<svg
   version="1.1"
   id="svg2"
   width="419.95349"
   height="399.30234"
   viewBox="0 0 419.95349 399.30234"
   sodipodi:docname="MysteryFFM.svg"
   inkscape:version="1.2.2 (b0a8486541, 2022-12-01)"
   xmlns:inkscape="http://www.inkscape.org/namespaces/inkscape"
   xmlns:sodipodi="http://sodipodi.sourceforge.net/DTD/sodipodi-0.dtd"
   xmlns="http://www.w3.org/2000/svg"
   xmlns:svg="http://www.w3.org/2000/svg">
  <defs
     id="defs6">
    <clipPath
       clipPathUnits="userSpaceOnUse"
       id="clipPath22">
      <path
         d="M 41.653125,23.871875 H 307.76512 V 289.98387 H 41.653125 Z"
         id="path20" />
    </clipPath>
    <clipPath
       clipPathUnits="userSpaceOnUse"
       id="clipPath44">
      <path
         d="M -1021,-463 H 1794 V 1233 H -1021 Z"
         id="path42" />
    </clipPath>
    <clipPath
       clipPathUnits="userSpaceOnUse"
       id="clipPath64">
      <path
         d="M -1021,-463 H 1794 V 1233 H -1021 Z"
         id="path62" />
    </clipPath>
    <clipPath
       clipPathUnits="userSpaceOnUse"
       id="clipPath116">
      <path
         d="M -1021,-463 H 1794 V 1233 H -1021 Z"
         id="path114" />
    </clipPath>
    <clipPath
       clipPathUnits="userSpaceOnUse"
       id="clipPath136">
      <path
         d="M -1021,-463 H 1794 V 1233 H -1021 Z"
         id="path134" />
    </clipPath>
    <clipPath
       clipPathUnits="userSpaceOnUse"
       id="clipPath156">
      <path
         d="M -1021,-463 H 1794 V 1233 H -1021 Z"
         id="path154" />
    </clipPath>
    <clipPath
       clipPathUnits="userSpaceOnUse"
       id="clipPath198">
      <path
         d="M 41.653125,23.871875 H 307.76512 V 289.98387 H 41.653125 Z"
         id="path196" />
    </clipPath>
  </defs>
  <sodipodi:namedview
     id="namedview4"
     pagecolor="#ffffff"
     bordercolor="#000000"
     borderopacity="0.25"
     inkscape:showpageshadow="2"
     inkscape:pageopacity="0.0"
     inkscape:pagecheckerboard="0"
     inkscape:deskcolor="#d1d1d1"
     showgrid="false"
     inkscape:zoom="2.0235294"
     inkscape:cx="210.27617"
     inkscape:cy="199.65117"
     inkscape:window-width="1920"
     inkscape:window-height="1011"
     inkscape:window-x="0"
     inkscape:window-y="0"
     inkscape:window-maximized="1"
     inkscape:current-layer="g10">
    <inkscape:page
       x="0"
       y="0"
       id="page8"
       width="419.95349"
       height="399.30234" />
  </sodipodi:namedview>
  <g
     id="g10"
     inkscape:groupmode="layer"
     inkscape:label="Page 1"
     transform="matrix(1.3333333,0,0,-1.3333333,0,399.30234)">
    <path
       d="M 0,0 H 314.96512 V 299.47676 H 0 Z"
       style="fill:#ffffff;fill-opacity:1;fill-rule:nonzero;stroke:none"
       id="path12" />
    <path
       d="M 41.653125,23.871875 H 307.76512 V 289.98387 H 41.653125 Z"
       style="fill:#ffffff;fill-opacity:1;fill-rule:nonzero;stroke:none"
       id="path14" />
    <g
       id="g16">
      <g
         id="g18"
         clip-path="url(#clipPath22)">
        <path
           d="m 204.72484,87.021018 12.10874,4.216788 m -22.65237,-8.861161 10.54363,4.644373 m -20.03042,-10.620171 9.48679,5.975798 m -18.85255,-13.615452 9.36576,7.639654 M 59.73816,148.54438 57.804906,136.61357 m 2.365053,23.13451 -0.431799,-11.2037 m -0.817869,22.65693 1.249668,-11.45323 m 110.187341,89.77339 -11.10146,9.23868 m 40.02022,-29.65353 -9.91859,5.2279 m 21.2176,-9.51906 -11.29901,4.29116 m 79.48351,-63.82734 0.6601,-8.31619 m -6.3496,3.68029 6.3496,-3.68029 m -6.3496,3.68029 5.6895,4.6359 m -5.6895,-4.6359 -7.31606,-0.58072 m 10.43889,13.17412 -2.56666,7.9575 m 2.56666,-7.9575 2.56667,-7.9575 m -0.64769,-16.54132 1.30779,8.22513 m -1.30779,-8.22513 -1.30779,-8.22514 m -8.0302,27.87979 9.98568,-3.11333 m -9.98568,3.11333 -3.01988,-8.32995 m 3.01988,8.32995 4.29618,-7.74923 m -4.29618,7.74923 7.41901,4.84417 m -14.95846,-6.82324 4.51957,-6.35088 m -4.51957,6.35088 7.53945,1.97907 m -7.53945,-1.97907 -7.32817,2.6567 m 8.25903,9.14774 11.46094,2.9763 m -11.46094,-2.9763 -8.25903,-9.14774 m 8.25903,9.14774 -0.93086,-11.80444 m -2.33721,-6.44687 6.85678,0.096 m -6.85678,-0.096 2.33721,6.44687 m -2.33721,-6.44687 -5.5871,-3.97603 m -0.47064,6.57484 1.06678,6.50476 m -1.06678,-6.50476 8.39495,3.84806 m -8.39495,-3.84806 0.47064,-6.57484 m -0.47064,6.57484 6.05774,-2.59881 m 2.19101,-8.99229 4.66577,9.08828 m -4.66577,-9.08828 -7.77811,5.01626 m 7.77811,-5.01626 -2.19101,8.99229 m -15.95522,7.56184 9.89748,-4.96303 m -8.14225,-3.88711 8.61289,-2.68773 m -8.61289,2.68773 8.14225,3.88711 m -8.14225,-3.88711 -1.75523,8.85014 m 10.62623,-19.67607 -0.25811,8.1382 m 0.25811,-8.1382 7.52,3.12194 m -7.52,-3.12194 -4.41299,-6.8427 m -5.07378,8.11654 9.22866,6.86436 m -9.22866,-6.86436 0.61577,9.55209 m -0.61577,-9.55209 5.07378,-8.11654 m -5.07378,8.11654 9.48677,-1.27384 m 3.2414,-6.93481 4.2786,10.05675 m -4.2786,-10.05675 -7.65439,0.0921 m 7.65439,-0.0921 7.20759,-2.57852 m -7.20759,2.57852 -3.2414,6.93481 m 4.71643,-14.17446 5.73256,4.66113 m -5.73256,-4.66113 -1.47503,7.23965 m 1.47503,-7.23965 -5.44992,-4.98866 m 10.88816,-9.53962 5.61997,6.30407 m -5.61997,-6.30407 -5.61997,-6.30406 m 14.97054,20.13765 3.73061,7.52953 m -3.73061,-7.52953 -3.7306,-7.52952 m 3.7306,7.52952 -9.05625,5.35582 m 1.00258,-7.08873 4.32307,-5.79661 m -4.32307,5.79661 -1.00258,7.08873 m 1.00258,-7.08873 -6.73514,2.4276 m 6.73514,-2.4276 8.05367,1.73291 m -8.10787,12.23279 -3.87737,5.7583 m 3.87737,-5.7583 -0.94838,-6.87697 m 0.94838,6.87697 -8.15597,-4.29845 m 13.33376,0.0805 6.66069,-0.48533 m -6.66069,0.48533 -6.12617,-2.65904 m 6.12617,2.65904 2.93008,-8.01486 m -2.93008,8.01486 -5.17779,4.21793 m -27.55203,16.61687 5.52843,5.69556 m -5.52843,-5.69556 7.28366,-3.15458 m -7.28366,3.15458 -7.7858,-1.54414 m 5.5767,-7.71793 9.49276,6.10749 m -9.49276,-6.10749 -5.5767,7.71793 m 5.5767,-7.71793 8.87699,-3.4446 m -8.87699,3.4446 2.2091,9.26207 m -5.0106,4.86357 -2.7752,-6.40771 m 2.7752,6.40771 5.0106,-4.86357 m -5.0106,4.86357 -1.35844,6.84946 m 6.30239,-2.3095 5.59508,-3.70797 m -5.59508,3.70797 0.0667,-9.40353 m -0.0667,9.40353 -6.30239,2.3095 m 6.30239,-2.3095 -4.94395,-4.53996 m 13.68748,11.6581 -8.74353,-7.11814 m -0.20846,9.18517 -6.09393,-6.87567 m 6.09393,6.87567 0.20846,-9.18517 m -0.20846,9.18517 8.95199,-2.06703 m 7.97713,-58.05307 4.03535,-7.45591 m -4.03535,7.45591 -1.23284,8.38777 m 1.23284,-8.38777 9.65532,-1.15185 m -4.12308,7.62026 9.74305,-1.31619 m -9.74305,1.31619 -6.76508,1.91936 m 6.76508,-1.91936 -1.31516,6.90802 m 1.31516,-6.90802 4.12308,-7.62026 m -4.12308,7.62026 5.41998,4.48042 m -5.41998,-4.48042 -5.53224,-6.46841 m -2.7232,-12.29366 6.75855,4.83775 m -6.75855,-4.83775 -6.75855,-4.83775 m -0.12246,7.31096 0.12246,-7.31096 m -0.12246,7.31096 6.88101,-2.47321 m -6.88101,2.47321 -4.25596,5.94575 m 9.6853,-1.64895 8.21022,-1.93226 m -8.21022,1.93226 4.17487,5.52365 m -4.17487,-5.52365 1.45167,-6.77001 m -1.45167,6.77001 -9.6853,1.64895 m 9.6853,-1.64895 -5.42934,-4.2968 m 1.66902,11.47845 6.70235,6.72977 m -6.70235,-6.72977 7.93519,-1.658 m -7.93519,1.658 -5.92498,-5.5327 m 5.92498,5.5327 3.76032,-7.18165 m -16.33131,-7.60433 -3.17617,-10.940955 m 5.83163,30.406615 3.99055,-10.21238 m -3.99055,10.21238 9.91553,-4.67968 m -19.30278,30.43368 2.79816,7.89558 m -2.79816,-7.89558 8.37486,0.17765 m -8.37486,-0.17765 -6.78975,-4.90604 m 21.16976,-5.80027 7.94562,-0.67718 m -7.94562,0.67718 2.87184,7.43936 m -2.87184,-7.43936 -6.76195,-4.227 m -0.0338,7.57612 9.66759,4.09024 m -9.66759,-4.09024 0.7906,7.53484 m -0.7906,-7.53484 0.0338,-7.57612 m -0.0338,7.57612 -7.58426,7.35719 m 7.58426,-7.35719 6.79575,-3.34912 m 0.65469,-8.56935 7.29093,7.89217 m -7.29093,-7.89217 -7.41664,4.34235 m 7.41664,-4.34235 -5.64745,-6.47834 m 5.64745,6.47834 -0.65469,8.56935 m -14.84385,-0.47492 -6.32591,6.27519 m 6.32591,-6.27519 8.0819,-3.75208 m -8.0819,3.75208 0.46384,11.18123 m -0.46384,-11.18123 8.0481,3.82404 m 8.61563,40.48044 3.06095,-7.16186 m -3.06095,7.16186 -5.89104,-5.09483 m 5.89104,5.09483 1.75229,7.58888 m 9.4121,-7.05231 7.9714,-7.83507 m -7.9714,7.83507 -8.10344,-7.69843 m 8.10344,7.69843 -9.4121,7.05231 m 9.4121,-7.05231 -11.16439,-0.53657 m -9.63407,6.22127 3.74303,-11.3161 m -3.74303,11.3161 11.38636,1.36761 m -11.38636,-1.36761 9.63407,-6.22127 m -13.91487,-4.12167 1.9299,-7.84883 m -1.9299,7.84883 8.02383,-0.97316 m -8.02383,0.97316 -6.04878,5.36106 m 6.04878,-5.36106 4.2808,10.34294 m -13.09125,-14.19072 0.43596,-9.60414 m -0.43596,9.60414 2.76167,9.20884 m -2.76167,-9.20884 8.81045,3.84778 m -8.34871,-22.40902 8.86185,1.30302 m -8.86185,-1.30302 -0.0258,8.9571 m 0.0258,-8.9571 6.06369,-6.59256 m 19.52557,-23.95316 6.47956,0.24925 m -6.47956,-0.24925 -0.22279,-6.48052 m 0.22279,6.48052 -10.13832,-1.80084 m 10.13832,1.80084 -4.49087,4.6775 m 7.50754,1.24721 -0.21661,6.64496 m 0.21661,-6.64496 7.43778,6.55285 m -7.43778,-6.55285 3.46289,-5.67546 m -3.46289,5.67546 8.91281,-0.6868 m -8.91281,0.6868 -7.50754,-1.24721 m 7.50754,1.24721 -3.01667,-5.92471 m -21.6538,44.4946 6.34315,0.61131 m -6.34315,-0.61131 -3.96124,-4.99178 m 3.96124,4.99178 4.41325,8.46014 m -4.41325,-8.46014 -4.3972,4.61236 m 6.27361,-10.16901 3.04998,-7.08921 m -3.04998,7.08921 4.46674,6.16796 m -4.46674,-6.16796 5.82518,-0.6815 m -5.82518,0.6815 -5.83765,0.56487 m 5.83765,-0.56487 -5.81187,-8.39223 m 5.81187,8.39223 -1.87641,5.55665 m -6.04077,-33.16399 1.37925,7.71651 m -1.37925,-7.71651 7.70516,1.44132 m -7.70516,-1.44132 -5.52053,-5.56514 m -1.26798,6.77852 1.26798,-6.77852 m -1.26798,6.77852 6.78851,-1.21338 m -6.78851,1.21338 -4.89586,4.85661 m 6.43504,1.59103 6.62858,0.0555 m -6.62858,-0.0555 5.24933,-7.66102 m -5.24933,7.66102 -6.43504,-1.59103 m 6.43504,1.59103 -1.53918,-6.44764 m -10.23586,-5.42257 11.50384,-1.35595 m -11.50384,1.35595 5.34,10.27918 m -5.34,-10.27918 10.23586,5.42257 m 4.80314,12.48781 3.36462,-5.98468 m -3.36462,5.98468 10.15437,-1.07864 m -10.15437,1.07864 4.09068,5.51392 m -4.09068,-5.51392 -3.26396,-6.04017 m -3.53268,15.35684 6.79664,-9.31667 m -8.31818,0.59297 -1.38082,-8.22417 m 1.38082,8.22417 5.05422,-6.63314 m -5.05422,6.63314 8.31818,-0.59297 m -8.31818,0.59297 1.52154,8.7237 m -8.1649,-11.83629 5.26254,-5.11158 m -5.26254,5.11158 6.64336,3.11259 m -6.64336,-3.11259 -7.2351,1.21476 m 7.17393,7.56173 8.22607,3.0598 m -8.22607,-3.0598 6.70453,-5.6639 m -6.70453,5.6639 -7.17393,-7.56173 m 7.17393,7.56173 0.0612,-8.77649 m -5.00737,-7.67037 10.26991,2.55879 m -10.26991,-2.55879 4.92991,-7.72039 m -4.92991,7.72039 -2.22773,8.88513 m 2.22773,-8.88513 5.00737,7.67037 m 13.30563,33.19819 8.04652,2.60543 m -8.04652,-2.60543 5.28485,-6.60341 m -5.28485,6.60341 -8.10137,2.42954 m 9.2999,-23.12869 4.52228,4.4916 m -4.52228,-4.4916 4.54806,-4.4655 m -4.54806,4.4655 0.45738,-9.97942 m -0.45738,9.97942 -6.33926,-0.66275 m 2.2296,9.32286 8.63194,-4.16851 m -8.63194,4.16851 8.19598,5.43563 m -8.19598,-5.43563 -2.2296,-9.32286 m 2.2296,9.32286 4.10966,-8.66011 m -7.09658,15.75386 11.1829,-1.65812 m -11.1829,1.65812 -2.20332,7.37483 m 2.20332,-7.37483 5.89805,4.94529 m -5.89805,-4.94529 2.98692,-7.09375 m -9.53442,0.16113 7.30482,-9.48399 m -7.30482,9.48399 9.53442,-0.16113 m -9.53442,0.16113 6.5475,6.93262 m -6.5475,-6.93262 -6.38025,7.08685 m -7.03244,-33.24745 5.31751,6.05508 m -5.31751,-6.05508 7.54524,-2.83005 m -7.54524,2.83005 -7.81659,-1.95982 m 2.48971,6.63783 -2.48971,-6.63783 m 2.48971,6.63783 5.32688,-4.67801 m -5.32688,4.67801 -1.72413,6.87655 m 8.77513,-18.4311 5.82112,4.04649 m -5.82112,-4.04649 -1.72412,6.87654 m 1.72412,-6.87654 -2.4897,-6.63783 m 0.22204,23.0461 5.86105,-3.47665 m -5.86105,3.47665 0.54354,-9.53173 m -0.54354,9.53173 -6.50747,2.02283 m 6.50747,-2.02283 -4.78334,-4.85372 m 10.83614,8.37902 -0.19175,-7.00195 m 0.19175,7.00195 6.98218,0.55978 m -6.98218,-0.55978 -6.0528,-3.5253 m 8.9921,10.68772 12.26895,-3.54284 m -12.26895,3.54284 4.04288,-6.60264 m -4.04288,6.60264 4.96413,5.94115 m -4.96413,-5.94115 -2.9393,-7.16242 m -6.96887,5.00643 -5.5914,-6.5089 m 5.5914,6.5089 0.91607,-8.53173 m -0.91607,8.53173 6.96887,-5.00643 m -6.96887,5.00643 9.90817,2.15599 m -13.41872,-28.37094 -2.84643,6.19167 m 2.84643,-6.19167 4.97016,8.15149 m -4.97016,-8.15149 4.20458,-5.36288 m -4.20458,5.36288 6.69428,1.27495 m -18.0463,-2.74356 8.50559,7.66028 m -8.50559,-7.66028 11.35202,1.46861 m -4.73102,-8.03886 8.9356,2.67598 m -8.9356,-2.67598 4.73102,8.03886 m -4.73102,-8.03886 -6.621,6.57025 m 22.22077,-2.60803 6.57656,1.67769 m -6.57656,-1.67769 1.64665,9.39808 m -1.64665,-9.39808 -6.66417,-1.28624 m 6.66417,1.28624 -4.17447,5.35159 m 2.90497,-16.68121 -5.39467,10.04338 m 5.39467,-10.04338 1.2695,11.32962 m 5.11163,-6.3087 1.46493,7.98639 m -1.46493,-7.98639 -5.11163,6.3087 m 5.11163,-6.3087 -6.38113,-5.02092 m 6.82489,-2.10842 -6.82489,2.10842 m 6.82489,-2.10842 -0.44376,7.12934 m 0.44376,-7.12934 4.41709,-5.61371 m -10.77536,-2.86759 -0.46662,10.58972 m 0.46662,-10.58972 6.35827,8.4813 m 10.09075,3.39518 -10.53451,3.73416 m 10.53451,-3.73416 -5.67366,-9.00889 m 5.67366,9.00889 -10.09075,-3.39518 m 12.11216,70.78351 -5.80927,-4.64929 m 5.80927,4.64929 2.2921,-7.07883 m -2.2921,7.07883 2.13736,7.12707 m 4.78241,-5.31823 3.41885,-6.28224 m -3.41885,6.28224 -4.62767,-8.88767 m 4.62767,8.88767 -4.78241,5.31823 m 4.78241,-5.31823 -6.91977,-1.80884 m 13.82587,1.4958 -3.48725,-5.9692 m 3.48725,5.9692 6.84233,-0.98732 m -6.84233,0.98732 2.56153,-11.33026 m -2.56153,11.33026 -6.9061,0.31304 m 11.91051,10.16548 1.83792,-11.46584 m -1.83792,11.46584 -5.00441,-10.47852 m -3.10136,7.91545 -8.58715,-2.28418 m 8.58715,2.28418 -3.80474,-7.60241 m 3.80474,7.60241 3.10136,-7.91545 m -3.10136,7.91545 8.10577,2.56307 m -45.68663,-78.43264 2.52463,7.82661 m -2.52463,-7.82661 -6.41097,5.15063 m 6.41097,-5.15063 7.9193,-2.21677 m -17.5778,-3.23997 3.24753,10.60737 m -3.24753,-10.60737 -10.59885,3.27523 m 10.59885,-3.27523 9.6585,5.45674 m 2.09251,-7.77865 5.82679,5.56188 m -5.82679,-5.56188 6.29341,-5.02784 m -6.29341,5.02784 -2.09251,7.77865 m 0.30158,-16.47308 5.83296,-6.69156 m -5.83296,6.69156 8.08434,3.66659 m -8.08434,-3.66659 1.79093,8.69443 m 36.82807,93.51021 -1.32781,9.8636 m 1.32781,-9.8636 6.76605,-7.29892 m -6.76605,7.29892 -1.33972,-9.86199 m -43.25734,-35.67233 1.91568,-7.3017 m -1.91568,7.3017 7.50708,-0.7928 m -7.50708,0.7928 -5.72612,4.91896 m 10.64332,5.7034 11.08193,3.76883 m -11.08193,-3.76883 2.58988,-11.41516 m -2.58988,11.41516 -4.9172,-10.62236 m -8.48719,-4.08753 0.2379,-9.41721 m -0.2379,9.41721 2.76107,9.00649 m -2.76107,-9.00649 8.48719,4.08753 m -8.80077,-36.554 1.44528,8.07764 m -1.44528,-8.07764 8.06628,1.50739 m -8.06628,-1.50739 -5.7801,-5.82475 m 5.7801,5.82475 4.81875,-9.09998 m -11.92496,10.37144 1.32611,-7.09621 m -1.32611,7.09621 7.10621,-1.27146 m -7.10621,1.27146 -5.12424,5.08497 m 6.73671,1.66435 6.93902,0.0569 m -6.93902,-0.0569 5.49374,-8.02078 m -5.49374,8.02078 -6.73671,-1.66435 m 6.73671,1.66435 -1.61247,-6.74932 m 5.02191,14.10795 2.63578,7.66985 m -2.63578,-7.66985 3.52958,-7.30177 m -3.52958,7.30177 -3.40944,-7.35863 m -5.28279,6.91681 -1.45392,-8.58116 m 1.45392,8.58116 5.28279,-6.91681 m -5.28279,6.91681 8.69223,0.44182 m -15.73814,-19.78256 12.04234,-1.4216 m -12.04234,1.4216 5.59199,10.75958 m -5.59199,-10.75958 10.71623,5.67461 m 0.36527,19.99605 7.29242,1.78175 m -7.29242,-1.78175 4.65664,-5.8881 m -4.65664,5.8881 -4.03559,-6.32992 m 20.61974,-29.50558 4.63404,10.92475 m -4.63404,-10.92475 -5.02446,5.46801 m 5.02446,-5.46801 6.72655,3.1461 m -6.72655,-3.1461 4.93562,-5.54833 m -16.21619,0.22524 11.28057,5.32309 m -3.20561,-7.82105 8.14123,2.27272 m -8.14123,-2.27272 3.20561,7.82105 m -3.20561,-7.82105 -8.07496,2.49796 m 47.33981,97.97564 -2.43149,-8.14241 m 2.43149,8.14241 6.15566,-5.85823 m -6.15566,5.85823 7.49538,4.00376 m -48.80865,-54.22545 6.12727,1.38943 m -6.12727,-1.38943 -4.0377,-4.81361 m 4.0377,4.81361 4.21159,8.69113 m -4.21159,-8.69113 -4.2756,4.6036 m 6.15274,-10.2784 3.48455,-6.45015 m -3.48455,6.45015 4.25013,7.06423 m -4.25013,-7.06423 5.97426,0.18768 m -5.97426,-0.18768 -5.91484,0.86119 m 5.91484,-0.86119 -1.87714,5.6748 m -1.75605,-9.88553 7.11774,-2.23942 m -7.11774,2.23942 -2.28165,5.07192 m 2.28165,-5.07192 -1.38785,-9.8997 m 1.38785,9.8997 -4.91743,-2.59793 m 4.91743,2.59793 3.63319,4.21073 m 6.10545,-50.1163 8.04002,1.12035 m -8.04002,-1.12035 2.20706,7.81191 m -2.20706,-7.81191 -5.93417,5.53919 m -1.51601,-7.572371 1.51601,7.572371 m -1.51601,-7.572371 -6.52712,-4.127445 m 6.52712,4.127445 7.45018,2.033181 m 5.34145,-8.922911 4.87435,-9.186404 m -4.87435,9.186404 2.69857,10.043261 m -2.69857,-10.043261 -5.34145,8.922911 m -13.89788,0.93847 -0.11125,7.09868 m 0.11125,-7.09868 7.96371,4.60072 m -7.96371,-4.60072 -0.0794,-7.099096 m 0.0794,7.099096 6.4477,-2.971651 m 5.43132,-5.235564 2.01886,7.268745 m -2.01886,-7.268745 -5.43132,5.235564 m 5.43132,-5.235564 7.36031,-1.654166 m -30.6782,13.232321 11.32762,3.72774 m -11.32762,-3.72774 11.43887,-3.37094 m 13.87836,-16.513206 10.23532,-2.534579 m -10.23532,2.534579 0.74853,-8.510377 m -0.74853,8.510377 5.36097,6.651825 m -5.36097,-6.651825 -1.99934,8.305991 m -19.11744,4.738208 7.159,-3.630089 m -7.159,3.630089 7.23842,3.469007 m -7.23842,-3.469007 -4.20045,6.839947 m -2.85077,-6.460409 2.85077,6.460409 m -2.85077,-6.460409 7.05122,-0.379538 m -7.05122,0.379538 -6.01736,-3.695294 m 14.02049,-3.681222 6.20709,3.366889 m -6.20709,-3.366889 -0.95191,6.996978 m 0.95191,-6.996978 -3.19352,-6.298032 m -13.74397,21.476177 11.78513,-1.34122 m -11.78513,1.34122 2.917,-11.496923 m -2.917,11.496923 8.93436,-7.801629 m 0.47278,-7.516804 6.57844,7.137266 m -6.57844,-7.137266 -6.49014,3.82151 m 6.49014,-3.82151 4.33683,-6.157744 m -4.33683,6.157744 -0.47278,7.516804 m 0.47278,-7.516804 7.53035,0.140288 m 8.50259,-8.270067 -2.2955,11.636956 m 2.2955,-11.636956 -11.69611,1.972035 m 11.69611,-1.972035 -8.50259,8.270067 m -15.23633,-10.173578 12.04281,3.875546 m -10.57997,2.976829 -0.247,7.002425 m 0.247,-7.002425 10.57997,-2.976829 m -10.57997,2.976829 6.24314,3.180915 m -6.24314,-3.180915 -1.46284,-6.852375 m -5.22722,4.698237 5.22722,-4.698237 m -5.22722,4.698237 6.69006,2.154138 m -6.69006,-2.154138 -4.66234,5.25926 m -6.10244,-10.106035 6.10244,10.106035 m -6.10244,-10.106035 10.76478,4.846775 m -2.736,-8.301053 7.96322,3.602816 m -7.96322,-3.602816 2.736,8.301053 m -2.736,-8.301053 -8.02878,3.454278 m 85.2427,133.945561 5.66827,5.78422 m -5.66827,-5.78422 6.99608,-4.07938 m -6.99608,4.07938 -0.4993,-8.08314 m -0.27672,16.09204 -6.4443,2.22467 m 6.4443,-2.22467 6.44429,-2.22468 m -6.44429,2.22468 0.77602,-8.0089 m -5.95063,3.46546 -1.26969,6.76811 m 1.26969,-6.76811 5.95063,-3.46546 m -5.95063,3.46546 5.17461,4.54344 m -14.83704,-2.85294 -2.90627,9.36877 m 2.90627,-9.36877 8.39274,5.07761 m -8.39274,-5.07761 9.66243,-1.6905 m -0.17605,-7.14401 5.62738,-4.40459 m -5.62738,4.40459 6.12668,3.67855 m -6.12668,-3.67855 0.17605,7.14401 m -1.03967,-14.0445 4.05951,-5.64651 m -4.05951,5.64651 -8.43795,-5.78264 m 8.43795,5.78264 6.491,2.4959 m -6.491,-2.4959 0.86362,6.90049 m -10.27259,-2.21863 0.97102,-10.4645 m -0.97102,10.4645 10.27259,2.21863 m -10.27259,-2.21863 9.40897,-4.68186 m -56.01759,-64.0771 4.37569,-5.15513 m -4.37569,5.15513 5.82961,3.42603 m -5.82961,-3.42603 -6.66679,1.12956 m 6.63405,5.59888 5.86235,-3.30241 m -5.86235,3.30241 -2.27034,6.33392 m 2.27034,-6.33392 -6.63405,-5.59888 m 6.63405,5.59888 0.0327,-6.72844 m -4.72402,-7.6428 9.09971,2.48767 m -9.09971,-2.48767 3.50772,-8.27191 m -3.50772,8.27191 -1.94277,8.77236 m 1.94277,-8.77236 4.72402,7.6428 m 3.85938,11.69739 1.97023,-8.27136 m -1.97023,8.27136 6.00582,-1.94144 m -6.00582,1.94144 -6.16246,1.36497 m 6.16246,-1.36497 -3.89212,-4.96895 m -6.67621,1.18082 4.40587,5.1531 m -4.40587,-5.1531 0.0422,-6.7797 m -0.0422,6.7797 6.67621,-1.18082 m 9.24296,11.26149 7.9474,-6.45223 m -7.9474,6.45223 7.7095,2.96498 m -7.7095,-2.96498 0.65498,-8.23398 m -0.65498,8.23398 -5.35084,-6.29254 m -16.62877,5.85355 10.46631,-4.48858 m -10.46631,4.48858 6.06044,-9.64168 m 8.85874,10.66319 -4.45287,-5.51009 m 4.45287,5.51009 1.7079,11.31328 m -1.7079,-11.31328 1.70959,-6.87506 m -1.70959,6.87506 7.06043,-0.58252 m -26.76984,-13.53812 10.89283,-3.32225 m -10.89283,3.32225 10.85067,3.45745 m 17.34647,17.87498 9.04327,4.17716 m -9.04327,-4.17716 6.2822,-4.82933 m -6.2822,4.82933 -6.77983,4.10149 m 6.77983,-4.10149 -1.4273,-7.79431 m 1.4273,7.79431 -8.48773,-7.21179 m -7.60345,1.59028 3.15058,-7.10037 m -3.15058,7.10037 -7.31573,-2.61179 m 7.31573,2.61179 7.60345,-1.59028 m 9.59389,16.69462 7.93711,-5.30567 m -7.93711,5.30567 -7.88599,-5.38134 m 7.88599,5.38134 -1.10616,-9.48283 m -21.63955,-1.63201 -1.76736,-6.60129 m 1.76736,6.60129 5.54837,-3.9895 m -5.54837,3.9895 -2.29769,6.43592 m 9.32243,-2.51922 7.83498,1.8168 m -7.83498,-1.8168 6.12708,-9.49648 m -6.12708,9.49648 -1.47637,-7.9062 m 1.47637,7.9062 -9.32243,2.51922 m 9.32243,-2.51922 -7.02474,-3.9167 m -11.46932,-0.46655 9.70196,-6.13474 m -9.70196,6.13474 11.46932,0.46655 m 9.62716,10.49633 5.23256,-4.76283 m -5.23256,4.76283 -2.60242,-6.57963 m 2.60242,6.57963 -1.59831,6.89272 m 8.08402,-5.02309 -1.25315,-6.63246 m 1.25315,6.63246 6.63284,-1.25112 m -6.63284,1.25112 -8.08402,5.02309 m 8.08402,-5.02309 -6.48571,-1.86963 m -7.31289,1.93593 -4.61196,-5.99634 m 4.61196,5.99634 4.71047,-8.51556 m -4.71047,8.51556 5.71458,4.95679 m -5.71458,-4.95679 7.31289,-1.93593 m -17.01585,4.62699 5.091,-8.6874 m -5.091,8.6874 9.70296,-2.69106 m -9.70296,2.69106 4.61167,8.95108 m 36.35885,-100.431061 -7.37919,6.604015 m 7.37919,-6.604015 -0.85207,10.73146 m 0.85207,-10.73146 4.57925,5.495896 m -4.57925,-5.495896 6.57859,-2.810095 m -6.57859,2.810095 -5.08369,-5.032941 m 6.52278,-2.517311 5.88803,-3.77022 m -5.88803,3.77022 5.1395,4.740157 m -5.1395,-4.740157 -6.52278,2.517311 m 6.52278,-2.517311 -1.43909,7.550252 m -4.06663,-12.10705 11.39375,0.786578 m -11.39375,-0.786578 2.02799,-6.853076 m -2.02799,6.853076 -1.01706,7.074109 m 1.01706,-7.074109 5.50572,4.556798 m -13.31031,-2.068707 -4.90858,6.558053 m 4.90858,-6.558053 6.78753,4.586018 m -6.78753,-4.586018 7.80459,-2.488091 m -16.74147,0.915022 4.0283,8.131122 m -4.0283,-8.131122 -8.01451,4.255576 m 8.01451,-4.255576 8.93688,1.573069 m 4.68381,-13.809752 5.14877,4.468585 m -5.14877,-4.468585 -5.14877,-4.468585 m -24.79972,74.882767 7.88931,6.34852 m -7.88931,-6.34852 9.83208,-2.42384 m -9.83208,2.42384 -3.00352,9.67077 m 38.48754,35.96492 -1.24713,-10.45533 m 1.24713,10.45533 9.39619,-4.75193 m -9.39619,4.75193 -9.18424,-5.14966 m -7.84544,8.31624 -6.87142,-2.04203 m 6.87142,2.04203 1.2126,-7.06512 m -1.2126,7.06512 6.53528,2.94557 m -7.99107,9.00702 7.99107,-9.00702 m -7.99107,9.00702 1.45579,-11.95259 m -5.34793,5.41359 -1.52349,-7.45562 m 1.52349,7.45562 5.34793,-5.41359 m -5.34793,5.41359 3.89214,6.539 m -10.60721,1.88577 10.60721,-1.88577 m -10.60721,1.88577 6.71507,-8.42477 m -19.27106,-115.824971 -1.51406,7.53865 m 1.51406,-7.53865 6.51472,4.084372 m -6.51472,-4.084372 -3.03886,-7.063212 m -9.80694,8.404638 11.33174,6.197224 m -11.33174,-6.197224 9.80694,-8.404638 m -9.80694,8.404638 12.8458,-1.341426 m 6.17146,-6.840516 -9.21032,-0.222696 m 9.21032,0.222696 -6.17146,6.840516 m 61.42475,149.699781 3.78456,6.30916 m -3.78456,-6.30916 6.69083,-3.05961 m -6.69083,3.05961 -7.02687,-2.17979 m 1.75032,6.77356 -0.85748,6.94329 m 0.85748,-6.94329 9.06111,1.71539 m -9.06111,-1.71539 -1.75032,-6.77356 m 1.75032,6.77356 5.27655,-4.59377 m -11.60076,2.61504 4.57389,-4.79483 m -4.57389,4.79483 6.32421,1.97873 m -6.32421,-1.97873 -5.22376,4.07718 m -3.92618,-10.41526 3.92618,10.41526 m -3.92618,-10.41526 9.14994,6.33808 m -2.16665,-6.64579 6.74054,1.85096 m -6.74054,-1.85096 2.16665,6.64579 m -2.16665,-6.64579 -6.98329,0.30771 m 12.90862,-8.68687 0.81521,10.23012 m 7.34017,-5.98072 6.37753,5.1009 m -6.37753,-5.1009 5.59132,-5.95224 m -5.59132,5.95224 -7.34017,5.98072 m 7.34017,-5.98072 -0.3133,8.16051 m 0.3133,-8.16051 -8.15538,-4.2494 m -41.81959,-84.77956 7.74137,-1.59695 m -7.74137,1.59695 4.23365,6.67496 m -4.23365,-6.67496 -7.27711,-3.08587 m 7.27711,3.08587 -5.59843,9.0988 m 5.44853,-18.86869 7.89127,8.17294 m -7.89127,-8.17294 1.1636,-9.70151 m -1.1636,9.70151 -7.12721,6.68402 m 7.12721,-6.68402 0.1499,9.76989 m 2.96959,-65.390498 4.16988,-9.611659 m 0.49346,61.245207 5.1659,-7.05567 m -5.1659,7.05567 -6.61923,-5.71445 m 6.61923,5.71445 -7.78283,3.98706 m -9.92987,-54.531667 -4.72217,4.728034 m 4.72217,-4.728034 4.48815,4.95073 m -4.48815,-4.95073 0.16153,-6.680354 m -8.43616,3.138152 3.55246,8.270236 m -3.55246,-8.270236 8.43616,-3.138152 m -8.43616,3.138152 8.27463,3.542202 m 6.30394,-3.189708 -1.81579,8.140438 m 1.81579,-8.140438 -6.14241,-3.490646 m 6.14241,3.490646 6.74542,2.100767 m -6.74542,-2.100767 -6.30394,3.189708 m 10.13847,-14.724009 7.08077,4.023409 m -7.08077,-4.023409 -7.08077,-4.023408 m 8.29894,11.213763 5.8626,-3.166946 m -5.8626,3.166946 1.69272,6.444713 m -1.69272,-6.444713 -5.0527,4.343946 m 5.0527,-4.343946 -1.21817,-7.190355 m -6.15006,2.581049 -0.93071,-6.604457 m 0.93071,6.604457 -3.82688,5.462606 m 3.82688,-5.462606 2.31553,8.953252 m -2.31553,-8.953252 6.15006,-2.581049 m -6.15006,2.581049 7.36823,4.609306 m -16.27652,-13.871302 7.97758,2.657539 m -7.97758,-2.657539 -7.97758,-2.657538 m 17.62791,73.050001 6.36302,-4.15735 m -6.36302,4.15735 5.19942,5.54416 m -5.19942,-5.54416 -7.54668,-0.90516 m 3.05248,6.46269 2.56641,6.67065 m -2.56641,-6.67065 9.69362,-0.0134 m -9.69362,0.0134 -3.05248,-6.46269 m 3.05248,6.46269 4.4942,-5.55753 m -2.67483,-9.61127 9.03785,5.45392 m -9.03785,-5.45392 0.84945,-9.940306 m -0.84945,9.940306 -4.87185,8.70611 m 4.87185,-8.70611 2.67483,9.61127 m -12.3434,5.31267 4.79672,-6.21783 m -4.79672,6.21783 7.8492,0.24486 m -7.8492,-0.24486 -1.56447,7.69561 m -4.78812,-4.98022 4.78812,4.98022 m -4.78812,-4.98022 6.35259,-2.71539 m -6.35259,2.71539 -6.77012,-1.37632 m 1.17803,11.54454 -1.17803,-11.54454 m 1.17803,11.54454 5.59209,-10.16822 m -1.17803,-11.54454 12.32734,2.61132 m -12.32734,-2.61132 7.53062,8.82915 m -7.53062,-8.82915 -5.59209,10.16822 m 5.59209,-10.16822 1.17803,11.54454 m 40.46548,-5.45624 3.36354,9.72368 m -3.36354,-9.72368 7.70628,-4.34265 m -7.70628,4.34265 -3.62134,-8.07039 m 3.62134,8.07039 -8.78724,-1.01472 m -31.71954,-46.726453 9.28467,0.90988 m -9.28467,-0.90988 -0.52227,9.314518 m 0.52227,-9.314518 5.73221,-7.360356 m 5.50544,-11.016275 5.82689,-4.18894 m -5.82689,4.18894 2.93072,7.878123 m -2.93072,-7.878123 6.7576,2.415517 m -6.7576,-2.415517 -2.15069,-6.846479 m -6.3487,5.755372 -1.62888,-8.41291 m 1.62888,8.41291 6.3487,-5.755372 m -6.3487,5.755372 8.49939,1.091107 m 24.23581,71.150094 8.39686,4.69139 m -8.39686,-4.69139 -3.64548,6.11299 m 3.64548,-6.11299 -11.53675,-2.05995 m 11.53675,2.05995 -3.75392,-6.04701 m 3.75392,6.04701 5.03332,-5.03229 m -34.15886,-61.677651 7.82045,3.43797 m -7.82045,-3.43797 -0.61571,6.576122 m 0.61571,-6.576122 4.88973,-4.440153 m -4.88973,4.440153 -3.60966,-5.53126 m -6.11981,7.937191 9.11376,4.170191 m -9.11376,-4.170191 6.11981,-7.937191 m -6.11981,7.937191 9.72947,-2.405931 m -13.65183,-14.582202 8.41329,0.638032 m -8.41329,-0.638032 -8.41328,-0.638032 m 8.71387,33.43593 6.48105,5.0353 m -6.48105,-5.0353 7.00332,-4.279218 m -7.00332,4.279218 -8.19433,-0.459465 m 4.59699,-8.684358 -4.59699,8.684358 m 4.59699,-8.684358 7.21911,-6.665942 m -7.21911,6.665942 3.59734,9.143823 m -4.42974,5.701616 -3.76459,-6.161081 m 3.76459,6.161081 4.42974,-5.701616 m -4.42974,5.701616 -0.40421,7.20886 m 6.12034,-3.272589 5.19466,-4.602587 m -5.19466,4.602587 -1.28639,-9.637887 m 1.28639,9.637887 -6.12034,3.272589 m 6.12034,-3.272589 -5.71613,-3.936271 m 13.69252,7.706003 8.55001,-2.175095 m -8.55001,2.175095 -2.78173,-8.372319 m 2.78173,8.372319 -7.97639,-3.769732 m 0.74362,8.750075 -6.86396,-5.477486 m 6.86396,5.477486 -0.74362,-8.750075 m 0.74362,8.750075 7.23277,-4.980343 m -6.35377,-22.747229 9.82652,-2.299964 m -9.82652,2.299964 4.09431,5.060392 m -4.09431,-5.060392 0.71276,-6.470155 m -0.71276,6.470155 -2.90901,9.33961 m 2.90901,-9.33961 -6.50635,0.195787 m -1.57825,-8.95128 8.79736,2.285338 m -8.79736,-2.285338 1.57825,8.95128 m 18.98516,28.736117 8.52741,1.746265 m -8.52741,-1.746265 2.42497,-8.35977 m -2.42497,8.35977 -6.12504,-6.184675 m -21.44466,-21.536726 3.98755,7.669642 m -3.98755,-7.669642 8.58454,-1.014716 m -8.58454,1.014716 -7.639957,-4.044143 m 14.455067,32.790847 0.53282,-7.707121 m -0.53282,7.707121 7.39678,-2.229635 m -7.39678,2.229635 -4.81875,6.038482 m 11.22005,1.813539 4.83206,8.904037 m -4.83206,-8.904037 0.99548,-10.081656 m -0.99548,10.081656 -6.4013,-7.852021 m -9.28924,-2.470942 -1.535768,-9.488786 m 1.535768,9.488786 4.47049,8.509424 m -4.47049,-8.509424 9.28924,2.470942 M 97.28511,68.88757 l 9.26046,0.05677 m -9.26046,-0.05677 1.263012,9.174104 m -1.263012,-9.174104 5.27291,-7.612872 m -0.69161,-7.931998 9.27615,6.917282 m -9.27615,-6.917282 -6.948347,3.887855 m 6.948347,-3.887855 7.6979,-2.033998 m -7.6979,2.033998 0.69161,7.931998 M 94.199538,47.793473 89.676566,39.479779 m 4.522972,8.313694 0.718525,9.437082 m -0.718525,-9.437082 7.666872,5.549227 m 1.80482,-8.753246 2.3548,-8.621579 m -2.3548,8.621579 5.89308,6.719248 m -5.89308,-6.719248 -1.80482,8.753246 m 1.80482,-8.753246 -9.471692,3.204019 m 9.300802,34.335357 6.40561,0.185451 m -6.40561,-0.185451 -4.952218,-4.067156 m 4.952218,4.067156 5.87279,7.892572 m -5.87279,-7.892572 -3.41645,5.42163 m 4.22321,-11.452471 2.23847,-7.153649 m -2.23847,7.153649 5.59885,6.216292 m -5.59885,-6.216292 6.00306,-0.992568 m -6.00306,0.992568 -5.758978,1.963685 M 104.3071,76.097989 97.28511,68.88757 m 7.02199,7.210419 -0.80676,6.030841 m -5.649042,-44.405003 8.174732,-1.755952 m -8.174732,1.755952 -8.174732,1.755952 m 8.174732,-1.755952 -3.65176,10.069646 m 3.65176,-10.069646 5.819932,6.865627 m -7.51152,50.451622 8.39467,1.018808 m -8.39467,-1.018808 3.92418,-7.490616 m -3.92418,7.490616 -7.48606,3.932863 m 2.602422,-24.585104 7.27205,3.672839 m -7.27205,-3.672839 6.009038,-5.501265 m -6.009038,5.501265 -8.070803,1.111119 m 7.695182,8.668174 7.647671,-6.106454 m -7.647671,6.106454 9.183439,3.382332 m -9.183439,-3.382332 -7.695182,-8.668174 m 7.695182,8.668174 0.375621,-9.779293 m -5.472457,-9.882738 5.472457,9.882738 m -8.801536,-30.750962 7.20203,-4.158094 m -7.20203,4.158094 -7.20203,4.158093 m 7.20203,-4.158093 2.262206,9.621977 m 4.804413,38.274201 10.542735,-3.983591 m -10.542735,3.983591 -0.867505,7.439888 m 0.867505,-7.439888 6.618555,3.507025 m -6.618555,-3.507025 1.359296,-7.365923 m -8.734368,2.196555 1.039186,-10.864729 m -1.039186,10.864729 8.734368,-2.196555 m -8.734368,2.196555 7.375072,5.169368 m -7.375072,-5.169368 -4.989085,7.498205 m 10.533374,-46.379083 1.966194,-8.004026 m -1.966194,8.004026 6.489166,0.309668 m -6.489166,-0.309668 -2.97363,5.776045 m 2.97363,-5.776045 -5.235836,-3.845932 m 8.239664,9.045832 4.203863,4.54685 M 90.7142,52.683705 94.199538,47.793473 M 90.7142,52.683705 84.736742,53.25985 m 5.977458,-0.576145 -3.003828,-5.1999 m 0.978172,11.289551 6.229519,-1.542801 m -6.229519,1.542801 -3.951802,-5.513506 m 3.951802,5.513506 -2.884929,5.732741 m 2.884929,-5.732741 2.025656,-6.089651 m 2.487384,10.964225 1.716479,-6.417375 m -1.716479,6.417375 9.356436,-2.373232 m -9.356436,2.373232 4.083526,5.23964 m -4.083526,-5.23964 -1.925512,10.740905 m 1.925512,-10.740905 -7.397969,0.858167 m 7.397969,-0.858167 -4.51304,-4.874574 m -6.36503,0.389152 2.413228,-5.902658 m -2.413228,5.902658 3.480101,5.343589 m -3.480101,-5.343589 6.36503,-0.389152 m -13.193815,8.641543 6.828785,-8.252391 m -12.659073,-5.164992 5.608065,-6.20155 m -5.608065,6.20155 -5.608065,6.20155 m 11.417129,0.246693 6.850009,-1.283251 m -6.850009,1.283251 0.02122,6.96914 m -0.02122,-6.96914 -5.809064,-6.448243 m 0.02216,9.950469 -5.630226,-3.748919 m 5.630226,3.748919 5.808127,3.466914 m -5.808127,-3.466914 -0.02216,-9.950469 m 0.02216,9.950469 5.786903,-3.502226 m 2.549826,-6.485965 -2.750825,-6.163828 m 2.750825,6.163828 6.713411,-0.699944 m -6.713411,0.699944 4.451205,-10.321921 m -4.451205,10.321921 4.300183,5.202714 m -4.300183,-5.202714 -8.35889,0.03772 m 8.35889,-0.03772 -2.549826,6.485965 M 67.39183,74.39106 56.748197,75.409331 M 67.39183,74.39106 75.494729,67.414899 M 67.39183,74.39106 69.686602,63.947985 m -9.284315,3.856214 3.654089,-7.605133 m -3.654089,7.605133 -3.65409,7.605132 m 3.65409,-7.605132 9.284315,-3.856214 m -9.284315,3.856214 6.989543,6.586861 m 27.871596,28.03512 -6.589776,-3.452241 m 6.589776,3.452241 0.896284,-7.385104 m -0.896284,7.385104 3.459887,6.58577 m 3.676747,-6.13333 2.15432,-6.818736 m -2.15432,6.818736 -6.24035,-7.837544 m 6.24035,7.837544 -3.676747,6.13333 m 3.676747,-6.13333 -7.136634,-0.45244 m 14.191224,-1.06841 -4.90027,-5.297886 m 4.90027,5.297886 -0.0815,-11.336368 m 0.0815,11.336368 6.31978,-3.484347 m -6.31978,3.484347 -7.05459,1.52085 m 5.27115,7.32861 7.34319,6.73845 m -7.34319,-6.73845 -8.947897,-1.19528 m 8.947897,1.19528 -5.27115,-7.32861 m 5.27115,7.32861 1.78344,-8.84946 m -38.08781,-16.769688 5.810158,9.274806 m -5.810158,-9.274806 10.799243,1.776601 m 31.528467,20.451997 1.31985,10.129 m -1.31985,-10.129 6.91194,-0.0392 m -6.91194,0.0392 2.07988,-8.943257 m -2.07988,8.943257 -4.2399,-5.45891 m 4.2399,5.45891 -6.02334,3.39055 m -5.33913,5.87917 -3.608767,-7.07445 m 3.608767,7.07445 5.33913,-5.87917 m -5.33913,5.87917 -1.05153,7.8718 m 7.09567,-3.05828 6.63818,-3.95424 m -6.63818,3.95424 7.81621,7.5903 m -7.81621,-7.5903 -0.70501,-10.69269 m 0.70501,10.69269 -7.09567,3.05828 m 7.09567,-3.05828 -6.04414,-4.81352 m -9.509325,2.73586 8.457795,5.13594 m -8.457795,-5.13594 9.509325,-2.73586 m 5.4647,13.22979 8.39565,-0.82597 m -8.39565,0.82597 -6.51623,-5.35799 m 6.51623,5.35799 0.57944,-8.41627 m -15.415484,-8.67431 5.762577,-3.21366 m -5.762577,3.21366 -6.528126,-0.95836 m 6.528126,0.95836 9.371344,3.86079 m -9.371344,-3.86079 -0.137981,6.59665 m -2.351532,-12.3519 -1.797573,-7.496421 m 1.797573,7.496421 8.25209,2.54159 m -8.25209,-2.54159 4.792203,-4.04418 m -4.792203,4.04418 -4.038613,4.79689 m 4.038613,-4.79689 2.489513,5.75525 m -9.942757,-7.93176 5.655671,-5.319911 m -5.655671,5.319911 3.414631,6.9734 m -3.414631,-6.9734 7.453244,2.17651 m -10.793525,3.78182 6.754912,1.01507 m -6.754912,-1.01507 3.340281,-5.95833 m -3.340281,5.95833 -6.134763,3.00398 m 7.884482,8.33555 -1.749719,-11.33953 m -7.35908,-7.26257 4.85838,-9.126722 m -4.85838,9.126722 1.224317,10.26655 m -1.224317,-10.26655 7.35908,7.26257 m 6.833435,7.4286 -0.07852,-6.41353 m 0.07852,6.41353 6.311622,1.14148 m -6.311622,-1.14148 6.449603,-5.45517 m -6.449603,5.45517 -6.833435,-7.4286 m 6.833435,7.4286 -5.083716,3.91093 m 6.952267,3.77751 4.443071,-6.54696 m -4.443071,6.54696 -6.952267,-3.77751 m 6.952267,3.77751 -1.868551,-7.68844 m -4.341879,10.83198 -0.741837,-6.92105 m 0.741837,6.92105 6.21043,-3.14354 m -6.21043,3.14354 -3.323216,6.11617 m 9.760836,-1.10439 7.339864,3.56191 m -7.339864,-3.56191 -0.22719,-8.15532 m 0.22719,8.15532 -9.760836,1.10439 m 9.760836,-1.10439 -6.43762,-5.01178 m -11.469333,-2.27093 11.469333,2.27093 m 13.04145,0.74699 6.069846,-5.30155 m -6.069846,5.30155 -2.387949,-10.43749 m 2.387949,10.43749 0.736034,7.8267 m -0.736034,-7.8267 -6.83102,-3.89053 m 6.83102,3.89053 -6.60383,4.26479 m -1.342597,12.11004 8.682461,-8.54813 m 5.542072,-4.46915 -0.20826,-8.6591 m 0.20826,8.6591 6.30797,-3.30111 m -6.30797,3.30111 -5.542072,4.46915 m 5.542072,-4.46915 -6.278106,-3.35755 m 12.592966,7.74698 -0.007,-7.69054 m 0.007,7.69054 5.51544,5.35952 m -5.51544,-5.35952 -6.31486,-4.38943 m 13.21992,2.80119 1.4837,-6.92827 m -1.4837,6.92827 -6.91195,-6.1023 m 6.91195,6.1023 -1.38962,6.94776 m 1.38962,-6.94776 -6.90506,1.58824 m 17.68064,-2.90364 -10.77558,1.3154 m 6.05699,4.82431 -7.44661,2.12345 m 7.44661,-2.12345 -6.05699,-4.82431 m 6.05699,4.82431 4.71859,-6.13971 m 3.64398,7.68359 8.09959,2.59088 m -8.09959,-2.59088 -3.64398,-7.68359 m 3.64398,7.68359 -8.36257,-1.54388 m -2.18627,6.45184 -5.26034,-4.32839 m 5.26034,4.32839 2.18627,-6.45184 m -2.18627,6.45184 1.86808,6.55106 m 5.25141,-5.03936 -4.93322,-7.96354 m 4.93322,7.96354 3.42935,-6.41966 m -3.42935,6.41966 -5.25141,5.03936 m 5.25141,-5.03936 -7.11949,-1.5117 m -7.77125,5.75791 -8.84119,-3.92164 m 8.84119,3.92164 9.63933,0.79315 m -9.63933,-0.79315 7.77125,-5.75791 m 9.74779,9.50647 3.98891,7.41032 m -3.98891,-7.41032 -7.87971,-2.95541 m 7.87971,2.95541 -2.6283,-7.99477 m -41.395424,-9.02945 11.643222,-2.09044 m -11.643222,2.09044 -5.457478,-4.54796 m 5.457478,4.54796 4.303358,-5.65235 m -4.303358,5.65235 2.960761,6.45769 m -8.104253,-0.1919 -1.240018,8.01113 m 1.240018,-8.01113 -0.313986,-10.81375 m 0.313986,10.81375 8.104253,0.1919 m -8.104253,-0.1919 5.143492,-6.26579 m -14.682888,8.89075 -9.882468,0.47674 m 9.882468,-0.47674 8.299378,5.38617 m -8.299378,-5.38617 9.539396,-2.62496 m 53.659966,-10.11269 4.40789,9.04757 m -4.40789,-9.04757 7.41141,-0.6232 m -7.41141,0.6232 -7.33568,-1.2269 m 7.33568,1.2269 -3.6917,6.45669 m 6.89791,-12.70851 2.52652,-6.55605 m -2.52652,6.55605 4.2052,5.62862 m -4.2052,-5.62862 9.80363,-3.47018 m -9.80363,3.47018 -3.20621,6.25182 m -24.63669,11.11342 5.13581,-4.07716 m -5.13581,4.07716 -0.37963,-9.43668 m 0.37963,9.43668 -6.21629,2.0875 m 6.21629,-2.0875 10.39615,0.25123 m -10.39615,-0.25123 2.6249,6.00914 m -7.60333,-10.53483 -7.258132,-4.83127 m 7.258132,4.83127 -1.71606,-9.30042 m 1.71606,9.30042 4.5988,-4.91099 m -4.5988,4.91099 -1.23786,6.61319 m 1.23786,-6.61319 4.97843,4.52569 m -11.660926,-2.35408 -0.575636,-7.00288 m 0.575636,7.00288 -9.258097,1.54525 m 9.258097,-1.54525 5.444636,4.44158 m -5.444636,-4.44158 6.682496,-2.17161 m -9.86226,11.62738 -6.078333,-7.91052 m 6.078333,7.91052 8.6244,-5.01419 m -8.6244,5.01419 3.179764,-9.45577 m 36.273046,6.21344 4.43246,-5.92521 m -4.43246,5.92521 -3.66713,-8.51609 m 3.66713,8.51609 -7.09648,-2.09643 m 7.09648,2.09643 -4.46818,5.89834 m 11.41908,-5.31908 8.33223,-3.04702 m -8.33223,3.04702 2.27179,6.59466 m -2.27179,-6.59466 -2.51844,-6.50447 m 2.51844,6.50447 -6.9509,-0.57926 m 2.38541,6.44859 6.83728,0.72533 m -6.83728,-0.72533 -2.86468,6.86007 m 2.86468,-6.86007 -6.85359,-0.55025 m 6.85359,0.55025 -2.38541,-6.44859 m 2.38541,6.44859 4.56549,-5.86933 m -70.370923,6.65069 -9.205438,2.21536 m 9.205438,-2.21536 8.544609,-4.07891 m -8.544609,4.07891 0.245231,-9.46508 m -5.261191,-6.39412 -6.554531,-5.05995 m 6.554531,5.05995 -4.621277,6.87086 m 4.621277,-6.87086 5.261191,6.39412 m -3.946521,-14.87237 -7.869201,3.4183 m 7.869201,-3.4183 5.025814,-6.95344 m -5.025814,6.95344 -1.31467,8.47825 m 8.24184,-1.41997 6.244761,-5.62462 m -6.244761,5.62462 6.558747,5.18913 m -6.558747,-5.18913 -2.980649,7.81409 m 2.980649,-7.81409 -8.24184,1.41997 m 8.24184,-1.41997 -6.92717,-7.05828 m 36.796823,26.12646 -0.50392,-10.79082 m 0.50392,10.79082 8.33727,-6.86918 m -8.33727,6.86918 -9.12832,-5.77663 m 21.71115,6.28132 5.39377,-6.58072 m -5.39377,6.58072 -4.24556,-7.37387 m 4.24556,7.37387 -0.69777,8.48008 m -50.69921,-14.30298 -3.91862,-5.45914 m 3.91862,5.45914 -3.486821,5.74456 m 3.486821,-5.74456 5.963848,-5.93588 m -5.963848,5.93588 5.718617,3.5292 m -2.772677,8.71203 -6.432761,-6.49667 m 6.432761,6.49667 -7.682429,4.95656 m 7.682429,-4.95656 2.772677,-8.71203 m -12.866013,-27.61241 -1.295522,-6.69326 m 1.295522,6.69326 1.295522,6.69326 m -1.295522,-6.69326 9.164723,3.27496 m -2.811468,-7.97668 -7.648777,-1.99154 m 7.648777,1.99154 7.837282,1.02324 m -7.837282,-1.02324 2.811468,7.97668 m -2.811468,-7.97668 -6.353255,4.70172 m -2.271661,-14.22073 -0.97614,-7.52747 m 0.97614,7.52747 0.976139,7.52747 m 12.409459,-3.94626 5.919614,-6.02463 m -5.919614,6.02463 3.0766,6.96104 m -3.0766,-6.96104 -4.760682,5.9378 m 11.67097,-4.83156 -0.990674,-7.13087 m 0.990674,7.13087 5.144089,-10.13485 m -5.144089,10.13485 6.893808,1.20468 m -6.893808,-1.20468 7.635645,8.12573 m -7.635645,-8.12573 -3.833688,5.8548 m 3.833688,-5.8548 -6.910288,-1.10624 m 4.762844,13.47282 6.459873,1.87532 m -6.459873,-1.87532 9.783089,-4.24085 m -9.783089,4.24085 -1.686244,-6.51178 m 1.686244,6.51178 -6.712058,0.44166 m 6.712058,-0.44166 0.215112,7.49994 m 50.646173,23.46073 9.0687,-0.10285 m -9.0687,0.10285 -2.79992,-10.46858 m 2.79992,10.46858 5.07979,-7.51317 m -5.07979,7.51317 -8.89146,4.59222 m 8.89146,-4.59222 -8.19369,-3.88786 m -6.45146,3.7379 2.2059,-11.11177 m -2.2059,11.11177 5.75369,4.74218 m -5.75369,-4.74218 -6.13137,-4.24259 m 6.13137,4.24259 6.45146,-3.7379 m -11.17905,15.33547 10.48128,-6.85539 m -10.48128,6.85539 4.72759,-11.59757 m -7.18586,3.83314 1.05449,-8.07573 m -1.05449,8.07573 7.18586,-3.83314 m -7.18586,3.83314 2.45827,7.76443 M 94.166354,162.34407 93.34261,153.5451 m 0.823744,8.79897 8.304576,-3.02234 m -8.304576,3.02234 7.250086,5.05339 m -4.391028,5.6616 6.849298,2.10283 m -6.849298,-2.10283 4.391028,-5.6616 m -4.391028,5.6616 -6.830657,2.16263 m 1.69025,-6.52996 9.531435,-1.29427 m -9.531435,1.29427 -1.69025,6.52996 m 1.69025,-6.52996 2.281349,-6.34766 m -2.281349,6.34766 5.140407,4.36733 m -16.456799,-3.81279 9.626142,5.97542 m -9.626142,-5.97542 11.316392,-0.55454 m -5.95223,-5.72302 7.409835,-9.42361 m -7.409835,9.42361 8.233579,-0.62464 m -8.233579,0.62464 5.95223,5.72302 m -5.95223,-5.72302 -5.364162,6.27756 m -2.629322,-7.67736 -0.01928,-8.1151 m 0.01928,8.1151 -8.563894,-4.03619 m 8.563894,4.03619 2.629322,7.67736 m -2.629322,-7.67736 7.993484,1.3998 m -12.255085,4.34862 -4.302293,-9.78461 m 4.302293,9.78461 -7.07497,-1.07258 m 7.07497,1.07258 6.890923,1.92894 m -6.890923,-1.92894 4.261601,-5.74842 m -3.909335,17.76299 6.538657,-10.08563 M 74.029956,179.3319 73.67769,167.31733 m -4.550515,6.14587 -2.524455,-7.21845 m 2.524455,7.21845 4.550515,-6.14587 m -4.550515,6.14587 4.902781,5.8687 m -8.734965,2.31502 -8.777224,2.14926 m 8.777224,-2.14926 8.734965,-2.31502 m -8.734965,2.31502 3.832184,-8.18372 m 58.761645,-0.36394 4.42733,-9.48783 m -4.42733,9.48783 8.50796,6.10204 m -8.50796,-6.10204 -4.64137,-9.38498 m -65.528421,13.78447 1.201262,-6.29744 m -1.201262,6.29744 -1.201262,6.29743 m 1.201262,-6.29743 7.575962,4.14817 m -1.931613,-6.33478 -4.443087,-4.11083 m 4.443087,4.11083 3.239342,-9.06739 m -3.239342,9.06739 5.763797,-1.84894 m -5.763797,1.84894 1.931613,6.33478 m -1.931613,-6.33478 -5.644349,2.18661 m 5.447231,14.4518 -6.648493,-8.15437 m 6.648493,8.15437 -9.098693,6.07912 m 9.098693,-6.07912 2.128731,-10.30363 m -2.128731,10.30363 10.208524,2.54602 m -2.036614,-7.68448 2.691786,-7.48019 m -2.691786,7.48019 -6.043179,-5.16517 m 6.043179,5.16517 2.036614,7.68448 m -2.036614,-7.68448 -8.17191,5.13846 m 14.720724,-7.00626 -3.857028,-5.61239 m 3.857028,5.61239 -6.548814,1.8678 m 6.548814,-1.8678 6.407706,2.30585 m -2.045509,-9.43523 7.945574,-2.59322 m -7.945574,2.59322 -1.680568,-8.56864 m 1.680568,8.56864 -8.219225,1.51699 m 8.219225,-1.51699 2.045509,9.43523 m -2.045509,-9.43523 -4.362197,7.12938 m 1.296187,6.45413 -5.808387,3.09815 m 5.808387,-3.09815 -7.845001,-4.58633 m 7.845001,4.58633 5.111519,-4.14828 m -5.111519,4.14828 -1.296187,-6.45413 m 10.504019,12.57669 -4.096313,-10.27084 m 4.096313,10.27084 -9.207832,-6.12256 m 0.885354,8.6537 -6.693741,-5.55555 m 6.693741,5.55555 -0.885354,-8.6537 m 0.885354,8.6537 8.322478,-2.53114 m -2.329108,7.28967 2.329108,-7.28967 m -2.329108,7.28967 -5.99337,-4.75853 m 5.99337,4.75853 2.226741,7.3216 m -10.490226,-0.80898 2.270115,-11.27115 m -2.270115,11.27115 10.490226,0.80898 m -10.490226,-0.80898 -9.985488,-3.31502 m 9.985488,3.31502 8.263485,-6.51262 m -13.361546,-2.69114 0.674435,-7.62294 m -0.674435,7.62294 7.368176,-2.06739 m -7.368176,2.06739 -4.887427,5.88874 m 4.887427,-5.88874 5.098061,9.20376 M 64.481835,200.27102 54.067567,198.02967 m 10.414268,2.24135 8.892949,-5.77445 m -8.892949,5.77445 -1.315575,-8.32047 m 1.315575,8.32047 3.331087,7.73723 m -3.331087,-7.73723 8.218514,1.84849 m -19.178895,3.79358 0.546113,-7.88342 m -0.546113,7.88342 -0.546112,7.88342 m 9.628619,2.77053 -9.628619,-2.77053 m 9.628619,2.77053 5.208961,-8.55879 m -7.073493,-1.54035 -6.671862,-8.43823 m 6.671862,8.43823 -7.764087,7.32861 m 7.764087,-7.32861 7.073493,1.54035 m -7.073493,-1.54035 3.742406,-6.19688 m -3.742406,6.19688 -7.217975,-0.55481 m 7.217975,0.55481 1.864532,10.09914 m 206.848719,-64.14501 9.96699,4.54106 m -9.96699,-4.54106 -3.69867,7.64063 m 3.69867,-7.64063 3.61739,8.22135 m -3.61739,-8.22135 8.6592,-3.68407 m -8.6592,3.68407 -8.36444,-1.44765 m 8.36444,1.44765 -4.48707,-7.20595 m 7.23194,1.63909 4.60654,-6.34235 m -4.60654,6.34235 5.91433,1.88279 m -5.91433,-1.88279 -7.23194,-1.63909 m 7.23194,1.63909 -2.05415,-5.85702 m 2.05415,5.85702 -2.74487,5.56686 m -21.54251,19.53251 5.9961,-2.8843 m -5.9961,2.8843 4.92932,-9.38906 m -4.92932,9.38906 -4.96816,-4.42603 m 4.96816,4.42603 -10.56324,-0.71806 m 10.56324,0.71806 -1.81971,6.40008 m 8.02376,-1.17737 -0.20795,-8.10701 m 0.20795,8.10701 8.05108,1.04073 m -8.05108,-1.04073 -8.02376,1.17737 m 8.02376,-1.17737 0.0797,8.8758 m -0.0797,-8.8758 -6.20405,-5.22271 m -10.42463,-72.253162 7.1003,3.468762 m -7.1003,-3.468762 -7.1003,-3.468763 m 7.1003,3.468763 -3.92413,7.472192 m 35.30563,80.98781 -4.75919,6.9671 m 4.75919,-6.9671 4.7592,-6.9671 m -4.7592,6.9671 -6.70174,-9.9434 m -0.78551,9.93793 2.72806,6.97257 m -2.72806,-6.97257 0.78551,-9.93793 m -0.78551,9.93793 -7.18589,-2.10286 m 7.18589,2.10286 7.48725,0.005 m -11.04948,12.54712 -6.29028,5.58002 m 6.29028,-5.58002 6.29029,-5.58002 m -8.16203,-1.73289 8.16203,1.73289 m -8.16203,-1.73289 -11.16402,-0.29023 m 11.16402,0.29023 -1.75192,-7.34254 m 1.75192,7.34254 5.43397,-5.23968 m -5.43397,5.23968 1.87174,7.31291 m -7.39676,-2.00279 1.10648,7.58281 m -1.10648,-7.58281 -5.639,-5.60035 m 5.639,5.60035 7.39676,2.00279 m -7.39676,-2.00279 5.52502,-5.31012 m -11.4433,17.01335 -7.02476,4.12043 m 7.02476,-4.12043 7.02476,-4.12042 m -19.0625,-74.70778 1.9829,5.87918 m -1.9829,-5.87918 3.75209,-4.94151 m -3.75209,4.94151 9.39954,1.53683 m -9.39954,-1.53683 -6.12326,-1.00116 m 3.89348,-4.58714 5.98187,0.64679 m -5.98187,-0.64679 -3.89348,4.58714 m 3.89348,-4.58714 -1.65905,-8.22481 m 1.65905,8.22481 2.22978,5.5883 m -3.57821,4.48082 5.56111,1.39836 m -5.56111,-1.39836 -2.52079,5.15044 m 2.52079,-5.15044 -2.54505,-5.48198 m 2.54505,5.48198 3.57821,-4.48082 m -9.20492,4.91903 3.10592,4.71223 m -3.10592,-4.71223 3.08166,-5.92019 m -3.08166,5.92019 -4.59924,3.27091 m 4.59924,-3.27091 5.62671,-0.43821 m -10.49773,-1.54199 -5.24875,-0.31403 m 5.24875,0.31403 7.95268,-3.93999 m -7.95268,3.93999 0.27178,5.25111 m -0.27178,-5.25111 4.87102,1.9802 m -7.11664,-8.46772 -3.00313,6.17349 m 3.00313,-6.17349 10.1983,2.54753 m -10.1983,-2.54753 -5.43739,-4.19111 m 5.43739,4.19111 2.24562,6.48752 m 15.4126,-13.52625 6.40598,-4.56647 m -6.40598,4.56647 2.41543,5.64591 m -2.41543,-5.64591 -5.22549,-3.22569 m 5.22549,3.22569 -3.56644,4.99912 m -11.28581,-7.22343 -8.24336,5.07193 m 8.24336,-5.07193 -2.80597,9.26304 m 17.96625,-13.38312 6.09795,1.77792 m -6.09795,-1.77792 -0.54806,-7.47536 m 0.54806,7.47536 -5.53352,3.1187 m 5.53352,-3.1187 -0.30803,6.34439 m -10.35736,3.18105 2.89744,6.40521 m -2.89744,-6.40521 5.13187,-6.40674 m -5.13187,6.40674 6.79092,1.81807 m -6.79092,-1.81807 -7.30086,3.85768 m 7.30086,-3.85768 -4.49489,-5.40536 m 9.62548,-7.47206 4.98674,-4.12338 m -4.98674,4.12338 -9.25605,-5.92019 m 9.25605,5.92019 0.001,6.47068 m -0.001,-6.47068 5.5348,3.35198 m 4.44552,-3.90096 6.03085,-7.57783 m -6.03085,7.57783 1.65243,5.67888 m -1.65243,-5.67888 5.90839,-0.26687 m -5.90839,0.26687 -4.99358,-3.5744 m 4.99358,3.5744 -1.06945,-11.046592 m 1.06945,11.046592 -4.44552,3.90096 m -10.73541,-0.11561 -4.05544,-9.15656 m 4.05544,9.15656 5.20189,3.23431 m -5.20189,-3.23431 -4.42487,4.23569 m 4.42487,-4.23569 0.07,9.64105 m -0.07,-9.64105 5.20061,-3.23637 m -1.84603,-7.30967 3.6566,-7.754665 m -3.6566,7.754665 6.83277,3.18629 m -6.83277,-3.18629 -7.41002,1.38948 m 7.41002,-1.38948 1.84603,7.30967 m -11.85946,0.70922 2.60341,-6.62941 m -2.60341,6.62941 2.23398,6.76284 m -2.23398,-6.76284 6.65885,2.52715 m 0.23535,-20.798109 6.77583,2.497404 m -6.77583,-2.497404 -6.77583,-2.497405 m 6.77583,2.497405 3.11923,10.252069 m -14.41943,13.22473 -7.27704,-2.37996 m 7.27704,2.37996 -1.60338,6.62893 m 1.60338,-6.62893 6.63998,1.557 m -6.63998,-1.557 4.406,-5.20584 m -6.4162,-0.96295 -5.26684,3.78883 m 5.26684,-3.78883 6.4162,0.96295 m -6.4162,-0.96295 2.0102,6.16879 m -10.40922,-12.28912 8.39902,6.12033 m 7.77709,-12.735937 -1.24252,-7.069477 m 1.24252,7.069477 1.24252,7.069477 m -1.24252,-7.069477 8.65254,5.679997 m -8.65254,-5.679997 5.53331,-4.572072 m -12.01671,9.355519 7.72592,2.28603 m -7.72592,-2.28603 5.12251,8.91544 m -5.12251,-8.91544 -1.29369,7.95249 m 1.29369,-7.95249 -9.69271,1.83216 m 9.69271,-1.83216 6.4834,-4.783447 m -6.81152,-2.446747 5.569,-4.62273 m -5.569,4.62273 -6.53974,-8.839518 m 6.53974,8.839518 6.81152,2.446747 m -6.81152,-2.446747 0.32812,7.230194 m -4.57095,27.08362 6.11834,4.03119 m -6.11834,-4.03119 -5.3855,5.38714 m 5.3855,-5.38714 -6.85043,-2.59925 m 6.85043,2.59925 3.68408,-6.33341 m -3.68408,6.33341 9.12147,-2.1423 m 14.32749,89.41569 -7.00705,2.91837 m 7.00705,-2.91837 7.00705,-2.91837 m -7.00705,2.91837 -5.67924,-6.94523 m -33.38988,-39.48626 4.79195,8.34313 m -4.79195,-8.34313 11.1722,1.25628 m -11.1722,-1.25628 6.20807,-4.68487 m -6.20807,4.68487 -3.7001,-6.84086 m 3.7001,6.84086 -6.28998,4.5743 m -15.71191,-59.53574 -3.78616,6.53463 m 3.78616,-6.53463 6.81269,3.2594 m -6.81269,-3.2594 11.83715,-2.20861 m -11.83715,2.20861 0.55658,-7.5317 m -0.55658,7.5317 -7.1497,-3.18905 m 34.93173,-23.010647 7.54311,-2.834095 m -7.54311,2.834095 -3.00052,-7.478468 m 3.00052,7.478468 -7.87487,1.707936 m 14.06078,3.300973 1.3572,-7.843004 m -1.3572,7.843004 -1.46765,10.058868 m 1.46765,-10.058868 8.22506,8.226708 m -8.22506,-8.226708 7.89694,0.996514 m -7.89694,-0.996514 -6.18591,-5.008909 m -0.41269,6.833867 -4.76361,4.91733 m 4.76361,-4.91733 -7.46218,-5.125931 m 7.46218,5.125931 5.13095,8.23391 m -5.13095,-8.23391 0.41269,-6.833867 m -0.41269,6.833867 6.5986,-1.824958 m 2.26987,119.073528 6.20725,4.1098 m -6.20725,-4.1098 -3.45518,5.8003 m 3.45518,-5.8003 6.0312,-3.03421 m -6.0312,3.03421 -4.24139,-5.25284 m 4.24139,5.25284 -9.83271,0.6994 m -53.46221,-32.83545 9.47173,-0.33447 m -9.47173,0.33447 3.75715,-5.29126 m -3.75715,5.29126 -1.33414,6.35088 m 1.33414,-6.35088 -5.94581,-2.6002 m 10.84097,6.9441 4.57657,-4.67837 m -4.57657,4.67837 -6.2293,2.00698 m 6.2293,-2.00698 6.10006,2.77725 m -6.10006,-2.77725 -0.61501,11.20202 m 0.61501,-11.20202 -4.89516,-4.3439 m 16.65762,-126.586572 6.03091,4.609095 m -6.03091,-4.609095 -6.03091,-4.609095 m 25.78131,124.072557 -4.28232,-4.79124 m 4.28232,4.79124 1.4438,-9.7102 m -1.4438,9.7102 6.361,0.91216 m -6.361,-0.91216 -3.03519,5.66409 m -6.52206,0.86716 -2.66218,-6.01682 m 2.66218,6.01682 -9.29502,-4.7657 m 9.29502,4.7657 -3.97234,5.24499 m 3.97234,-5.24499 6.52206,-0.86716 m -6.52206,0.86716 -10.50762,2.29942 m 14.80802,5.08426 -8.27274,-2.13869 m 8.27274,2.13869 2.22166,-8.25084 m -2.22166,8.25084 -4.3004,-7.38368 m 11.09172,4.78781 -4.56966,-5.65497 m 4.56966,5.65497 6.1506,3.87695 m -6.1506,-3.87695 -6.79132,2.59587 m 13.20034,-5.94617 9.49944,-3.28777 m -9.49944,3.28777 -1.58249,-7.0566 m 1.58249,7.0566 -10.97868,-2.30467 m 10.97868,2.30467 -0.25842,7.22725 m 0.25842,-7.22725 -6.40902,3.3503 m -0.80053,8.08731 6.95113,-4.21036 m -6.95113,4.21036 -5.99079,-5.49144 m 5.99079,5.49144 0.80053,-8.08731 m 13.06231,0.50584 2.84615,-7.14391 m -2.84615,7.14391 -6.91171,3.37111 m 6.91171,-3.37111 -6.65329,-3.85614 m 1.17379,17.43499 -0.21847,10.30541 m 0.21847,-10.30541 -1.43221,-10.20774 m 1.43221,10.20774 -8.38334,-5.99738 m -10.61918,5.5713 10.61918,-5.5713 m 20.65644,-9.01379 6.77698,1.50901 m -6.77698,-1.50901 -3.94745,-5.71159 m 3.94745,5.71159 -6.7936,1.43232 m 9.30801,-7.39 4.26257,7.46669 m -4.26257,-7.46669 6.46589,0.0919 m -6.46589,-0.0919 -6.46186,0.24609 m 6.46186,-0.24609 -0.0816,-6.84076 m 0.0816,6.84076 -2.51441,5.95768 m 2.13091,6.4023 4.64607,-4.89329 m -4.64607,4.89329 0.0952,6.74694 m -0.0952,-6.74694 -8.92451,-4.96998 m 8.92451,4.96998 -2.13091,-6.4023 m 7.43842,9.70153 -0.66144,-8.19252 m 0.66144,8.19252 7.28519,3.58384 m -7.28519,-3.58384 5.14783,-3.54323 m -5.14783,3.54323 -5.21227,3.44771 m 5.21227,-3.44771 3.22568,9.23035 m -3.22568,-9.23035 -5.30751,-3.29923 m -7.69311,3.48274 7.78835,3.2642 m -7.78835,-3.2642 -8.14311,-5.08161 m 8.14311,5.08161 -1.2314,-8.45272 m 1.2314,8.45272 -6.7109,5.12613 m 6.7109,-5.12613 7.69311,-3.48274 m -34.27654,1.31923 -2.77434,-6.33787 m 2.77434,6.33787 -10.76541,2.66915 m 10.76541,-2.66915 5.4984,-4.19918 m -5.4984,4.19918 11.48919,1.29226 m -11.48919,-1.29226 0.87001,6.86356 m 26.96595,3.23498 6.53582,-4.67083 m -6.53582,4.67083 5.5648,5.79367 m -5.5648,-5.79367 -8.1819,7.49651 m 8.1819,-7.49651 -0.0265,11.74591 m 0.0265,-11.74591 -7.96343,-2.8089 m 7.96343,2.8089 -1.25253,-7.93503 m -9.8683,42.78294 -4.64698,3.40443 m 4.64698,-3.40443 4.64698,-3.40443 m -9.99222,0.98201 0.69826,5.82685 m -0.69826,-5.82685 -0.69827,-5.82685 m 0.69827,5.82685 5.34524,2.42242 m -0.64665,-5.94074 5.29363,2.53631 m -5.29363,-2.53631 6.15111,-4.40698 m -6.15111,4.40698 -5.39686,-2.30853 m 5.39686,2.30853 -0.1731,-6.38571 m 0.1731,6.38571 0.64665,5.94074 m -0.64665,-5.94074 -4.69859,3.51832 m -8.99465,4.03315 -0.0133,10.17179 m 0.0133,-10.17179 9.69291,1.7937 m -9.69291,-1.7937 8.99465,-4.03315 m -6.38365,-2.19027 5.68538,-3.63658 m -5.68538,3.63658 6.38365,2.19027 m -6.38365,-2.19027 -2.611,6.22342 m -8.67421,-7.29864 8.67421,7.29864 m -8.67421,-7.29864 11.28521,1.07522 m -0.60737,-7.21208 6.29275,3.5755 m -6.29275,-3.5755 2.36657,-6.83976 m -2.36657,6.83976 0.60737,7.21208 m 2.22881,12.20617 -4.85311,4.18904 m 4.85311,-4.18904 4.8531,-4.18905 m -4.8531,4.18905 -4.83981,-5.98275 m 11.39422,-26.83881 6.69981,8.1068 m -6.69981,-8.1068 -0.0407,6.25584 m 0.0407,-6.25584 -4.02582,-4.78851 m 4.02582,4.78851 5.8846,-2.12332 m -11.70744,2.93216 -1.20118,5.75471 m 1.20118,-5.75471 5.78211,5.447 m -5.78211,-5.447 1.79702,-5.59735 m -1.79702,5.59735 5.82284,-0.80884 m -12.97445,2.31881 5.95043,4.24474 m -5.95043,-4.24474 3.58386,11.0845 m -3.58386,-11.0845 -6.20091,3.86965 m 6.20091,-3.86965 7.15161,-1.50997 m -4.70602,-4.598 6.50304,-0.99935 m -6.50304,0.99935 -2.37059,-9.06565 m 2.37059,9.06565 4.70602,4.598 m -4.70602,-4.598 -2.44559,6.10797 m -8.57177,-6.97567 8.57177,6.97567 m -2.82439,-9.57268 2.89939,-5.60094 m -2.89939,5.60094 2.82439,9.57268 m -2.82439,-9.57268 5.26998,3.46471 m -5.26998,-3.46471 -5.74738,2.59701 m 0.44887,-6.66482 -3.43752,-5.72754 m 3.43752,5.72754 8.1979,-1.53313 m -8.1979,1.53313 7.32789,-8.39669 m -7.32789,8.39669 -0.44887,6.66482 m 0.44887,-6.66482 5.29851,4.06781 m -13.60889,-1.27999 4.87286,-8.51536 m -4.87286,8.51536 -5.73435,-6.62959 m 5.73435,6.62959 7.86151,3.877 m -7.86151,-3.877 8.31038,-2.78782 m -9.06675,14.23055 0.75637,-11.44273 m -7.05484,0.30739 1.32049,-6.93698 m -1.32049,6.93698 7.05484,-0.30739 m -7.05484,0.30739 -5.34082,4.61961 m 6.47447,2.08813 5.92119,-7.01513 m -5.92119,7.01513 5.16482,4.4276 m -5.16482,-4.4276 -6.47447,-2.08813 m 6.47447,2.08813 -1.13365,-6.70774 m 0.19059,13.03403 6.10788,-1.89869 m -6.10788,1.89869 -5.53141,-8.41442 m 5.53141,8.41442 0.94306,-6.32629 m -0.94306,6.32629 -5.64265,3.01193 m 11.74126,5.83316 0.009,-10.74378 m -6.21186,8.4954 6.21186,-8.4954 m -6.21186,8.4954 -5.53867,-3.58478 m 5.53867,3.58478 0.10398,-6.59671 m -0.10398,6.59671 6.20259,2.24838 m -6.70675,8.82212 0.50416,-11.0705 m -7.30412,5.2141 1.76545,-8.79888 m -1.76545,8.79888 7.30412,-5.2141 m -7.30412,5.2141 6.79996,5.8564 m -8.89248,-36.06762 3.96921,9.98599 m -3.96921,-9.98599 9.31003,5.36638 m -8.0566,32.6951 7.63905,-1.99386 m -7.63905,1.99386 0.83909,-7.85026 m -0.83909,7.85026 -5.1521,5.98218 m -5.44885,-9.90246 11.44004,-3.92998 m -11.44004,3.92998 10.60095,3.92028 m 1.75407,6.72036 -6.90617,-0.73818 m 6.90617,0.73818 -1.75407,-6.72036 m 1.75407,6.72036 5.26275,4.53249 m 1.08965,-6.58678 -0.46742,-6.65993 m 0.46742,6.65993 -8.10647,-4.66607 m 8.10647,4.66607 -1.08965,6.58678 m 1.08965,-6.58678 -6.3524,2.05429 m -4.63681,10.70546 -2.26936,-11.44364 m 2.26936,11.44364 9.89956,-6.17297 m -9.89956,6.17297 4.63681,-10.70546 m 15.01919,-6.00892 7.67748,-5.6399 m -7.67748,5.6399 -9.13421,-2.7053 m 9.13421,2.7053 -8.66679,3.95463 m 7.33306,4.59662 -8.42271,1.99016 m 8.42271,-1.99016 -7.33306,-4.59662 m 7.33306,4.59662 1.33373,-8.55125 m -21.42038,-14.23904 7.25166,-3.12154 m -7.25166,3.12154 5.48621,5.67734 m -5.48621,-5.67734 -7.7407,-1.55314 m 7.7407,1.55314 -5.95383,9.60732 m 3.96315,-19.75201 9.35358,-4.4032 m -9.35358,4.4032 -5.75002,8.59155 m 5.75002,-8.59155 1.99068,10.14469 m 18.02355,8.93505 0.96937,-6.22343 m -0.96937,6.22343 -5.23322,-8.47181 m 5.23322,8.47181 -5.73738,2.59869 m 5.73738,-2.59869 3.39683,5.30399 m 2.0746,-7.63897 5.60288,1.99907 m -5.60288,-1.99907 -4.50206,-3.88845 m 4.50206,3.88845 -2.0746,7.63897 m 2.0746,-7.63897 -5.47143,2.33498 m 7.19648,-8.88272 3.87783,8.54681 m -3.87783,-8.54681 4.7709,-4.8049 m -4.7709,4.8049 -6.21784,-8.08449 m 6.21784,8.08449 -6.22711,2.65929 m 6.22711,-2.65929 -1.72505,6.54774 m 8.58518,-4.50717 8.30291,7.58146 m -8.30291,-7.58146 -2.9823,6.50624 m 2.9823,-6.50624 7.69554,0.36938 m -7.69554,-0.36938 -2.08923,-6.84547 m 2.08923,6.84547 4.11168,-10.71512 m -4.11168,10.71512 -6.86013,-2.04057 m 4.17523,16.99721 8.36351,9.02003 m -8.36351,-9.02003 8.37681,-1.15176 m -8.37681,1.15176 -0.2974,-8.4504 m 0.2974,8.4504 -7.97488,-2.8105 m 7.97488,2.8105 -9.30861,5.74075 m -2.27762,9.17896 8.84828,3.339 m -8.84828,-3.339 -6.14509,-7.1888 m 6.14509,7.1888 2.27762,-9.17896 m 0.0165,16.93262 -6.55418,4.41465 m 6.55418,-4.41465 6.55419,-4.41466 m -6.55419,4.41466 -2.29409,-7.75366 m -8.09894,0.70224 1.95385,-7.89104 m -1.95385,7.89104 -7.94571,-1.71807 m 7.94571,1.71807 8.09894,-0.70224 m -11.82899,15.60251 -7.56889,3.43421 m 7.56889,-3.43421 7.5689,-3.4342 m -3.14317,-171.468986 6.75623,-1.480807 m -6.75623,1.480807 3.83923,10.016116 m -3.83923,-10.016116 7.00323,-8.483232 m -7.00323,8.483232 -4.34917,-5.37811 m 4.34917,5.37811 0.31317,-10.63737 m -0.31317,10.63737 -5.19862,4.562196 m -9.54704,0.37376 4.67519,8.33235 m -4.67519,-8.33235 9.54704,-0.37376 m -9.54704,0.37376 -7.65215,5.72103 m 12.21895,-11.188279 5.82969,-4.846817 m -5.82969,4.846817 4.98024,5.093489 m -4.98024,-5.093489 -2.69772,-6.593082 m 2.69772,6.593082 -4.5668,5.467249 m -2.25488,-6.524455 4.12396,-5.535876 m -4.12396,5.535876 2.25488,6.524455 m -2.25488,-6.524455 6.82168,1.057206 m -10.83601,3.982038 -1.38294,7.206241 m 1.38294,-7.206241 -6.215,-1.697796 m 6.215,1.697796 6.26921,1.485211 m -6.26921,-1.485211 4.01433,-5.039244 m -10.18454,-49.226108 7.03338,-8.061928 m -7.03338,8.061928 8.66226,0.350982 m -8.66226,-0.350982 2.54245,8.288173 m -2.54245,-8.288173 -1.37991,-8.69996 m 1.37991,8.69996 -6.25491,6.002835 m 0.36771,-9.528476 -3.90599,-5.812351 m 3.90599,5.812351 4.50729,-5.174319 m -4.50729,5.174319 -0.36771,9.528476 m 0.36771,-9.528476 -6.26079,2.809228 m 6.26079,-2.809228 5.8872,3.525641 m -34.223358,24.00973 1.609407,6.184357 m -1.609407,-6.184357 9.68021,5.073238 m -9.68021,-5.073238 4.207753,-4.8095 m -4.207753,4.8095 0.727652,-10.153089 m -0.727652,10.153089 -6.101133,-1.900698 m 1.339949,6.441335 6.370591,1.64372 m -6.370591,-1.64372 -1.339949,-6.441335 m 1.339949,6.441335 -9.442848,0.534826 m 9.442848,-0.534826 4.761184,-4.540637 m -3.086518,11.217265 4.695925,-5.032908 m -4.695925,5.032908 3.656739,5.831821 m -3.656739,-5.831821 -7.142504,4.05522 m 7.142504,-4.05522 -1.674666,-6.676628 m -4.48313,4.474707 -4.959718,-3.939881 m 4.959718,3.939881 -0.984708,6.257141 m 0.984708,-6.257141 4.48313,-4.474707 m -4.48313,4.474707 6.157796,2.201921 m -12.016875,0.08207 -9.744272,-5.2056 m 9.744272,5.2056 0.899361,-6.223871 m -0.899361,6.223871 4.874371,3.973151 m -4.874371,-3.973151 5.859079,-2.28399 M 63.023277,89.84685 53.373368,91.883976 M 63.023277,89.84685 71.3666,84.587613 m -8.343323,5.259237 3.468952,-9.232388 m -11.431566,3.031957 1.687294,-8.237557 m -1.687294,8.237557 -1.687295,8.237557 m 1.687295,-8.237557 11.431566,-3.031957 m -11.431566,3.031957 7.962614,6.200431 m 7.082365,1.98796 7.071116,2.027609 M 70.105642,91.83481 71.3666,84.587613 m -1.260958,7.247197 2.212736,11.15433 M 70.105642,91.83481 63.023277,89.84685 m 1.313913,8.928916 -10.963822,-6.89179 m 10.963822,6.89179 7.981188,4.213374 M 64.33743,98.776235 63.023517,89.847319 m 1.313913,8.928916 5.768452,-6.940956 m -5.081138,15.304881 -11.763161,1.03195 m 11.763161,-1.03195 8.518191,6.116 m -8.518191,-6.116 7.293874,-4.15055 m -7.293874,4.15055 2.598577,12.14063 M 65.024744,107.14016 64.33743,98.776235 m -11.019834,1.252045 0.05601,-8.143835 m -0.05601,8.143835 -0.05601,8.14383 m 0.05601,-8.14383 11.019834,-1.252045 m -11.019834,1.252045 11.707148,7.11188 m 13.062611,-6.93619 -0.910357,-6.341082 m 0.910357,6.341082 4.930624,4.08988 m -4.930624,-4.08988 1.590343,10.04821 m -1.590343,-10.04821 -5.768737,2.78564 m 10.675512,-6.725968 5.67952,2.710297 m -5.67952,-2.710297 6.547025,-4.729591 m -6.547025,4.729591 -5.817132,-2.400754 m 5.817132,2.400754 -0.828047,-9.898959 m 0.828047,9.898959 0.02385,8.030208 m -0.02385,-8.030208 -4.906775,3.940328 m 44.525835,28.15455 3.95945,-5.0563 m -3.95945,5.0563 -0.82867,-10.03652 m 0.82867,10.03652 -6.42076,0.1317 m 6.42076,-0.1317 -7.90446,7.05997 m 7.90446,-7.05997 2.87112,5.74457 m 3.10625,-5.14227 -2.01792,-5.6586 m 2.01792,5.6586 -3.10625,5.14227 m 3.10625,-5.14227 4.22943,6.36917 m -4.22943,-6.36917 7.43564,0.11735 m -7.43564,-0.11735 -5.97737,-0.6023 m 9.76778,-3.93851 6.17175,-1.89789 m -6.17175,1.89789 3.60534,-8.56854 m -3.60534,8.56854 -5.80833,-1.11779 m 5.80833,1.11779 -4.24386,-8.8134 m 4.24386,8.8134 3.64523,4.65816 m -3.64523,-4.65816 -3.79041,4.54081 m -42.957352,24.21756 -7.713202,0.27543 m 7.713202,-0.27543 1.631069,-7.5438 m -1.631069,7.5438 -6.473184,-7.7357 m 6.473184,7.7357 7.709402,0.36672 m -7.709402,-0.36672 0.299567,9.79033 m -0.299567,-9.79033 -7.693917,8.39053 m -17.295575,-43.00672 -5.429854,4.66486 m 5.429854,-4.66486 2.218923,6.6564 m -2.218923,-6.6564 -6.405993,-2.86261 m 6.405993,2.86261 6.979605,0.7186 m -7.760805,-7.56945 -6.600933,-3.53923 m 6.600933,3.53923 -5.624793,3.98824 m 5.624793,-3.98824 7.760805,7.56945 m -7.760805,-7.56945 5.162228,-4.57118 m -5.162228,4.57118 0.7812,6.85085 m 73.771014,51.80538 7.07305,0.14633 m -7.07305,-0.14633 9.37074,-6.28959 m -9.37074,6.28959 -2.09858,-6.75614 m 2.09858,6.75614 1.98205,8.83373 m -1.98205,-8.83373 -6.52591,2.73169 m -6.72457,-2.51454 -6.80826,-2.27822 m 6.80826,2.27822 2.0832,-6.87044 m -2.0832,6.87044 6.72457,2.51454 m -7.39453,9.52607 7.39453,-9.52607 m -7.39453,9.52607 0.66996,-12.04061 m -5.69996,5.72179 -1.1083,-8.00001 m 1.1083,8.00001 -11.58958,-1.14462 m 11.58958,1.14462 5.69996,-5.72179 m -5.69996,5.72179 5.03,6.31882 m -65.201623,8.2876 1.2251,-7.11675 m -1.2251,7.11675 -1.2251,7.11674 m 1.2251,-7.11674 7.873593,1.03762 m 28.228353,-1.57978 5.683411,-5.27694 m -5.683411,5.27694 -7.099923,-3.12063 m 7.099923,3.12063 -3.00361,7.15021 m 12.353947,-2.7787 -3.666926,-9.64845 m 3.666926,9.64845 -9.350337,-4.37151 m -20.590056,25.32272 -2.991635,-7.68524 m 2.991635,7.68524 6.993853,-4.37022 m -6.993853,4.37022 -8.200596,0.87355 m 15.896358,3.66091 9.788317,-8.0957 m -9.788317,8.0957 -0.701909,-8.90468 m 0.701909,8.90468 3.245939,8.32165 m -3.245939,-8.32165 -7.695762,-4.53446 m -3.486757,6.19654 -4.713839,-5.32299 m 4.713839,5.32299 3.486757,-6.19654 m -3.486757,6.19654 0.753128,7.07017 m 5.395686,-4.14996 8.279644,3.73936 m -8.279644,-3.73936 -2.662057,-9.11675 m 2.662057,9.11675 5.033705,-4.58229 m -5.033705,4.58229 -5.395686,4.14996 m 5.395686,-4.14996 -6.148814,-2.92021 m 7.700548,10.5204 6.72791,-3.86083 m -6.72791,3.86083 -6.94742,-3.45023 m 6.94742,3.45023 -1.551734,-7.60019 m -19.680934,-2.74178 -0.810338,-8.27195 m 0.810338,8.27195 0.810339,8.27196 m -0.810339,-8.27196 8.818281,-5.50142 m 4.698462,22.66044 -7.407416,7.15107 m 7.407416,-7.15107 0.768505,-10.26728 m -0.768505,10.26728 7.715925,-6.81705 m 6.158558,2.93949 0.569352,-6.80032 m -0.569352,6.80032 -6.158558,-2.93949 m 6.158558,2.93949 3.396512,5.91879 m 7.792964,-8.40595 -7.792964,8.40595 m 7.792964,-8.40595 -11.189476,2.48716 m -5.497907,7.08893 -0.660651,-10.02842 m 0.660651,10.02842 8.894419,-1.17014 m -8.894419,1.17014 -8.376576,-3.21137 m 8.376576,3.21137 5.497907,-7.08893 m -20.202889,-9.20894 -6.377998,4.19944 m 6.377998,-4.19944 1.629944,-9.57394 m -1.629944,9.57394 7.096911,2.81922 m -7.096911,-2.81922 6.343783,-4.25095 m -6.343783,4.25095 -7.188337,-4.07252 m 3.459833,16.29102 -2.649494,-8.01906 m 2.649494,8.01906 2.649494,8.01907 m -2.649494,-8.01907 10.05691,0.868 m -5.030218,-6.01222 -7.676186,-2.87484 m 7.676186,2.87484 5.798723,-4.25506 m -5.798723,4.25506 5.030218,6.01222 m -5.030218,-6.01222 -1.298188,-7.07428 m 1.298188,7.07428 -5.026692,5.14422 m 30.484255,-16.93768 0.558868,-9.28955 m -0.558868,9.28955 -5.98351,7.1278 m 5.98351,-7.1278 -9.229449,-1.19385 m -13.949852,33.14616 -4.65546,-6.99556 m 4.65546,6.99556 4.655461,6.99557 m 18.993539,-32.47823 -6.453209,0.65815 m 6.453209,-0.65815 -7.022561,7.45847 m 7.022561,-7.45847 4.166915,4.97131 m -4.166915,-4.97131 -0.469699,-6.46965 m 7.52554,2.70552 -2.888926,8.73544 m 2.888926,-8.73544 -7.52554,-2.70552 m 7.52554,2.70552 4.446687,-6.64685 m -4.446687,6.64685 -7.055841,3.76413 m 14.090413,-3.86888 -2.587885,-6.5421 m 2.587885,6.5421 -7.034572,0.10475 m 7.034572,-0.10475 5.84748,3.91191 m 3.3493,-11.33282 -11.784665,0.87881 m 11.784665,-0.87881 -3.3493,11.33282 m 3.3493,-11.33282 -9.19678,7.42091 m -1.39973,8.41861 -8.523768,0.42158 m 8.523768,-0.42158 -5.634842,-8.31386 m 5.634842,8.31386 7.24721,-4.5067 m -7.24721,4.5067 1.39973,-8.41861 m -21.413112,23.53635 3.69665,-6.29021 m -3.69665,6.29021 -5.197769,-5.12007 m 5.197769,5.12007 0.951653,7.2337 m 10.047129,-5.00123 -10.047129,5.00123 m 10.047129,-5.00123 -10.998782,-2.23247 m -5.900649,4.45573 -5.770191,8.35503 m 5.770191,-8.35503 0.70288,-9.5758 m -0.70288,9.5758 6.852302,2.77797 m -6.852302,-2.77797 -10.425652,1.35946 m 10.425652,-1.35946 5.900649,-4.45573 m -4.649405,11.20947 -7.021435,1.60129 m 7.021435,-1.60129 5.601058,-3.97577 m -5.601058,3.97577 -1.251244,-6.75374 m 0.699087,13.60018 -6.469278,-5.24515 m 6.469278,5.24515 6.469279,5.24514 m -6.469279,-5.24514 0.552157,-6.84644 m 7.06152,4.01499 -1.144398,8.07659 m 1.144398,-8.07659 -1.460462,-7.99076 m 1.460462,7.99076 -7.06152,-4.01499 m 7.06152,4.01499 -7.613677,2.83145 m 13.782659,-8.0878 -7.629444,-2.73441 m 7.629444,2.73441 2.417685,-7.73564 m -2.417685,7.73564 -6.168982,5.25635 m 6.632672,11.05658 -7.77707,-2.97999 m 7.77707,2.97999 7.777069,2.97999 m -1.432578,-21.41073 -4.390496,-5.61783 m 4.390496,5.61783 -6.808181,2.11781 m 6.808181,-2.11781 6.805344,2.12692 m 0.008,-11.97632 -11.20385,4.23157 m 11.20385,-4.23157 -0.008,11.97632 m 0.008,-11.97632 -6.813354,9.8494 m 1.389201,7.50578 -8.197382,-5.38797 m 8.197382,5.38797 5.416143,-5.37886 m -5.416143,5.37886 -1.389201,-7.50578 m 11.879904,12.65293 6.32481,9.82572 m -6.32481,-9.82572 -5.07456,-10.52601 m 5.07456,10.52601 -10.490703,-5.14715 m 1.305681,6.94847 -1.262304,6.95648 m 1.262304,-6.95648 -9.039373,3.97649 m 9.039373,-3.97649 -1.305681,-6.94847 m 1.305681,6.94847 9.185022,-1.80132 m -2.06126,9.29176 -8.386066,-0.53396 m 8.386066,0.53396 8.38607,0.53396 m -8.38607,-0.53396 2.06126,-9.29176 m -2.06126,9.29176 -7.123762,-7.49044 m -6.02786,-52.79022 -4.644432,-4.941 m 4.644432,4.941 -5.2033,4.34855 m 5.2033,-4.34855 6.768927,0.40722 m -6.768927,-0.40722 2.32224,7.05407 m -0.294095,-13.61382 -6.672577,1.61875 m 6.672577,-1.61875 3.954767,-5.61279 m -3.954767,5.61279 4.740782,6.96697 m -4.740782,-6.96697 -2.028145,6.55975 m -0.442152,-12.49997 -4.099913,-7.0523 m 4.099913,7.0523 -4.20228,7.55897 m 4.20228,-7.55897 -6.429021,0.23737 m 6.429021,-0.23737 6.425064,0.32743 m -6.425064,-0.32743 2.470297,5.94022 m 6.711687,0.52939 -2.75692,-6.14218 m 2.75692,6.14218 -1.970905,6.43758 m 1.970905,-6.43758 9.81376,5.55877 m -9.81376,-5.55877 -6.711687,-0.52939 m 1.027983,-11.3836 -7.598193,-1.60892 m 7.598193,1.60892 2.926784,5.77081 m -2.926784,-5.77081 -4.594583,-8.75913 m 4.594583,8.75913 4.755754,-4.38762 m -4.755754,4.38762 -3.49828,5.44338 m 17.652954,-1.0224 -8.47097,7.49201 m -4.689365,28.79222 -4.617153,-6.97235 m 4.617153,6.97235 3.906615,-7.39393 m -3.906615,7.39393 -5.107985,9.95628 m 5.107985,-9.95628 6.095865,5.72471 m 6.16153,-7.77023 -1.10357,-9.85511 m 1.10357,9.85511 -8.35078,-5.34841 m 8.35078,5.34841 -6.16153,7.77023 m 6.16153,-7.77023 -12.257395,2.04552 m 20.010065,-7.90301 9.6511,1.12712 m -9.6511,-1.12712 -8.85624,-3.99762 m 8.85624,3.99762 -7.75267,5.85749 m 6.05321,-13.90132 9.56369,-1.98951 m -9.56369,1.98951 -7.15678,4.04621 m 7.15678,-4.04621 -3.80748,-7.28661 m 3.80748,7.28661 1.69946,8.04383 m 5.34767,-3.90714 2.51656,-6.1262 m -2.51656,6.1262 4.30343,5.03426 m -4.30343,-5.03426 10.25726,-4.57306 m -10.25726,4.57306 -5.34767,3.90714 m 5.34767,-3.90714 -7.04713,-4.13669 m -3.73506,22.06759 -8.47968,-0.39604 m 8.47968,0.39604 -2.31815,-8.16627 m 2.31815,8.16627 6.6515,5.27441 m 2.57092,-9.84958 5.8632,-8.32147 m -5.8632,8.32147 -11.54057,-3.5911 m 11.54057,3.5911 -3.7879,-9.44859 m 3.7879,9.44859 -2.57092,9.84958 m 2.57092,-9.84958 -9.22242,4.57517 m -1.03778,8.14 -7.44991,3.44028 m 7.44991,-3.44028 -7.4419,-8.53604 m 7.4419,8.53604 7.68928,-2.86559 m -7.68928,2.86559 1.03778,-8.14 m 6.49606,16.60648 0.15544,-11.33207 m -0.15544,11.33207 -7.53384,-8.46648 m 127.33271,-46.97338 -0.37625,7.40689 m 0.37625,-7.40689 -6.29649,-3.91889 m 6.29649,3.91889 6.64851,3.28646 m 0.58398,-7.05272 6.44078,2.9323 m -6.44078,-2.9323 -0.3047,-10.25086 m 0.3047,10.25086 5.3343,-4.65051 m -5.3343,4.65051 -0.58398,7.05272 m 0.58398,-7.05272 -7.23249,3.76626 m -6.08783,3.40376 5.71158,4.00313 m -5.71158,-4.00313 -0.20866,-7.32265 m 0.20866,7.32265 -6.97471,-0.0237 m 6.97471,0.0237 -1.29547,6.9215 m 1.29547,-6.9215 6.08783,-3.40376 m 0.51313,-7.84216 6.41466,-6.17496 m -6.41466,6.17496 -4.9717,-7.54257 m 4.9717,7.54257 -6.80962,3.92327 m 6.80962,-3.92327 -0.51313,7.84216 m 0.51313,-7.84216 6.71936,4.0759 m -44.76998,-92.48321 4.71565,3.95904 m -4.71565,-3.95904 0.29856,9.57275 m -0.29856,-9.57275 -6.05971,1.09145 m 6.05971,-1.09145 9.98249,0.17021 m -9.98249,-0.17021 1.58347,-5.95012 m -5.4718,1.72958 -4.42276,-5.04616 m 4.42276,5.04616 -2.17138,5.31199 m 2.17138,-5.31199 -10.25572,1.6454 m 10.25572,-1.6454 5.4718,-1.72958 m -5.4718,1.72958 0.34085,-9.96349 m -0.34085,9.96349 3.88833,4.22054 m -48.46797,-45.271177 -3.53037,5.081811 m 3.53037,-5.081811 -3.04913,-5.384341 m 3.04913,5.384341 6.0849,1.123536 m -3.91291,4.152552 2.53866,5.65137 m -2.53866,-5.65137 -5.70236,-0.194277 m 5.70236,0.194277 3.91291,-4.152552 m -3.91291,4.152552 -2.17199,-5.276088 m 7.4294,6.310277 -2.71875,4.617181 m 2.71875,-4.617181 -1.3445,-5.186741 m 1.3445,5.186741 -5.25741,-1.034189 m -3.01635,4.750865 -2.4595,5.156081 m 2.4595,-5.156081 5.55501,0.900505 m -5.55501,-0.900505 -2.68601,-4.945142 m 2.68601,4.945142 3.01635,-4.750865 m 8.61664,-2.604214 7.54271,-3.981099 m -7.54271,3.981099 -4.70373,-1.548338 m 4.70373,1.548338 -3.35923,3.638403 m 2.34907,-8.488562 3.4041,-3.599525 m -3.4041,3.599525 8.55287,0.86906 m -8.55287,-0.86906 -3.69357,3.301821 m 3.69357,-3.301821 -2.62681,-8.20862 m 2.62681,8.20862 1.01016,4.850159 m -6.73873,-7.541589 -2.92915,-10.126285 m 2.92915,10.126285 -7.09903,-0.514626 m 7.09903,0.514626 2.035,5.993251 m -2.035,-5.993251 3.10176,-5.51719 m -3.10176,5.51719 -4.0499,4.869715 m 4.0499,-4.869715 5.72857,2.69143 m 2.62461,9.710673 9.04904,2.480048 m -9.04904,-2.480048 1.24445,4.968139 m -1.24445,-4.968139 -7.69243,3.39507 m 7.69243,-3.39507 -4.97368,-1.222111 m 4.97368,1.222111 -1.61445,-4.860514 m -16.86005,8.026366 2.76756,4.484794 m -2.76756,-4.484794 -5.19566,0.881978 m 5.19566,-0.881978 2.54105,-5.616429 m -2.54105,5.616429 5.22706,-0.671287 m 16.94749,-6.421942 7.37698,-0.445651 m -7.37698,0.445651 5.34899,6.407425 m -5.34899,-6.407425 2.22821,-4.914236 m -2.22821,4.914236 -5.3145,-0.933137 m 5.3145,0.933137 -3.70005,3.927377 m -21.93491,-1.474527 -1.73525,5.522357 m 1.73525,-5.522357 6.00146,-0.97605 m -6.00146,0.97605 -8.24997,1.437985 m 8.24997,-1.437985 -2.07851,-5.402531 m 2.07851,5.402531 3.46041,4.640379 m 0.26437,-10.965252 2.27668,5.348823 m -2.27668,-5.348823 -5.80329,0.922342 m 5.80329,-0.922342 2.75792,-5.117329 m -2.75792,5.117329 -3.9875,-7.218096 m 3.9875,7.218096 5.80705,0.267012 m -5.80705,-0.267012 -3.72478,6.324873 m 41.42771,133.490056 -6.00543,2.57261 m 6.00543,-2.57261 3.90499,5.2378 m -3.90499,-5.2378 4.12346,-5.06761 m -4.12346,5.06761 -1.97961,7.36112 m -3.40704,-11.63982 -0.61878,6.85131 m 0.61878,-6.85131 1.12677,-6.78629 m -1.12677,6.78629 9.51011,-0.78891 m -9.51011,0.78891 -9.49241,-1.21499 m 9.49241,1.21499 -7.12182,7.85066 m 7.12182,-7.85066 5.38665,4.2787 m -25.7423,8.8706 4.58733,4.67898 m -4.58733,-4.67898 10.78824,0.80933 m -10.78824,-0.80933 2.21647,-6.16634 m -2.21647,6.16634 -5.64504,-10.04334 m 5.64504,10.04334 -6.40141,1.39939 m 6.40141,-1.39939 -0.18357,9.48388 m -17.03302,-28.90424 0.22291,-6.44761 m -0.22291,6.44761 5.8372,2.74743 m -5.8372,-2.74743 6.45221,-8.45459 m -6.45221,8.45459 4.51671,9.68441 m -4.51671,-9.68441 -4.79332,4.31803 m -2.68893,-7.80438 7.70516,-2.96126 m -7.70516,2.96126 3.09349,-11.91234 m -3.09349,11.91234 2.68893,7.80438 m -2.68893,-7.80438 7.48225,3.48635 m -11.47897,2.2561 6.68565,2.06193 m -6.68565,-2.06193 3.99672,-5.74245 m -3.99672,5.74245 -6.61479,2.27906 m 7.75056,5.90813 9.51909,3.86073 m -9.51909,-3.86073 5.54988,-6.12526 m -5.54988,6.12526 0.16551,8.26393 m -0.16551,-8.26393 -7.75056,-5.90813 m 7.75056,5.90813 -1.13577,-8.18719 m -5.84464,-6.2246 -2.96764,-8.00616 m 2.96764,8.00616 9.84136,0.48215 m -9.84136,-0.48215 -0.77015,8.50366 m 0.77015,-8.50366 5.84464,6.2246 m -8.28619,12.50952 9.58747,3.9416 m -9.58747,-3.9416 1.6714,-10.23046 m -1.6714,10.23046 9.42196,-4.32233 m -15.74158,-10.91855 -5.63018,-7.56716 m 5.63018,7.56716 -4.55689,9.42615 m 4.55689,-9.42615 7.99102,5.01042 m -7.99102,-5.01042 8.76117,-3.49324 m 5.25092,-6.49944 7.68393,-4.93075 m -7.68393,4.93075 -0.82403,-11.03279 m 0.82403,11.03279 -8.21856,-1.50672 m 8.21856,1.50672 4.59044,6.98159 m -4.59044,-6.98159 -5.25092,6.49944 m -7.6945,-3.17848 4.72686,-4.82768 m -4.72686,4.82768 -0.30314,-11.1465 m 0.30314,11.1465 -6.69685,-0.89544 m 6.69685,0.89544 7.6945,3.17848 m -7.6945,-3.17848 -1.06667,6.67172 m 1.47381,6.52703 -6.0307,2.89912 m 6.0307,-2.89912 6.51721,-1.51661 m -6.51721,1.51661 4.84581,8.71385 m -4.84581,-8.71385 -1.47381,-6.52703 m 0.70845,12.65697 -5.26534,-3.23082 m 5.26534,3.23082 5.61117,2.58391 m -5.61117,-2.58391 0.76536,-6.12994 m -0.1076,12.08608 -4.58031,3.86382 m 4.58031,-3.86382 4.95341,-3.37223 m -4.95341,3.37223 -0.65776,-5.95614 m -5.7163,3.41005 1.79375,6.40991 m -1.79375,-6.40991 -8.02001,0.85114 m 8.02001,-0.85114 0.45096,-6.64087 m -0.45096,6.64087 5.7163,-3.41005 m -5.7163,3.41005 6.37406,2.54609 m 5.81532,3.21792 2.97554,5.943 m -2.97554,-5.943 8.72556,-2.64855 m -8.72556,2.64855 -0.86191,-6.59015 m 0.86191,6.59015 -5.81532,-3.21792 m 0.74078,5.52488 8.05008,3.63604 m -8.05008,-3.63604 -5.32109,-1.66106 m 5.32109,1.66106 -1.51361,5.62555 m 1.51361,-5.62555 -0.74078,-5.52488 m 0.74078,5.52488 5.07454,-2.30696 m -14.20207,-22.48564 1.39036,-6.91255 m -1.39036,6.91255 -6.93527,1.27216 m 6.93527,-1.27216 2.46365,10.08076 m -2.46365,-10.08076 7.02054,0.65461 m 22.22329,20.46343 3.03738,-5.68415 m -3.03738,5.68415 2.92614,5.7422 m -2.92614,-5.7422 8.56879,2.73027 m -8.56879,-2.73027 -4.32552,8.86374 m 4.32552,-8.86374 -6.3162,-1.28095 m 30.58949,36.32011 -1.9415,9.13283 m 1.9415,-9.13283 9.15996,-0.10585 m -9.15996,0.10585 -8.51216,-3.38513 m 8.51216,3.38513 0.79645,-9.12588 m -0.79645,9.12588 -10.78978,5.79383 m -8.04069,7.0584 3.7806,5.10991 m -3.7806,-5.10991 8.04069,-7.0584 m -8.04069,7.0584 10.33478,0.69526 m -10.33478,-0.69526 -0.0583,-6.35616 m 0.0583,6.35616 -3.7883,8.54411 m -7.69101,-6.89286 0.12212,10.32707 m -0.12212,-10.32707 7.69101,6.89286 M 119.90543,93.191351 116.76991,87.791767 m 3.13552,5.399584 -4.131,4.682072 m 4.131,-4.682072 6.09833,1.340624 m -6.09833,-1.340624 2.084,6.379868 m 2.0707,-10.738503 -0.0575,-6.021292 m 0.0575,6.021292 -7.29022,-1.040949 m 7.29022,1.040949 6.06759,0.163383 m -6.06759,-0.163383 1.94363,5.699259 m -1.94363,-5.699259 -4.1547,4.358635 m -10.61526,86.383729 -5.41546,-4.41319 m 5.41546,4.41319 6.17412,-3.26857 m -6.17412,3.26857 -0.21959,6.98249 m 0.21959,-6.98249 6.47726,7.87793 m -12.33428,-4.56743 0.44156,-7.72369 m -0.44156,7.72369 -6.355126,2.20825 m 6.355126,-2.20825 5.63743,3.67199 m -5.63743,-3.67199 -2.6882,11.8567 m 2.6882,-11.8567 4.24707,10.58454 m -4.24707,-10.58454 5.85702,-3.3105 m -10.744086,-0.50517 5.328626,-3.90802 m -5.328626,3.90802 -1.520672,-6.01085 m 1.520672,6.01085 -1.46806,6.02392 m 1.46806,-6.02392 4.887066,3.81567 m -10.76013,-2.05612 -2.478265,-5.60777 m 2.478265,5.60777 4.352392,-7.7704 m -4.352392,7.7704 4.405004,4.26437 m -4.405004,-4.26437 -8.37833,6.42068 m 8.37833,-6.42068 -10.423839,-3.01455 m 10.423839,3.01455 -1.278407,9.54131 m 1.278407,-9.54131 5.873064,-1.75955 m -8.093202,85.87311 -8.308397,5.91695 m 8.308397,-5.91695 -7.163999,-2.15964 m 7.163999,2.15964 -0.995017,-7.41599 m 0.995017,7.41599 -0.531327,8.89694 m 0.531327,-8.89694 7.202365,-2.02802 m -7.202365,2.02802 8.508046,4.92045 m -29.953174,-22.96326 -9.112747,-0.52166 m 9.112747,0.52166 -1.705331,-7.67273 m 1.705331,7.67273 6.671245,-4.46136 m -6.671245,4.46136 -4.457287,6.4739 m 4.457287,-6.4739 5.968365,5.11444 m 29.116571,-51.42577 -5.17671,4.31183 m 5.17671,-4.31183 -3.34774,-5.8466 m 3.34774,5.8466 -2.41979,10.45401 m 2.41979,-10.45401 -8.103494,-1.45898 m 8.103494,1.45898 6.05118,2.962 m -6.05118,-2.962 3.58753,-7.11876 m -16.608483,49.62043 -6.498319,-1.82184 m 6.498319,1.82184 1.294645,-10.22779 m -1.294645,10.22779 -10.194969,4.46837 m 10.194969,-4.46837 0.803813,6.70084 m -0.803813,-6.70084 5.911798,-3.25544 m 29.867285,10.11308 5.24273,-6.98651 m -5.24273,6.98651 7.51209,4.45713 m -7.51209,-4.45713 -8.64024,1.28208 m 8.64024,-1.28208 -6.06932,-8.5675 m 2.69595,15.58892 -5.26687,-5.73934 m 5.26687,5.73934 -5.42231,5.59273 m 5.42231,-5.59273 3.37337,-7.02142 m -0.0276,-10.53686 5.2703,3.55035 m -5.2703,-3.55035 10.4224,-2.43183 m -10.4224,2.43183 -0.17855,-6.35211 m 0.17855,6.35211 -6.04175,1.96936 m 6.04175,-1.96936 0.0276,10.53686 m -15.95207,11.39701 -7.82736,-3.80906 m 7.82736,3.80906 -2.7528,6.71695 m 2.7528,-6.71695 -0.37745,-7.24934 m 0.37745,7.24934 7.15639,1.21714 m -2.29284,7.54567 -1.29154,7.77986 m 1.29154,-7.77986 -7.61635,-2.04586 m 7.61635,2.04586 2.29284,-7.54567 m -2.29284,7.54567 -4.86355,-8.76281 m 11.84147,14.82767 -8.26946,1.715 m 8.26946,-1.715 8.26946,-1.715 m -8.26946,1.715 -6.97792,-6.06486 m 7.6786,-1.78796 7.56878,6.13782 m -7.56878,-6.13782 -5.38576,-5.75771 m 5.38576,5.75771 7.44666,-4.18925 m -7.44666,4.18925 -7.6786,1.78796 m 7.6786,-1.78796 -0.70068,7.85282 m 13.49166,-15.61599 -1.86897,-6.15156 m 1.86897,6.15156 6.07674,-4.43349 m -6.07674,4.43349 2.34669,10.46678 m -2.34669,-10.46678 6.13499,1.92267 m -6.13499,-1.92267 -5.34432,3.57392 m -1.38692,-5.9793 4.86227,-3.74618 m -4.86227,3.74618 1.38692,5.9793 m -1.38692,-5.9793 -2.64982,-8.20331 m 2.64982,8.20331 -6.02319,-1.18189 m 6.02319,1.18189 6.73124,2.40538 m -10.65561,1.6554 -7.52113,0.35006 m 7.52113,-0.35006 5.31129,1.91852 m -5.31129,-1.91852 -2.09882,-5.24267 m 2.09882,5.24267 -2.13537,6.10777 m 2.13537,-6.10777 3.92437,-4.06078 m 139.44943,-82.50522 4.67617,5.548 m -4.67617,-5.548 7.24283,-2.4095 m -7.24283,2.4095 -0.17618,-7.25367 m 0.17618,7.25367 -7.71563,-9.23274 m 7.71563,9.23274 -6.78477,2.5717 v 0"
           style="fill:none;stroke:#000000;stroke-width:0.5;stroke-linecap:square;stroke-linejoin:round;stroke-miterlimit:10;stroke-dasharray:none;stroke-opacity:0.2"
           id="path24" />
      </g>
    </g>
    <g
       id="g26">
      <path
         d="m 60.22502,23.871875 v -3.5"
         style="fill:#000000;fill-opacity:1;fill-rule:nonzero;stroke:#000000;stroke-width:0.8;stroke-linecap:butt;stroke-linejoin:round;stroke-miterlimit:10;stroke-dasharray:none;stroke-opacity:1"
         id="path28" />
      <g
         id="g30"
         transform="translate(46.498457,9.278125)">
        <text
           xml:space="preserve"
           transform="matrix(1,0,0,-1,8.3789063,0)"
           style="font-variant:normal;font-weight:normal;font-size:10px;font-family:'DejaVu Sans';-inkscape-font-specification:DejaVuSans;writing-mode:lr-tb;fill:#000000;fill-opacity:1;fill-rule:nonzero;stroke:none"
           id="text34"><tspan
             x="0 6.3600001 12.72"
             y="0"
             sodipodi:role="line"
             id="tspan32">400</tspan></text>
        <g
           id="g36"
           transform="scale(0.01)">
          <g
             id="g38">
            <g
               id="g40"
               clip-path="url(#clipPath44)">
              <path
                 d="M 106,355 H 732 V 272 H 106 Z"
                 style="fill:#000000;fill-opacity:1;fill-rule:nonzero;stroke:none"
                 id="path46" />
            </g>
          </g>
        </g>
      </g>
      <path
         d="m 104.06395,23.871875 v -3.5"
         style="fill:#000000;fill-opacity:1;fill-rule:nonzero;stroke:#000000;stroke-width:0.8;stroke-linecap:butt;stroke-linejoin:round;stroke-miterlimit:10;stroke-dasharray:none;stroke-opacity:1"
         id="path48" />
      <g
         id="g50"
         transform="translate(90.337388,9.278125)">
        <text
           xml:space="preserve"
           transform="matrix(1,0,0,-1,8.3789063,0)"
           style="font-variant:normal;font-weight:normal;font-size:10px;font-family:'DejaVu Sans';-inkscape-font-specification:DejaVuSans;writing-mode:lr-tb;fill:#000000;fill-opacity:1;fill-rule:nonzero;stroke:none"
           id="text54"><tspan
             x="0 6.3600001 12.72"
             y="0"
             sodipodi:role="line"
             id="tspan52">200</tspan></text>
        <g
           id="g56"
           transform="scale(0.01)">
          <g
             id="g58">
            <g
               id="g60"
               clip-path="url(#clipPath64)">
              <path
                 d="M 106,355 H 732 V 272 H 106 Z"
                 style="fill:#000000;fill-opacity:1;fill-rule:nonzero;stroke:none"
                 id="path66" />
            </g>
          </g>
        </g>
      </g>
      <path
         d="m 147.90288,23.871875 v -3.5"
         style="fill:#000000;fill-opacity:1;fill-rule:nonzero;stroke:#000000;stroke-width:0.8;stroke-linecap:butt;stroke-linejoin:round;stroke-miterlimit:10;stroke-dasharray:none;stroke-opacity:1"
         id="path68" />
      <g
         id="g70"
         transform="translate(144.72319,9.278125)">
        <text
           xml:space="preserve"
           transform="scale(1,-1)"
           style="font-variant:normal;font-weight:normal;font-size:10px;font-family:'DejaVu Sans';-inkscape-font-specification:DejaVuSans;writing-mode:lr-tb;fill:#000000;fill-opacity:1;fill-rule:nonzero;stroke:none"
           id="text74"><tspan
             x="0"
             y="0"
             id="tspan72">0</tspan></text>
      </g>
      <path
         d="m 191.74181,23.871875 v -3.5"
         style="fill:#000000;fill-opacity:1;fill-rule:nonzero;stroke:#000000;stroke-width:0.8;stroke-linecap:butt;stroke-linejoin:round;stroke-miterlimit:10;stroke-dasharray:none;stroke-opacity:1"
         id="path76" />
      <g
         id="g78"
         transform="translate(182.20275,9.278125)">
        <text
           xml:space="preserve"
           transform="scale(1,-1)"
           style="font-variant:normal;font-weight:normal;font-size:10px;font-family:'DejaVu Sans';-inkscape-font-specification:DejaVuSans;writing-mode:lr-tb;fill:#000000;fill-opacity:1;fill-rule:nonzero;stroke:none"
           id="text82"><tspan
             x="0 6.3600001 12.72"
             y="0"
             sodipodi:role="line"
             id="tspan80">200</tspan></text>
      </g>
      <path
         d="m 235.58074,23.871875 v -3.5"
         style="fill:#000000;fill-opacity:1;fill-rule:nonzero;stroke:#000000;stroke-width:0.8;stroke-linecap:butt;stroke-linejoin:round;stroke-miterlimit:10;stroke-dasharray:none;stroke-opacity:1"
         id="path84" />
      <g
         id="g86"
         transform="translate(226.04168,9.278125)">
        <text
           xml:space="preserve"
           transform="scale(1,-1)"
           style="font-variant:normal;font-weight:normal;font-size:10px;font-family:'DejaVu Sans';-inkscape-font-specification:DejaVuSans;writing-mode:lr-tb;fill:#000000;fill-opacity:1;fill-rule:nonzero;stroke:none"
           id="text90"><tspan
             x="0 6.3600001 12.72"
             y="0"
             sodipodi:role="line"
             id="tspan88">400</tspan></text>
      </g>
      <path
         d="m 279.41967,23.871875 v -3.5"
         style="fill:#000000;fill-opacity:1;fill-rule:nonzero;stroke:#000000;stroke-width:0.8;stroke-linecap:butt;stroke-linejoin:round;stroke-miterlimit:10;stroke-dasharray:none;stroke-opacity:1"
         id="path92" />
      <g
         id="g94"
         transform="translate(269.88061,9.278125)">
        <text
           xml:space="preserve"
           transform="scale(1,-1)"
           style="font-variant:normal;font-weight:normal;font-size:10px;font-family:'DejaVu Sans';-inkscape-font-specification:DejaVuSans;writing-mode:lr-tb;fill:#000000;fill-opacity:1;fill-rule:nonzero;stroke:none"
           id="text98"><tspan
             x="0 6.3600001 12.72"
             y="0"
             sodipodi:role="line"
             id="tspan96">600</tspan></text>
      </g>
      <path
         d="m 41.653125,25.446299 h -3.5"
         style="fill:#000000;fill-opacity:1;fill-rule:nonzero;stroke:#000000;stroke-width:0.8;stroke-linecap:butt;stroke-linejoin:round;stroke-miterlimit:10;stroke-dasharray:none;stroke-opacity:1"
         id="path100" />
      <g
         id="g102"
         transform="translate(7.2,21.649424)">
        <text
           xml:space="preserve"
           transform="matrix(1,0,0,-1,8.3789063,0)"
           style="font-variant:normal;font-weight:normal;font-size:10px;font-family:'DejaVu Sans';-inkscape-font-specification:DejaVuSans;writing-mode:lr-tb;fill:#000000;fill-opacity:1;fill-rule:nonzero;stroke:none"
           id="text106"><tspan
             x="0 6.3600001 12.72"
             y="0"
             sodipodi:role="line"
             id="tspan104">600</tspan></text>
        <g
           id="g108"
           transform="scale(0.01)">
          <g
             id="g110">
            <g
               id="g112"
               clip-path="url(#clipPath116)">
              <path
                 d="M 106,355 H 732 V 272 H 106 Z"
                 style="fill:#000000;fill-opacity:1;fill-rule:nonzero;stroke:none"
                 id="path118" />
            </g>
          </g>
        </g>
      </g>
      <path
         d="m 41.653125,69.285229 h -3.5"
         style="fill:#000000;fill-opacity:1;fill-rule:nonzero;stroke:#000000;stroke-width:0.8;stroke-linecap:butt;stroke-linejoin:round;stroke-miterlimit:10;stroke-dasharray:none;stroke-opacity:1"
         id="path120" />
      <g
         id="g122"
         transform="translate(7.2,65.488354)">
        <text
           xml:space="preserve"
           transform="matrix(1,0,0,-1,8.3789063,0)"
           style="font-variant:normal;font-weight:normal;font-size:10px;font-family:'DejaVu Sans';-inkscape-font-specification:DejaVuSans;writing-mode:lr-tb;fill:#000000;fill-opacity:1;fill-rule:nonzero;stroke:none"
           id="text126"><tspan
             x="0 6.3600001 12.72"
             y="0"
             sodipodi:role="line"
             id="tspan124">400</tspan></text>
        <g
           id="g128"
           transform="scale(0.01)">
          <g
             id="g130">
            <g
               id="g132"
               clip-path="url(#clipPath136)">
              <path
                 d="M 106,355 H 732 V 272 H 106 Z"
                 style="fill:#000000;fill-opacity:1;fill-rule:nonzero;stroke:none"
                 id="path138" />
            </g>
          </g>
        </g>
      </g>
      <path
         d="m 41.653125,113.12416 h -3.5"
         style="fill:#000000;fill-opacity:1;fill-rule:nonzero;stroke:#000000;stroke-width:0.8;stroke-linecap:butt;stroke-linejoin:round;stroke-miterlimit:10;stroke-dasharray:none;stroke-opacity:1"
         id="path140" />
      <g
         id="g142"
         transform="translate(7.2,109.32729)">
        <text
           xml:space="preserve"
           transform="matrix(1,0,0,-1,8.3789063,0)"
           style="font-variant:normal;font-weight:normal;font-size:10px;font-family:'DejaVu Sans';-inkscape-font-specification:DejaVuSans;writing-mode:lr-tb;fill:#000000;fill-opacity:1;fill-rule:nonzero;stroke:none"
           id="text146"><tspan
             x="0 6.3600001 12.72"
             y="0"
             sodipodi:role="line"
             id="tspan144">200</tspan></text>
        <g
           id="g148"
           transform="scale(0.01)">
          <g
             id="g150">
            <g
               id="g152"
               clip-path="url(#clipPath156)">
              <path
                 d="M 106,355 H 732 V 272 H 106 Z"
                 style="fill:#000000;fill-opacity:1;fill-rule:nonzero;stroke:none"
                 id="path158" />
            </g>
          </g>
        </g>
      </g>
      <path
         d="m 41.653125,156.96309 h -3.5"
         style="fill:#000000;fill-opacity:1;fill-rule:nonzero;stroke:#000000;stroke-width:0.8;stroke-linecap:butt;stroke-linejoin:round;stroke-miterlimit:10;stroke-dasharray:none;stroke-opacity:1"
         id="path160" />
      <g
         id="g162"
         transform="translate(28.29375,153.16622)">
        <text
           xml:space="preserve"
           transform="scale(1,-1)"
           style="font-variant:normal;font-weight:normal;font-size:10px;font-family:'DejaVu Sans';-inkscape-font-specification:DejaVuSans;writing-mode:lr-tb;fill:#000000;fill-opacity:1;fill-rule:nonzero;stroke:none"
           id="text166"><tspan
             x="0"
             y="0"
             id="tspan164">0</tspan></text>
      </g>
      <path
         d="m 41.653125,200.80202 h -3.5"
         style="fill:#000000;fill-opacity:1;fill-rule:nonzero;stroke:#000000;stroke-width:0.8;stroke-linecap:butt;stroke-linejoin:round;stroke-miterlimit:10;stroke-dasharray:none;stroke-opacity:1"
         id="path168" />
      <g
         id="g170"
         transform="translate(15.575,197.00515)">
        <text
           xml:space="preserve"
           transform="scale(1,-1)"
           style="font-variant:normal;font-weight:normal;font-size:10px;font-family:'DejaVu Sans';-inkscape-font-specification:DejaVuSans;writing-mode:lr-tb;fill:#000000;fill-opacity:1;fill-rule:nonzero;stroke:none"
           id="text174"><tspan
             x="0 6.3600001 12.72"
             y="0"
             sodipodi:role="line"
             id="tspan172">200</tspan></text>
      </g>
      <path
         d="m 41.653125,244.64095 h -3.5"
         style="fill:#000000;fill-opacity:1;fill-rule:nonzero;stroke:#000000;stroke-width:0.8;stroke-linecap:butt;stroke-linejoin:round;stroke-miterlimit:10;stroke-dasharray:none;stroke-opacity:1"
         id="path176" />
      <g
         id="g178"
         transform="translate(15.575,240.84408)">
        <text
           xml:space="preserve"
           transform="scale(1,-1)"
           style="font-variant:normal;font-weight:normal;font-size:10px;font-family:'DejaVu Sans';-inkscape-font-specification:DejaVuSans;writing-mode:lr-tb;fill:#000000;fill-opacity:1;fill-rule:nonzero;stroke:none"
           id="text182"><tspan
             x="0 6.3600001 12.72"
             y="0"
             sodipodi:role="line"
             id="tspan180">400</tspan></text>
      </g>
      <path
         d="m 41.653125,288.47988 h -3.5"
         style="fill:#000000;fill-opacity:1;fill-rule:nonzero;stroke:#000000;stroke-width:0.8;stroke-linecap:butt;stroke-linejoin:round;stroke-miterlimit:10;stroke-dasharray:none;stroke-opacity:1"
         id="path184" />
      <g
         id="g186"
         transform="translate(15.575,284.68301)">
        <text
           xml:space="preserve"
           transform="scale(1,-1)"
           style="font-variant:normal;font-weight:normal;font-size:10px;font-family:'DejaVu Sans';-inkscape-font-specification:DejaVuSans;writing-mode:lr-tb;fill:#000000;fill-opacity:1;fill-rule:nonzero;stroke:none"
           id="text190"><tspan
             x="0 6.3600001 12.72"
             y="0"
             sodipodi:role="line"
             id="tspan188">600</tspan></text>
      </g>
    </g>
    <g
       id="g192">
      <g
         id="g194"
         clip-path="url(#clipPath198)">
        <path
           d="m 278.75957,165.27928 -2.56667,7.9575 -2.56666,7.9575 -4.7592,6.9671 -4.75919,6.9671 -6.29029,5.58002 -6.29028,5.58002 -7.02476,4.12042 -7.02476,4.12043 -7.00705,2.91837 -7.00705,2.91837 -6.44429,2.22468 -6.4443,2.22467 -11.29901,4.29116 -9.91859,5.2279 -4.64698,3.40443 -4.64698,3.40443 -4.8531,4.18905 -4.85311,4.18904 -11.10146,9.23868 -6.55419,4.41466 -6.55418,4.41465 -7.5689,3.4342 -7.56889,3.43421 -8.26946,1.715 -8.26946,1.715 -8.38607,-0.53396 -8.386066,-0.53396 -7.777069,-2.97999 -7.77707,-2.97999 -6.469279,-5.24514 -6.469278,-5.24515 -4.655461,-6.99557 -4.65546,-6.99556 -2.649494,-8.01907 -2.649494,-8.01906 -0.810339,-8.27196 -0.810338,-8.27195 0.546112,-7.88342 0.546113,-7.88342 1.2251,-7.11674 1.2251,-7.11675 1.201262,-6.29743 1.201262,-6.29744 1.249668,-11.45323 -0.431799,-11.2037 -1.933254,-11.93081 -1.295522,-6.69326 -1.295522,-6.69326 -0.976139,-7.52747 -0.97614,-7.52747 0.05601,-8.14383 0.05601,-8.143835 1.687295,-8.237557 1.687294,-8.237557 3.65409,-7.605132 3.654089,-7.605133 5.608065,-6.20155 5.608065,-6.20155 7.20203,-4.158093 7.20203,-4.158094 8.174732,-1.755952 8.174727,-1.755952 8.41328,0.638032 8.41329,0.638032 7.97758,2.657538 7.97758,2.657539 7.08077,4.023408 7.08077,4.023409 6.03091,4.609095 6.03091,4.609095 5.14877,4.468585 5.14877,4.468585 9.36576,7.639654 9.48679,5.975798 10.54363,4.644373 12.10874,4.216788 6.77583,2.497405 6.77584,2.497404 7.1003,3.468763 7.1003,3.468762 6.75855,4.83775 6.75855,4.83775 5.61997,6.30406 5.61997,6.30407 3.7306,7.52952 3.73061,7.52953 1.30779,8.22514 1.30779,8.22513 -0.6601,8.31619"
           style="fill:none;stroke:#1f77b4;stroke-width:1.5;stroke-linecap:square;stroke-linejoin:round;stroke-miterlimit:10;stroke-dasharray:none;stroke-opacity:1"
           id="path200" />
      </g>
    </g>
    <g
       id="g202">
      <path
         d="M 41.653125,23.871875 V 289.98387"
         style="fill:none;stroke:#000000;stroke-width:0.8;stroke-linecap:square;stroke-linejoin:miter;stroke-miterlimit:10;stroke-dasharray:none;stroke-opacity:1"
         id="path204" />
      <path
         d="M 307.76512,23.871875 V 289.98387"
         style="fill:none;stroke:#000000;stroke-width:0.8;stroke-linecap:square;stroke-linejoin:miter;stroke-miterlimit:10;stroke-dasharray:none;stroke-opacity:1"
         id="path206" />
      <path
         d="M 41.653125,23.871875 H 307.76512"
         style="fill:none;stroke:#000000;stroke-width:0.8;stroke-linecap:square;stroke-linejoin:miter;stroke-miterlimit:10;stroke-dasharray:none;stroke-opacity:1"
         id="path208" />
      <path
         d="M 41.653125,289.98387 H 307.76512"
         style="fill:none;stroke:#000000;stroke-width:0.8;stroke-linecap:square;stroke-linejoin:miter;stroke-miterlimit:10;stroke-dasharray:none;stroke-opacity:1"
         id="path210" />
      <path
         d="m 196.10887,252.64012 h 104.65625 c 1.33334,0 2,0.66667 2,2 v 28.34375 c 0,1.33334 -0.66666,2 -2,2 H 196.10887 c -1.33333,0 -2,-0.66666 -2,-2 v -28.34375 c 0,-1.33333 0.66667,-2 2,-2 z"
         style="fill:#ffffff;fill-opacity:0.8;fill-rule:nonzero;stroke:#cccccc;stroke-width:1;stroke-linecap:butt;stroke-linejoin:miter;stroke-miterlimit:10;stroke-dasharray:none;stroke-opacity:0.8"
         id="path212" />
      <g
         id="g214"
         transform="translate(210.66356,273.39012)">
        <text
           xml:space="preserve"
           transform="scale(1,-1)"
           style="font-variant:normal;font-weight:normal;font-size:10px;font-family:'DejaVu Sans';-inkscape-font-specification:DejaVuSans;writing-mode:lr-tb;fill:#000000;fill-opacity:1;fill-rule:nonzero;stroke:none"
           id="text218"><tspan
             x="0 6.8600001 12.98 19.32 25.66 32.009998 38.139999 42.25 48.169998 51.349998 54.130001 60.259998 66.610001 72.760002"
             y="0"
             sodipodi:role="line"
             id="tspan216">Boundary label</tspan></text>
      </g>
      <path
         d="m 198.10887,262.21825 h 10 10"
         style="fill:none;stroke:#1f77b4;stroke-width:1.5;stroke-linecap:square;stroke-linejoin:round;stroke-miterlimit:10;stroke-dasharray:none;stroke-opacity:1"
         id="path220" />
      <g
         id="g222"
         transform="translate(226.10887,258.71825)">
        <text
           xml:space="preserve"
           transform="scale(1,-1)"
           style="font-variant:normal;font-weight:normal;font-size:10px;font-family:'DejaVu Sans';-inkscape-font-specification:DejaVuSans;writing-mode:lr-tb;fill:#000000;fill-opacity:1;fill-rule:nonzero;stroke:none"
           id="text226"><tspan
             x="0 8.6300001 14.55 19.76 23.68 29.83 33.939999 39.860001 43.040001 45.82 51.029999 53.810001 59.939999 66.279999"
             y="0"
             sodipodi:role="line"
             id="tspan224">Mystery island</tspan></text>
      </g>
    </g>
  </g>
</svg>
